<?xml version="1.0" encoding="UTF-8"?>
<svg id="Layer_2" data-name="Layer 2" xmlns="http://www.w3.org/2000/svg" viewBox="0 0 1083.74 822.83">
  <defs>
    <style>
      .cls-1 {
        fill: red;
        stroke-width: 0px;
      }
    </style>
  </defs>
  <g id="Layer_1-2" data-name="Layer 1">
    <g>
      <path class="cls-1" d="m623.21,106.99v2c35.13,0,87.21,39.52,129.06,71.27,7.15,5.43,13.91,10.55,20.36,15.32,2.88,2.13,5.76,4.26,8.64,6.4,41.43,30.76,84.27,62.57,125.08,63.99.71.02,1.42.04,2.12.04,16.16,0,29.12-6.46,41.65-12.7,12.28-6.12,23.88-11.89,38.16-11.91h.18c31.37,0,60.75,21.16,78.61,56.59,19.89,39.47,19.53,84.54-.89,112.19-15.96,19.64-36.8,36.05-60.27,47.45-24.3,11.8-51.15,18.03-77.66,18.03-17.54,0-34.99-2.68-51.85-7.96-6.33-1.98-13.05-5.12-19.55-8.16-11.5-5.37-23.39-10.93-34.58-10.93h0c-1.26,0-2.51.07-3.71.21-86.01,10.06-115.42,94.31-143.87,175.79-7.03,20.13-14.29,40.94-22.26,60.07-13.76,33.03-28,67.18-48.66,93.17-11,13.84-22.74,24.02-35.87,31.12-14.79,7.99-30.93,11.87-49.34,11.87-6.26,0-12.85-.47-19.59-1.4-55.71-7.69-78.95-52.43-103.55-99.79-15.99-30.8-32.53-62.64-58.89-85.85l-.04-.03-.04-.03c-15.43-12.3-30.67-18.28-46.57-18.28-30.06,0-56.64,21.18-84.78,43.6-27.99,22.3-56.93,45.36-89.28,45.36-2.83,0-5.69-.18-8.5-.53-33.99-4.24-60.41-22.18-78.53-53.31C-12.09,580.37-.01,461.26,24.41,402.27c9.9-23.9,21.63-44.5,34.88-61.22,12.26-15.47,26.25-28.16,41.59-37.71,26.48-16.5,58.02-24.52,96.41-24.51,34.61,0,69.9,6.31,104.04,12.41,8.92,1.59,17.34,3.1,25.8,4.5,5.61.93,11.28,1.9,16.77,2.84,32.56,5.56,63.3,10.81,92.03,10.81,5.8,0,11.42-.22,16.7-.66,32.63-2.72,61.64-16.88,83.91-40.96,24.73-26.75,40.81-64.65,47.79-112.65,4.52-31.03,17.23-46.12,38.88-46.12v-2m0,0c-20.57,0-35.8,13-40.87,47.83-14.58,100.14-68.22,146.78-129.89,151.91-5.4.45-10.92.66-16.53.66-33.52,0-70.57-7.32-108.47-13.62-41.29-6.86-86.44-16.94-130.17-16.94-68.38,0-133.3,24.62-174.73,124.68-35.51,85.78-43.28,288.42,84.49,304.37,2.94.37,5.86.54,8.74.54,64.82,0,114.16-88.96,174.06-88.96,14.38,0,29.37,5.13,45.32,17.84,66.49,58.54,70.14,173.24,163.49,186.12,6.95.96,13.57,1.42,19.86,1.42,78.19,0,107.99-70.86,135.72-137.4,39.75-95.38,58.41-222.22,164.52-234.64,1.15-.13,2.31-.2,3.48-.2,17.02,0,35.99,13.5,53.54,18.99,17.56,5.5,35.21,8.05,52.45,8.05,55.65,0,107.26-26.54,139.5-66.26,42.09-56.88-3.99-172-79.3-172-.06,0-.13,0-.19,0-29.81.04-48.76,24.61-79.8,24.61-.68,0-1.36-.01-2.05-.04-42.97-1.49-88.14-37.14-132.6-70-45.13-33.36-108.84-86.97-150.59-86.98h0Z"/>
      <path class="cls-1" d="m628.39,107.72v2c15.13,0,34.52,7.46,59.27,22.81,21.81,13.52,44.96,31.45,65.39,47.26,7.61,5.89,14.81,11.46,21.73,16.66,2.77,2.08,5.54,4.17,8.31,6.26,41.1,31,83.6,63.05,123.96,65.36,1.17.07,2.36.1,3.52.1,15.31,0,27.74-5.75,39.76-11.31,11.75-5.44,22.86-10.58,36.33-10.58.33,0,.66,0,.99,0,30.85.56,59.61,21.87,76.94,57.02,9.03,18.31,14.03,39.04,14.1,58.4.07,20.68-5.34,38.99-15.65,52.97-33.07,40.69-84.26,64.99-136.94,64.99-17.29,0-34.5-2.61-51.15-7.77-6.28-1.95-12.95-5.03-19.39-8.01-11.4-5.27-23.19-10.73-34.3-10.73h0c-1.23,0-2.45.07-3.62.2-85.75,9.75-115.88,92.37-145.02,172.28-7.04,19.32-14.33,39.29-22.25,57.7l-.52,1.22c-13.94,32.4-28.36,65.9-48.84,91.2-10.99,13.57-22.68,23.55-35.73,30.5-14.7,7.83-30.72,11.64-48.97,11.64-5.92,0-12.13-.42-18.47-1.25-55.02-7.2-79.14-51.95-104.67-99.33-16.37-30.38-33.3-61.8-59.26-84.31l-.08-.07-.09-.06c-14.6-10.16-28.9-15.11-43.72-15.11-30.37,0-57.96,21.55-84.64,42.39-27.55,21.52-56.04,43.77-88.27,43.77-2.67,0-5.38-.15-8.04-.46-35.15-6.74-61.83-26.47-79.31-58.65-12.1-22.27-25.9-62.31-22.95-126.55,1.92-41.88,11.09-86.57,24.52-119.55,9.75-23.88,21.35-44.44,34.48-61.12,12.14-15.42,26.02-28.05,41.26-37.55,26.23-16.35,57.61-24.3,95.94-24.29,33.2,0,67.1,5.76,99.89,11.33,8.95,1.52,17.41,2.96,25.91,4.29,6.93,1.08,13.94,2.23,20.71,3.34,31.63,5.17,61.5,10.05,89.54,10.05,5.51,0,10.86-.2,15.89-.58,32.03-2.46,61.06-17.01,83.94-42.07,24.12-26.42,41.04-63.28,50.29-109.55,5.79-28.82,18.62-42.84,39.24-42.84v-2m0,0c-19.67,0-34.72,12.17-41.2,44.44-18.87,94.36-69.81,145.22-132.42,150.02-5.15.4-10.4.58-15.74.58-34.04,0-71.61-7.37-109.94-13.36-40.12-6.3-83.79-15.64-126.11-15.64-68.1,0-132.7,24.19-173.53,124.21-35.57,87.36-51.26,282.54,79.3,307.49,2.81.32,5.59.48,8.34.48,64.71,0,112.51-86.16,172.91-86.16,13.46,0,27.54,4.28,42.58,14.75,65.78,57.06,73.05,172.08,164.98,184.11,6.53.85,12.78,1.27,18.73,1.27,77.97,0,107.77-70.38,135.9-135.77,40.19-93.38,60.32-216.8,165.66-228.78,1.12-.13,2.26-.19,3.4-.19,16.89,0,35.7,13.26,53.1,18.64,17.33,5.37,34.73,7.86,51.74,7.86,55.24,0,106.45-26.28,138.52-65.76,41.83-56.61-2.96-170.26-76.93-171.6-.34,0-.69,0-1.03,0-28.13,0-46.67,21.89-76.08,21.89-1.12,0-2.25-.03-3.41-.1-42.42-2.43-87.06-38.07-131.19-71.22-45.3-34.03-106.52-87.13-147.59-87.13h0Z"/>
      <path class="cls-1" d="m633.52,108.42v2c33.19,0,79.43,36.54,120.23,68.77,8.11,6.41,15.77,12.46,23.2,18.13,2.66,2.03,5.33,4.07,7.99,6.11,40.77,31.23,82.93,63.52,122.84,66.74,1.66.13,3.34.2,4.99.2,14.44,0,26.31-5.06,37.79-9.95,11.19-4.77,21.76-9.28,34.38-9.28.7,0,1.4.01,2.1.04,30.32,1.2,58.43,22.75,75.18,57.63,8.73,18.19,13.51,38.74,13.44,57.87-.07,20.46-5.52,38.6-15.75,52.49-32.82,40.39-83.64,64.5-135.96,64.5-17.04,0-34.01-2.55-50.44-7.58-6.23-1.91-12.84-4.93-19.23-7.86-11.3-5.17-22.99-10.52-34.01-10.52h0c-1.2,0-2.39.06-3.54.19-85.5,9.43-116.37,90.44-146.22,168.78-7.05,18.5-14.34,37.63-22.2,55.31l-1.36,3.05c-14.02,31.57-28.52,64.21-48.95,88.85-10.96,13.22-22.58,22.94-35.52,29.71-14.58,7.63-30.43,11.34-48.45,11.34-5.57,0-11.4-.37-17.34-1.1-54.33-6.72-79.33-51.47-105.8-98.86-16.74-29.97-34.05-60.96-59.61-82.79l-.13-.11-.15-.09c-13.61-8.11-26.86-12.05-40.49-12.05-30.83,0-58.27,20.98-84.81,41.26-27.14,20.75-55.21,42.21-87.36,42.21-2.51,0-5.05-.13-7.55-.39-36.23-9.26-63.12-30.73-79.93-63.81-20.65-40.62-21.91-90.72-19.33-125.59,2.99-40.47,12.71-83.66,26.66-118.49,18.66-46.4,43.2-78.6,75.04-98.43,25.99-16.2,57.23-24.07,95.49-24.07,31.78,0,64.27,5.23,95.69,10.28,8.59,1.38,17.47,2.81,26.01,4.07,8.21,1.2,16.51,2.5,24.53,3.76,30.76,4.82,59.82,9.37,87.21,9.37,5.21,0,10.27-.17,15.04-.51,15.95-1.12,31.23-5.43,45.42-12.8,13.92-7.23,26.88-17.45,38.55-30.38,23.32-25.87,41.08-61.68,52.78-106.43,7.01-26.64,19.94-39.59,39.56-39.59v-2m.01,0c-18.8,0-33.68,11.34-41.5,41.08-23.16,88.58-71.4,143.65-134.95,148.13-4.88.35-9.85.5-14.9.5-34.56,0-72.7-7.43-111.45-13.11-38.93-5.74-81.1-14.37-121.99-14.37-67.84,0-132.16,23.74-172.39,123.75C.72,483.34-22.89,671.06,110.46,705.01c2.66.28,5.3.42,7.9.42,64.74,0,110.98-83.47,172.16-83.47,12.44,0,25.5,3.45,39.47,11.77,65.07,55.57,75.97,170.92,166.46,182.11,6.12.76,11.98,1.12,17.59,1.12,77.74,0,107.55-69.92,136.1-134.15,40.62-91.39,62.23-211.38,166.81-222.92,1.1-.12,2.2-.18,3.32-.18,16.77,0,35.41,13.01,52.66,18.29,17.1,5.23,34.25,7.67,51.03,7.67,54.84,0,105.65-26.01,137.54-65.27,41.53-56.28-1.86-168.33-74.37-171.21-.73-.03-1.46-.04-2.17-.04-26.39,0-44.45,19.23-72.18,19.23-1.58,0-3.19-.06-4.83-.19-41.87-3.37-85.97-39.01-129.78-72.45-45.49-34.73-104.15-87.31-144.63-87.31h0Z"/>
      <path class="cls-1" d="m638.63,111.08c32.27,0,76.58,35.77,115.67,67.33,8.64,6.98,16.8,13.57,24.81,19.78,2.56,1.98,5.12,3.97,7.67,5.96,40.44,31.46,82.26,64,121.72,68.11,2.18.23,4.39.34,6.56.34,13.54,0,24.82-4.38,35.72-8.62,10.6-4.12,20.62-8.02,32.39-8.02,1.08,0,2.18.03,3.26.1,29.81,1.85,57.25,23.63,73.43,58.27,8.44,18.07,12.97,38.43,12.77,57.33-.22,20.23-5.7,38.21-15.84,51.99-32.58,40.08-83.03,64.01-134.98,64.01-16.78,0-33.52-2.49-49.74-7.39-6.18-1.87-12.73-4.84-19.07-7.71-11.21-5.07-22.79-10.32-33.73-10.32-1.17,0-2.33.06-3.44.18-85.28,9.12-116.89,88.52-147.45,165.3-7.04,17.68-14.32,35.97-22.1,52.91l-2.23,4.86c-14.09,30.74-28.67,62.53-49.03,86.52-10.92,12.87-22.47,22.34-35.31,28.93-14.46,7.43-30.14,11.05-47.93,11.05-5.21,0-10.66-.33-16.2-.97-24.37-2.83-44.47-13.56-63.25-33.78-16.72-18-29.82-40.63-43.68-64.59-17.11-29.56-34.79-60.13-59.96-81.28l-.18-.15-.22-.11c-12.43-6.15-24.45-9.14-36.74-9.14-31.52,0-58.9,20.46-85.37,40.25-26.76,20-54.44,40.69-86.57,40.69-2.33,0-4.7-.11-7.04-.33-37.22-11.8-64.27-34.93-80.4-68.76-8.18-17.15-13.58-37.18-16.08-59.54-2.23-19.95-2.15-41.87.22-65.13,5.34-52.32,20.33-96.14,28.8-117.6,18.36-46.37,42.69-78.5,74.36-98.22,25.75-16.04,56.86-23.83,95.1-23.83,30.35,0,61.42,4.71,91.46,9.26,8.61,1.3,17.51,2.65,26.07,3.83,9.45,1.29,19,2.73,28.23,4.12,29.97,4.51,58.27,8.76,85.05,8.76,4.88,0,9.64-.15,14.14-.44,31.36-2.02,59.62-16.92,84-44.29,22.21-24.94,40.8-59.7,55.26-103.31,8.16-24.48,21.2-36.39,39.86-36.39m0-2c-17.96,0-32.67,10.51-41.76,37.75-27.45,82.8-73,142.09-137.48,146.24-4.6.3-9.27.43-14.01.43-35.11,0-73.81-7.5-113.01-12.86-37.71-5.2-78.37-13.11-117.8-13.11-67.63,0-131.69,23.26-171.32,123.32C7.56,481.37-23.98,661.62,112.17,704.58c2.51.24,4.99.35,7.44.35,64.93,0,109.6-80.93,171.94-80.93,11.3,0,23.17,2.65,35.85,8.93,64.36,54.09,78.88,169.76,167.95,180.1,5.7.66,11.18.98,16.43.98,77.54,0,107.34-69.45,136.31-132.53,41.06-89.4,64.14-205.96,167.95-217.06,1.07-.11,2.15-.17,3.23-.17,16.64,0,35.12,12.77,52.22,17.94,16.86,5.1,33.78,7.48,50.31,7.48,54.44,0,104.85-25.74,136.56-64.79,41.23-55.96-.76-166.4-71.81-170.81-1.14-.07-2.27-.1-3.38-.11-24.62,0-42.13,16.64-68.11,16.64-2.06,0-4.17-.1-6.35-.33-41.32-4.31-84.89-39.95-128.37-73.67-45.72-35.46-101.74-87.53-141.71-87.53h0Z"/>
      <path class="cls-1" d="m643.68,111.72c31.43,0,71.94,33.46,111.12,65.81,9.19,7.59,17.86,14.75,26.49,21.55,2.46,1.93,4.91,3.87,7.37,5.81,40.11,31.69,81.58,64.47,120.58,69.49,2.73.35,5.5.53,8.23.53,12.6,0,23.25-3.73,33.55-7.33,9.99-3.5,19.42-6.8,30.32-6.8,1.5,0,3.01.06,4.5.19,29.29,2.51,56.09,24.53,71.68,58.93,8.13,17.94,12.43,38.11,12.09,56.78-.36,19.99-5.87,37.8-15.93,51.49-32.33,39.78-82.43,63.52-134,63.52-16.53,0-33.02-2.42-49.02-7.2-6.13-1.83-12.63-4.74-18.91-7.56-11.11-4.97-22.59-10.12-33.44-10.12h0c-1.14,0-2.27.06-3.35.17-85.07,8.8-117.44,86.6-148.74,161.84-7.01,16.86-14.26,34.29-21.96,50.49-1.04,2.2-2.09,4.4-3.13,6.62-14.16,29.93-28.8,60.89-49.1,84.24-10.89,12.53-22.36,21.75-35.09,28.17-14.34,7.24-29.84,10.76-47.41,10.76-4.85,0-9.91-.28-15.04-.84-24.03-2.6-44.13-13.22-63.24-33.41-17-17.96-31.15-41.59-44.84-64.45-17.46-29.16-35.52-59.31-60.3-79.79l-.25-.2-.3-.12c-10.98-4.33-21.55-6.43-32.31-6.43-32.52,0-59.96,20.02-86.5,39.38-26.42,19.28-53.73,39.21-85.93,39.21-2.15,0-4.33-.09-6.49-.26-38.13-14.33-65.29-39.05-80.72-73.48-14.73-32.88-18.94-74.54-12.51-123.82,6.05-46.31,20.16-89.11,30.93-116.85,18.07-46.36,42.18-78.43,73.7-98.04,25.88-16.1,55.99-23.59,94.76-23.59,28.91,0,58.53,4.21,87.17,8.28,8.62,1.22,17.53,2.49,26.11,3.59,10.65,1.35,21.41,2.91,31.82,4.42,29.23,4.23,56.83,8.22,83.05,8.22,4.55,0,8.99-.12,13.2-.37,16.04-.94,31.48-5.51,45.88-13.58,13.31-7.47,26.15-18.17,38.15-31.81,20.81-23.65,39.69-56.42,57.72-100.18,9.26-22.36,22.38-33.23,40.11-33.23m0-2c-17.14,0-31.69,9.67-41.96,34.46-31.74,77.03-74.59,140.53-140.02,144.35-4.3.25-8.66.37-13.08.37-35.66,0-74.95-7.58-114.61-12.62-36.46-4.67-75.57-11.88-113.53-11.88-67.45,0-131.29,22.75-170.33,122.91-35.76,92.1-75.22,264.89,63.72,316.85,2.34.2,4.65.29,6.93.29,65.37,0,108.36-78.59,172.43-78.59,9.96,0,20.43,1.9,31.57,6.29,63.65,52.61,81.79,168.6,169.44,178.1,5.28.57,10.37.85,15.25.85,77.34,0,107.14-69.01,136.54-130.92,41.5-87.4,66.05-200.54,169.09-211.2,1.04-.11,2.09-.16,3.15-.16,16.52,0,34.83,12.53,51.78,17.59,16.63,4.97,33.3,7.29,49.6,7.29,54.04,0,104.05-25.48,135.59-64.3,40.94-55.64.35-164.46-69.25-170.42-1.59-.14-3.14-.2-4.67-.2-22.81,0-39.69,14.13-63.87,14.13-2.57,0-5.22-.16-7.97-.51-40.77-5.25-83.81-40.89-126.96-74.89-45.97-36.23-99.28-87.78-138.84-87.78h0Z"/>
      <path class="cls-1" d="m648.65,110.31v2c30.68,0,69.26,32.63,106.57,64.18,9.31,7.87,18.94,16.02,28.23,23.45,2.35,1.88,4.71,3.77,7.06,5.66,39.78,31.93,80.91,64.94,119.44,70.87,3.33.51,6.7.77,10.03.77,11.62,0,21.59-3.09,31.23-6.08,9.34-2.89,18.15-5.63,28.17-5.63,1.95,0,3.91.11,5.84.32,28.79,3.16,54.94,25.45,69.95,59.62,7.94,18.08,11.88,37.51,11.39,56.22-.51,19.76-6.05,37.38-16.02,50.97-32.09,39.47-81.82,63.03-133.03,63.03-16.28,0-32.53-2.36-48.31-7.02-6.08-1.79-12.52-4.65-18.76-7.41-11.01-4.88-22.39-9.92-33.16-9.92h0c-1.1,0-2.2.05-3.26.16-84.89,8.49-118.03,84.7-150.08,158.41-6.97,16.03-14.17,32.6-21.76,48.05-1.35,2.76-2.71,5.53-4.07,8.32-14.22,29.14-28.93,59.27-49.15,82-10.85,12.2-22.25,21.17-34.87,27.42-14.21,7.05-29.55,10.47-46.9,10.47-4.48,0-9.15-.24-13.86-.71-23.69-2.38-43.78-12.87-63.22-33.03-17.28-17.91-31.88-41.5-46.01-64.31-17.81-28.76-36.24-58.5-60.63-78.32l-.31-.25-.39-.11c-9.05-2.65-18.1-4-26.91-4-33.97,0-61.65,19.68-88.41,38.72-26.12,18.58-53.13,37.79-85.5,37.79-1.95,0-3.93-.07-5.88-.21-32.61-14.09-57.08-34.81-72.73-61.58-13.58-23.23-20.85-51.56-21.6-84.21-1.08-47.12,11.08-103.22,37.19-171.49,17.78-46.38,41.68-78.4,73.08-97.9,25.65-15.93,55.67-23.34,94.48-23.34,27.45,0,55.6,3.72,82.83,7.33,8.62,1.14,17.53,2.32,26.11,3.33,11.81,1.39,23.75,3.05,35.3,4.66,28.54,3.98,55.5,7.74,81.2,7.74,4.2,0,8.3-.1,12.21-.31,67.91-3.57,108.48-72.87,144.23-143.55,10.28-20.26,23.46-30.11,40.3-30.11v-2m0,0c-16.35,0-30.75,8.84-42.09,31.21-36.03,71.25-76.18,138.97-142.55,142.46-3.98.21-8.02.31-12.1.31-36.24,0-76.13-7.67-116.26-12.38-35.16-4.15-72.71-10.67-109.17-10.67-67.31,0-130.98,22.21-169.43,122.52-35.82,93.68-83.21,259.01,58.53,319.97,2.14.16,4.27.24,6.36.24,66.13,0,107.35-76.51,173.91-76.51,8.35,0,17.1,1.2,26.35,3.92,62.94,51.12,84.7,167.44,170.93,176.09,4.86.49,9.54.72,14.06.72,77.15,0,106.95-68.57,136.78-129.32,41.94-85.41,67.96-195.12,170.24-205.35,1.01-.1,2.03-.15,3.06-.15,16.4,0,34.54,12.28,51.35,17.24,16.4,4.84,32.82,7.1,48.88,7.1,53.64,0,103.25-25.21,134.61-63.81,40.64-55.31,1.45-162.53-66.69-170.02-2.07-.23-4.08-.33-6.06-.33-20.96,0-37.1,11.7-59.4,11.7-3.11,0-6.34-.23-9.72-.75-40.22-6.19-82.73-41.83-125.56-76.11-46.26-37.04-96.76-88.07-136.04-88.07h0Z"/>
      <path class="cls-1" d="m653.56,112.85c13.4,0,29.22,6.29,48.37,19.23,17.32,11.7,35.81,27.74,53.68,43.25,9.84,8.53,20.01,17.35,30,25.48,2.26,1.84,4.51,3.67,6.77,5.51,41.26,33.63,80.22,65.4,118.29,72.24,4.02.72,7.95,1.07,11.99,1.07,10.59,0,19.82-2.48,28.74-4.87,8.64-2.32,16.8-4.51,25.9-4.51,2.44,0,4.9.16,7.3.49,28.3,3.83,53.8,26.39,68.23,60.34,16.12,37.95,13.99,79.58-5.42,106.07-31.85,39.16-81.21,62.54-132.06,62.54-16.02,0-32.04-2.3-47.6-6.83-6.03-1.76-12.42-4.55-18.6-7.26-10.91-4.78-22.2-9.72-32.88-9.72-1.07,0-2.14.05-3.16.15-84.74,8.17-118.66,82.81-151.47,154.99-6.9,15.19-14.04,30.89-21.5,45.58-1.68,3.3-3.35,6.63-5.04,9.98-14.28,28.36-29.04,57.68-49.19,79.8-10.81,11.87-22.14,20.59-34.64,26.68-14.09,6.86-29.26,10.19-46.39,10.19-4.11,0-8.37-.2-12.67-.6-23.35-2.15-43.43-12.52-63.2-32.65-17.55-17.87-32.62-41.39-47.18-64.14-18.16-28.37-36.94-57.7-60.96-76.86l-.39-.31-.48-.09c-6.76-1.3-13.53-1.96-20.12-1.96-36.11,0-64.28,19.5-91.52,38.36-27.08,18.75-52.66,36.46-85.33,36.46-1.72,0-3.48-.05-5.22-.15-33.25-16.17-57.86-38.24-73.12-65.61-13.22-23.68-19.85-52.11-19.72-84.47.24-57.71,21.22-118.18,40.86-170.34,17.49-46.42,41.2-78.41,72.49-97.79,25.43-15.75,55.38-23.08,94.28-23.08,25.96,0,52.62,3.26,78.39,6.41,8.61,1.05,17.51,2.14,26.1,3.07,12.93,1.39,26.03,3.15,38.69,4.86,27.92,3.76,54.28,7.3,79.49,7.3,3.83,0,7.58-.09,11.17-.25,28.13-1.32,53.65-14.67,78.02-40.82,21.54-23.11,40.2-53.85,58.24-83.58,3.41-5.63,6.94-11.44,10.44-17.11,11.21-18.21,24.44-27.06,40.44-27.05m0-2c-15.59,0-29.83,8.01-42.15,28-40.32,65.47-77.77,137.41-145.08,140.56-3.65.17-7.35.25-11.08.25-36.82,0-77.35-7.77-117.96-12.15-33.83-3.64-69.77-9.49-104.7-9.49-67.22,0-130.77,21.63-168.64,122.16-35.88,95.27-91.2,253.12,53.34,323.09,1.93.12,3.85.18,5.73.18,67.31,0,106.62-74.83,176.85-74.83,6.32,0,12.88.6,19.74,1.92,62.23,49.64,87.61,166.28,172.41,174.08,4.42.41,8.71.61,12.86.61,76.97,0,106.77-68.14,137.04-127.73,42.37-83.42,69.87-189.7,171.38-199.49.98-.09,1.97-.14,2.97-.14,16.27,0,34.26,12.04,50.92,16.89,16.16,4.71,32.34,6.91,48.15,6.91,53.24,0,102.46-24.94,133.64-63.32,40.34-54.99,2.55-160.6-64.12-169.62-2.6-.35-5.11-.51-7.57-.51-19.05,0-34.33,9.38-54.64,9.38-3.69,0-7.55-.31-11.63-1.04-39.66-7.13-81.65-42.77-124.15-77.34-46.6-37.9-94.18-88.41-133.32-88.41h0Z"/>
      <path class="cls-1" d="m658.13,114.28c29.98,0,63.68,29.75,99.36,61.24,9.86,8.71,20.06,17.71,30.29,26.16,2.15,1.78,4.3,3.56,6.45,5.33,40.92,33.88,79.58,65.88,117.16,73.64,4.73.98,9.37,1.45,14.15,1.45,9.48,0,17.89-1.9,26.02-3.73,7.88-1.78,15.32-3.46,23.48-3.46,3.05,0,5.98.23,8.93.71,27.8,4.51,52.66,27.37,66.5,61.15,7.29,17.8,10.75,36.83,9.98,55.02-.81,19.25-6.4,36.49-16.19,49.86-31.6,38.85-80.61,62.05-131.1,62.05-15.77,0-31.54-2.23-46.87-6.64-5.98-1.72-12.31-4.46-18.44-7.11-10.81-4.68-22-9.51-32.6-9.51-1.04,0-2.07.05-3.06.14-84.61,7.85-119.34,80.92-152.92,151.58-6.82,14.35-13.87,29.19-21.19,43.11-2,3.81-4,7.66-6.01,11.53-14.33,27.6-29.16,56.14-49.23,77.66-10.77,11.55-22.03,20.05-34.43,25.97-13.97,6.67-28.99,9.92-45.9,9.92-3.72,0-7.56-.16-11.44-.49-22.96-1.92-42.76-11.88-62.3-31.33-17.35-17.28-32.3-40.1-46.75-62.17-18.01-27.5-36.63-55.94-60.36-74.52l-.39-.3-.48-.09c-6.54-1.21-13.1-1.82-19.49-1.82-35.56,0-63.48,18.67-90.47,36.73-26.77,17.9-52.05,34.82-84.05,34.82-2.39,0-4.83-.1-7.24-.29-32.78-16.9-56.97-39.06-71.89-65.87-12.95-23.26-19.38-50.91-19.12-82.19.48-57.92,23.06-118.67,41.21-167.48,1.01-2.71,2-5.38,2.97-8.01,17.26-46.49,40.83-78.46,72.07-97.73,25.24-15.57,55.17-22.82,94.19-22.82,24.55,0,49.77,2.84,74.16,5.59,8.44.95,17.16,1.93,25.59,2.76,14.1,1.38,28.37,3.23,42.18,5.03,27.27,3.55,53.03,6.9,77.73,6.9,3.44,0,6.83-.07,10.07-.2,24.34-1,46.64-11.56,68.16-32.3,19.05-18.35,35.84-42.92,52.09-66.68,9.28-13.58,18.89-27.62,28.87-40.48,12.01-15.57,25.19-23.13,40.29-23.13m0-2c-14.76,0-28.77,6.92-41.87,23.91-45.11,58.07-79.36,135.87-147.61,138.67-3.3.14-6.63.2-9.99.2-37.43,0-78.59-7.9-119.72-11.92-32.4-3.19-66.63-8.36-99.94-8.36-67.22,0-130.72,21.03-168.14,121.86-35.88,96.9-98.07,251.14,48.14,326.21,2.64.22,5.24.33,7.8.33,65.99,0,105.41-71.55,174.53-71.55,6.13,0,12.49.56,19.13,1.79,61.52,48.16,87.08,161.45,170.47,168.43,3.98.33,7.85.49,11.6.49,76.81,0,106.63-67.72,137.34-126.15,42.82-81.44,71.78-184.28,172.53-193.63.95-.09,1.91-.13,2.88-.13,16.15,0,33.97,11.8,50.49,16.54,15.92,4.57,31.85,6.72,47.42,6.72,52.84,0,101.67-24.67,132.68-62.83,40.05-54.67,3.58-158.66-61.56-169.23-3.2-.52-6.27-.74-9.25-.74-17.06,0-31.29,7.19-49.5,7.19-4.33,0-8.88-.41-13.75-1.41-39.09-8.07-80.57-43.72-122.74-78.56-47.09-38.91-91.68-87.86-130.93-87.86h0Z"/>
      <path class="cls-1" d="m662.47,115.7c30.18,0,62.53,29.09,96.79,59.89,9.91,8.91,20.16,18.13,30.69,26.97,2.05,1.72,4.09,3.44,6.13,5.15,40.59,34.12,78.93,66.35,116.03,75.04,5.52,1.29,10.95,1.92,16.6,1.92,8.28,0,15.77-1.36,23.01-2.67,7.03-1.28,13.68-2.48,20.84-2.48,3.73,0,7.26.33,10.81,1,27.32,5.2,51.54,28.38,64.79,61.99,6.96,17.66,10.16,36.46,9.26,54.39-.96,18.98-6.58,36.02-16.26,49.27-31.36,38.55-80,61.56-130.13,61.56-15.51,0-31.04-2.17-46.15-6.45-5.93-1.68-12.21-4.36-18.29-6.96-10.72-4.58-21.8-9.31-32.31-9.31-1,0-2,.04-2.96.13-84.52,7.53-120.07,79.04-154.44,148.2-6.71,13.5-13.65,27.46-20.81,40.6-2.34,4.3-4.72,8.75-7.02,13.04-14.38,26.85-29.26,54.62-49.26,75.56-22.44,23.5-48.49,34.92-79.63,34.92-3.32,0-6.74-.13-10.18-.39-22.58-1.69-42.1-11.23-61.41-30.01-17.15-16.68-31.98-38.8-46.31-60.19-17.85-26.63-36.31-54.18-59.75-72.16l-.39-.3-.48-.09c-6.32-1.12-12.66-1.68-18.84-1.68-35,0-62.66,17.85-89.41,35.12-26.45,17.07-51.43,33.2-82.77,33.2-3.07,0-6.2-.16-9.31-.48-135.99-74.01-85.88-208.18-49.28-306.17,2.67-7.15,5.19-13.91,7.61-20.53,17.03-46.59,40.49-78.55,71.71-97.72,25.07-15.39,55-22.55,94.2-22.55,23.1,0,46.84,2.44,69.8,4.79,8.26.85,16.8,1.72,25.06,2.46,15.22,1.33,30.64,3.28,45.56,5.16,26.68,3.37,51.89,6.54,76.14,6.54,3.04,0,6.05-.05,8.93-.16,22.12-.78,42.43-9.86,62.1-27.74,17.42-15.84,32.86-37.1,47.79-57.67,13.08-18.01,26.6-36.64,41.61-51.97,12.67-12.94,25.73-19.23,39.94-19.23m0-2c-13.93,0-27.65,5.82-41.37,19.83-49.74,50.81-80.95,134.33-150.15,136.78-2.93.1-5.89.15-8.86.15-38.06,0-79.86-8.05-121.52-11.7-30.92-2.74-63.39-7.26-95.04-7.26-67.27,0-130.8,20.4-167.79,121.58-35.88,98.54-104.93,249.16,42.95,329.34,3.37.36,6.67.53,9.91.53,64.66,0,104.2-68.32,172.18-68.32,5.94,0,12.09.52,18.49,1.65,60.81,46.68,86.56,156.63,168.54,162.78,3.53.26,6.98.39,10.33.39,76.66,0,106.5-67.32,137.67-124.57,43.27-79.46,73.68-178.86,173.67-187.77.92-.08,1.85-.12,2.79-.12,16.03,0,33.69,11.56,50.06,16.2,15.68,4.44,31.36,6.53,46.69,6.53,52.45,0,100.88-24.4,131.72-62.34,39.75-54.34,4.6-156.72-59-168.83-3.88-.74-7.59-1.04-11.18-1.04-14.94,0-27.91,5.16-43.85,5.16-5.03,0-10.36-.51-16.14-1.87-38.52-9.02-79.5-44.67-121.33-79.78-47.7-40.05-89.08-87.33-128.77-87.33h0Z"/>
      <path class="cls-1" d="m666.36,116.96c30.66,0,60.26,27.13,94.53,58.55,9.99,9.16,20.33,18.64,31.22,27.93,1.94,1.66,3.88,3.31,5.82,4.97,40.26,34.37,78.28,66.83,114.9,76.45,6.4,1.68,12.76,2.5,19.44,2.5s13.37-.87,19.58-1.71c6.06-.82,11.79-1.6,17.87-1.6,4.56,0,8.82.45,13.03,1.37,26.84,5.91,50.42,29.41,63.08,62.88,6.62,17.5,9.57,36.08,8.53,53.73-1.11,18.7-6.75,35.53-16.32,48.65-15.08,18.54-34.67,33.93-56.65,44.49-22.56,10.85-47.64,16.58-72.53,16.58-15.25,0-30.53-2.11-45.42-6.27-5.88-1.64-12.11-4.27-18.14-6.81-10.62-4.48-21.6-9.11-32.03-9.11-.97,0-1.93.04-2.86.12-84.47,7.21-120.86,77.18-156.04,144.86-6.57,12.64-13.37,25.71-20.34,38.06-2.69,4.78-5.43,9.72-8.07,14.51-14.43,26.12-29.35,53.13-49.27,73.5-22.35,22.86-48.17,33.97-78.93,33.97-2.91,0-5.9-.1-8.91-.3-22.21-1.47-41.44-10.58-60.52-28.7-16.95-16.1-31.66-37.51-45.88-58.22-17.69-25.76-35.99-52.41-59.13-69.81l-.39-.29-.48-.08c-6.09-1.03-12.2-1.55-18.17-1.55-34.44,0-61.83,17.05-88.31,33.53-26.13,16.26-50.8,31.62-81.49,31.62-3.77,0-7.61-.24-11.42-.72-58.9-33.7-87.61-79.81-87.77-140.95-.14-53.17,20.99-108.74,39.64-157.78,4.14-10.88,8.05-21.16,11.61-31.11,16.81-46.74,40.17-78.72,71.4-97.76,24.9-15.19,54.87-22.26,94.33-22.26,21.61,0,43.83,2.05,65.32,4.04,8.06.75,16.4,1.52,24.48,2.15,16.29,1.27,32.83,3.29,48.82,5.25,26.16,3.21,50.87,6.23,74.7,6.23,2.63,0,5.24-.04,7.75-.11,20.59-.62,39.49-8.74,57.78-24.84,16.19-14.25,30.55-33.44,44.44-52,15.8-21.11,32.13-42.93,51.65-58.49,13.07-10.42,25.89-15.48,39.17-15.48m0-2c-13.07,0-26.4,4.75-40.42,15.92-54.52,43.44-82.54,132.79-152.68,134.89-2.54.08-5.11.11-7.69.11-38.7,0-81.17-8.2-123.36-11.48-29.36-2.32-60.04-6.2-89.96-6.2-67.4,0-131.04,19.69-167.61,121.35-35.88,100.18-111.8,247.17,37.76,332.46,4.12.53,8.14.78,12.07.78,63.35,0,102.96-65.15,169.8-65.15,5.74,0,11.67.48,17.84,1.52,60.1,45.19,86.03,151.8,166.6,157.12,3.08.2,6.1.3,9.04.3,76.52,0,106.38-66.92,138.01-123,43.72-77.48,75.58-173.44,174.81-181.91.89-.08,1.79-.11,2.69-.11,15.91,0,33.4,11.31,49.63,15.85,15.44,4.31,30.87,6.34,45.96,6.34,52.05,0,100.09-24.13,130.76-61.85,39.45-54.02,5.63-154.77-56.44-168.43-4.71-1.03-9.15-1.42-13.46-1.42-12.61,0-24.02,3.32-37.45,3.32-5.84,0-12.06-.63-18.93-2.43-37.95-9.97-78.42-45.63-119.92-81-48.47-41.33-86.52-86.95-127.05-86.95h0Z"/>
      <path class="cls-1" d="m669.68,116.05v2c14.43,0,28.85,5.3,45.39,16.68,15.13,10.4,30.77,25.04,47.33,40.54,10.1,9.45,20.55,19.23,31.87,29.04l5.51,4.78c39.92,34.62,77.63,67.31,113.76,77.86,7.52,2.19,14.8,3.21,22.93,3.21,5.41,0,10.54-.45,15.5-.89,4.89-.43,9.5-.84,14.31-.84,5.75,0,10.78.59,15.84,1.86,26.37,6.62,49.31,30.47,61.38,63.8,13.31,36.78,10.02,75.51-8.6,101.08-14.99,18.42-34.44,33.69-56.25,44.17-22.37,10.74-47.26,16.42-71.97,16.42-14.99,0-30.03-2.05-44.69-6.08-5.83-1.6-12.01-4.18-17.98-6.66-10.52-4.38-21.41-8.91-31.75-8.91-.93,0-1.86.04-2.76.11-84.46,6.89-121.71,75.35-157.74,141.56-6.41,11.77-13.03,23.94-19.78,35.48-3.06,5.23-6.16,10.67-9.15,15.93-14.47,25.4-29.43,51.67-49.27,71.49-22.27,22.23-47.86,33.04-78.23,33.04-2.49,0-5.05-.07-7.61-.22-21.83-1.24-40.78-9.94-59.63-27.39-16.76-15.51-31.34-36.22-45.45-56.25-17.53-24.89-35.66-50.63-58.51-67.45l-.39-.29-.48-.08c-5.85-.94-11.73-1.42-17.48-1.42-33.87,0-60.98,16.25-87.2,31.96-25.8,15.46-50.17,30.07-80.2,30.07-4.48,0-9.05-.34-13.59-1.01-57.93-34.73-86.17-80.24-86.33-139.1-.14-51.48,21.04-105.76,39.73-153.64,5.5-14.1,10.7-27.42,15.23-40.25,16.6-46.92,39.89-78.94,71.18-97.87,24.75-14.97,54.8-21.95,94.59-21.95,20.06,0,40.69,1.69,60.65,3.33,7.86.64,15.98,1.31,23.88,1.85,17.33,1.17,34.94,3.28,51.97,5.31,25.69,3.07,49.95,5.96,73.42,5.96,2.21,0,4.4-.03,6.52-.08,19.51-.48,37.37-7.97,54.61-22.91,15.26-13.22,28.75-31.05,41.81-48.29,17.76-23.47,36.13-47.73,59.78-62.09,13.16-7.99,25.54-11.87,37.86-11.87v-2m0,0c-12.16,0-24.94,3.69-38.9,12.16-59.34,36.03-84.13,131.26-155.21,133-2.14.05-4.3.08-6.47.08-39.36,0-82.51-8.37-125.25-11.27-27.73-1.91-56.52-5.18-84.66-5.18-67.63,0-131.48,18.91-167.65,121.15-35.88,101.81-118.67,245.19,32.57,335.58,4.89.74,9.65,1.09,14.27,1.09,62.04,0,101.71-62.03,167.4-62.03,5.53,0,11.23.44,17.16,1.39,59.39,43.71,85.5,146.98,164.66,151.47,2.62.15,5.2.22,7.72.22,76.4,0,106.27-66.55,138.38-121.45,44.17-75.5,77.49-168.03,175.96-176.05.86-.07,1.72-.1,2.59-.1,15.78,0,33.12,11.07,49.21,15.5,15.19,4.18,30.37,6.15,45.22,6.15,51.66,0,99.31-23.86,129.81-61.36,39.16-53.7,6.65-152.83-53.88-168.04-5.76-1.44-11.12-1.92-16.32-1.92-9.93,0-19.31,1.73-29.81,1.73-6.83,0-14.12-.73-22.37-3.13-37.37-10.91-77.35-46.58-118.52-82.23-49.42-42.81-83.94-86.74-125.9-86.75h0Z"/>
      <path class="cls-1" d="m672.21,116.86v2c33.13,0,58.9,24.68,91.52,55.92,10.25,9.81,20.84,19.96,32.71,30.39l5.2,4.58c39.59,34.86,76.98,67.79,112.62,79.27,11.37,3.66,20.81,4.13,27.77,4.13,3.44,0,6.79-.13,10.04-.26,3.26-.13,6.33-.25,9.49-.25,7.68,0,13.83.77,19.94,2.51,25.91,7.36,48.22,31.57,59.68,64.77,12.53,36.3,8.93,74.51-9.4,99.73-14.89,18.3-34.21,33.46-55.86,43.84-22.18,10.64-46.87,16.26-71.42,16.26-14.73,0-29.52-1.98-43.95-5.89-5.78-1.57-11.91-4.08-17.84-6.51-10.43-4.28-21.21-8.7-31.47-8.7-.89,0-1.78.03-2.65.1-84.5,6.56-122.65,73.53-159.54,138.3-6.2,10.89-12.61,22.14-19.11,32.85-3.44,5.66-6.91,11.58-10.27,17.3-14.5,24.7-29.5,50.24-49.26,69.51-22.18,21.62-47.54,32.14-77.53,32.14-2.06,0-4.18-.05-6.29-.15-21.45-1.01-40.12-9.3-58.75-26.08-16.56-14.92-31.03-34.93-45.02-54.28-17.37-24.02-35.33-48.86-57.88-65.08l-.39-.28-.48-.07c-5.6-.85-11.24-1.29-16.76-1.29-33.29,0-60.12,15.47-86.07,30.42-25.47,14.68-49.53,28.55-78.9,28.55-5.21,0-10.53-.45-15.8-1.35-30.25-18.95-52.64-40.93-66.53-65.32-12.41-21.79-18.45-45.54-18.47-72.62-.03-50.1,21.34-103.14,40.2-149.93,6.81-16.91,13.25-32.88,18.59-48.27,16.4-47.18,39.65-79.25,71.06-98.06,24.94-14.94,54.25-21.6,95.02-21.6,18.44,0,37.41,1.35,55.76,2.66,7.64.54,15.53,1.1,23.21,1.55,18.33,1.06,36.98,3.23,55.02,5.34,25.27,2.95,49.14,5.73,72.28,5.73,1.77,0,3.53-.02,5.25-.05,18.7-.36,35.76-7.41,52.16-21.56,14.51-12.51,27.28-29.41,39.64-45.76,19.23-25.44,39.12-51.75,66.72-63.97,12.8-5.73,24.5-8.51,35.77-8.51v-2m0,0c-11.16,0-23.17,2.68-36.59,8.69-64.24,28.44-85.72,129.72-157.74,131.11-1.73.03-3.47.05-5.21.05-40.03,0-83.88-8.56-127.19-11.06-25.98-1.52-52.82-4.21-79.09-4.21-67.98,0-132.15,18.02-167.96,121-35.88,103.45-125.54,243.2,27.38,338.7,5.69.99,11.2,1.45,16.53,1.45,60.74,0,100.43-58.97,164.97-58.97,5.31,0,10.79.4,16.46,1.26,58.68,42.23,84.97,142.15,162.72,145.81,2.16.1,4.3.15,6.39.15,76.29,0,106.18-66.19,138.77-119.9,44.61-73.52,79.39-162.61,177.1-170.2.83-.06,1.66-.09,2.49-.09,15.67,0,32.84,10.83,48.78,15.15,14.95,4.05,29.88,5.96,44.47,5.96,51.27,0,98.53-23.58,128.86-60.88,38.86-53.37,7.68-150.89-51.32-167.64-7.29-2.07-13.95-2.58-20.48-2.58-6.46,0-12.8.5-19.53.5-8.19,0-16.94-.74-27.16-4.03-36.8-11.86-76.28-47.53-117.11-83.45-50.64-44.55-81.28-86.81-125.54-86.81h0Z"/>
      <path class="cls-1" d="m673.37,117.47v2c35.88,0,59.29,22.97,91.69,54.76,9.89,9.7,21.09,20.7,33.55,31.83l4.9,4.38c39.26,35.11,76.33,68.27,111.47,80.69,14.55,5.14,26.05,5.29,37.18,5.43,9.49.12,18.46.23,28.72,3.5,25.46,8.1,47.13,32.69,57.99,65.78,5.58,17,7.75,34.85,6.28,51.64-1.56,17.83-7.26,33.97-16.5,46.7-14.8,18.18-33.98,33.23-55.47,43.52-21.99,10.53-46.49,16.09-70.86,16.09-14.47,0-29.01-1.92-43.21-5.71-5.73-1.53-11.81-3.99-17.69-6.37-10.33-4.18-21.02-8.5-31.19-8.5-.86,0-1.71.03-2.54.09-84.59,6.24-123.67,71.74-161.46,135.09-5.96,9.99-12.12,20.31-18.33,30.17-3.82,6.07-7.68,12.45-11.41,18.61-14.53,24.01-29.56,48.85-49.24,67.58-22.09,21.03-47.22,31.25-76.84,31.25-1.63,0-3.29-.03-4.95-.09-21.08-.78-39.47-8.65-57.87-24.77-16.36-14.33-30.72-33.64-44.6-52.31-17.21-23.15-35-47.08-57.24-62.71l-.39-.28-.47-.07c-5.35-.77-10.73-1.16-16.01-1.16-32.71,0-59.25,14.7-84.91,28.91-25.13,13.92-48.87,27.06-77.6,27.06-5.96,0-12.04-.59-18.08-1.75C1.45,616.05,46.08,509.2,85.46,414.91c8.09-19.37,15.73-37.67,21.78-55.37,16.22-47.5,39.46-79.67,71.07-98.35,24.81-14.67,54.32-21.21,95.67-21.21,16.73,0,33.93,1.03,50.56,2.03,7.4.44,15.05.9,22.51,1.26,19.3.93,38.97,3.17,57.98,5.34,24.9,2.84,48.42,5.52,71.28,5.52,1.31,0,2.63,0,3.93-.03,18.12-.26,34.58-7,50.34-20.61,13.93-12.03,26.13-28.31,37.93-44.06,20.3-27.09,41.3-55.11,72.56-64.63,11.77-3.59,22.34-5.33,32.31-5.33v-2m0,0c-9.9,0-20.72,1.71-32.91,5.42-69.02,21.04-87.31,128.18-160.27,129.22-1.29.02-2.6.03-3.9.03-40.72,0-85.29-8.76-129.17-10.86-24.1-1.16-48.88-3.29-73.16-3.3-68.48,0-133.15,16.99-168.63,120.91-35.88,105.09-132.41,241.22,22.18,341.82,6.52,1.28,12.78,1.86,18.84,1.86,59.44,0,99.14-55.97,162.51-55.97,5.08,0,10.32.36,15.73,1.14,57.97,40.74,84.45,137.33,160.78,140.16,1.7.06,3.37.09,5.03.09,76.18,0,106.1-65.85,139.18-118.37,45.06-71.54,81.3-157.19,178.24-164.34.79-.06,1.59-.09,2.39-.09,15.55,0,32.57,10.59,48.37,14.8,14.7,3.92,29.38,5.78,43.73,5.78,50.88,0,97.75-23.31,127.92-60.39,38.56-53.05,8.71-148.95-48.75-167.25-22.62-7.2-39.17.52-65.83-8.91-36.23-12.81-75.2-48.49-115.7-84.67-52.29-46.72-78.44-87.08-126.56-87.09h0Z"/>
      <path class="cls-1" d="m674.17,118.47c37.48,0,60.29,22.97,91.85,54.75,10.15,10.22,21.66,21.81,34.76,33.7l4.58,4.15c38.95,35.37,75.74,68.77,110.34,82.13,14.3,5.52,25.57,6.26,36.46,6.97,9.29.61,18.07,1.18,28.09,4.75,24.96,8.84,45.98,33.82,56.24,66.83,5.23,16.82,7.15,34.42,5.56,50.91-1.69,17.53-7.4,33.44-16.52,46.01-14.7,18.06-33.75,33-55.08,43.19-21.8,10.42-46.11,15.93-70.31,15.93-14.21,0-28.49-1.86-42.46-5.52-5.69-1.49-11.71-3.89-17.54-6.22-10.24-4.08-20.82-8.3-30.92-8.3-.82,0-1.63.03-2.42.08-84.74,5.91-124.78,69.97-163.49,131.92-5.67,9.08-11.54,18.46-17.43,27.46-4.22,6.45-8.47,13.26-12.57,19.84-14.56,23.35-29.62,47.49-49.23,65.71-22.01,20.45-46.93,30.39-76.19,30.39-1.17,0-2.36-.02-3.55-.05-20.71-.56-38.82-8.01-57-23.47-16.17-13.75-30.4-32.35-44.17-50.35-17.04-22.27-34.66-45.29-56.59-60.33l-.39-.27-.47-.06c-5.08-.69-10.21-1.03-15.24-1.03-32.12,0-58.35,13.94-83.73,27.42-24.79,13.17-48.21,25.62-76.3,25.62-6.73,0-13.6-.74-20.41-2.21-29.64-20.1-51.49-42.49-64.97-66.55-12.08-21.57-17.85-44.61-17.63-70.45.39-47.96,21.44-96.52,41.8-143.48,9.37-21.62,18.23-42.05,24.9-61.95,16.1-47.91,39.43-80.21,71.32-98.76,31.68-18.43,68.26-20.79,96.6-20.79,15,0,30.42.76,45.33,1.5,7.01.35,14.25.7,21.32.97,20.28.76,40.98,3.08,60.99,5.32,24.53,2.75,47.69,5.34,70.27,5.34.86,0,1.72,0,2.58-.01,18.05-.16,34.45-6.75,50.16-20.13,13.88-11.82,26.02-27.83,37.76-43.31,20.89-27.54,42.49-56.02,75.33-63.95,10.32-2.49,19.61-3.7,28.38-3.7m0-2c-8.72,0-18.24,1.2-28.85,3.75-71.2,17.17-88.9,126.66-162.81,127.33-.85,0-1.7.01-2.56.01-41.43,0-86.72-9-131.18-10.67-22.05-.85-44.59-2.47-66.72-2.47-69.16,0-134.51,15.85-169.81,120.91-35.79,106.79-139.28,239.23,16.99,344.94,7.36,1.62,14.42,2.34,21.21,2.34,58.16,0,97.83-53.04,160.03-53.04,4.85,0,9.83.32,14.97,1.02,57.26,39.26,83.9,132.49,158.84,134.5,1.21.03,2.42.05,3.6.05,76.12,0,106.08-65.52,139.66-116.85,45.52-69.58,83.19-151.77,179.39-158.48.76-.05,1.52-.08,2.28-.08,15.43,0,32.29,10.34,47.95,14.45,14.45,3.79,28.87,5.59,42.97,5.59,50.5,0,96.98-23.03,126.98-59.9,38.27-52.73,9.57-147.1-46.19-166.85-22.07-7.84-38.25-1.57-64.5-11.7-35.61-13.74-74.14-49.46-114.29-85.89-53.5-48.55-77.27-88.97-127.95-88.97h0Z"/>
      <path class="cls-1" d="m674.26,117.24c18.57,0,33.78,4.67,49.31,15.13,14.34,9.67,27.81,23.61,43.41,39.75,10.4,10.77,22.2,22.98,35.97,35.67l4.23,3.9c38.65,35.64,75.15,69.29,109.23,83.59,14.04,5.88,25.06,7.22,35.72,8.5,9.1,1.1,17.69,2.14,27.49,6,24.47,9.6,44.84,35,54.49,67.94,10.35,35.32,5.97,71-11.71,95.44-14.61,17.94-33.52,32.77-54.69,42.87-21.61,10.31-45.73,15.76-69.77,15.76-13.94,0-27.98-1.8-41.71-5.34-5.64-1.45-11.61-3.8-17.4-6.07-10.14-3.98-20.63-8.1-30.64-8.1-.78,0-1.55.03-2.31.07-84.97,5.58-126,68.23-165.68,128.81-5.34,8.15-10.85,16.57-16.37,24.68-4.63,6.8-9.27,14.03-13.77,21.02-14.59,22.7-29.68,46.17-49.21,63.89-21.93,19.89-46.64,29.56-75.54,29.56-.7,0-1.41,0-2.11-.02-20.35-.33-38.18-7.38-56.14-22.17-15.97-13.16-30.09-31.07-43.75-48.39-16.87-21.39-34.31-43.5-55.93-57.95l-.39-.26-.47-.06c-4.81-.61-9.66-.91-14.43-.91-31.53,0-57.45,13.2-82.52,25.96-24.45,12.45-47.54,24.2-75,24.2-7.52,0-15.19-.92-22.8-2.74-29.41-20.69-51.05-43.34-64.33-67.33-11.92-21.54-17.54-44.34-17.18-69.69.67-47.13,22.11-94.69,42.85-140.68,10.65-23.62,20.71-45.93,27.93-67.87,16.01-48.43,39.49-80.92,71.8-99.32,31.4-17.88,67.11-20.29,97.89-20.29,13.1,0,26.55.52,39.55,1.01,6.59.25,13.4.51,20.07.7,21.22.58,42.91,2.97,63.88,5.29,24.21,2.67,47.07,5.19,69.41,5.19h1.19c17.98-.07,34.34-6.51,50-19.68,13.83-11.63,25.92-27.4,37.61-42.65,21.46-27.99,43.64-56.93,78.08-63.14,8.58-1.55,16.34-2.3,23.74-2.3m0-2c-7.36,0-15.34.75-24.1,2.33-73.42,13.23-90.48,125.14-165.34,125.44-.39,0-.79,0-1.18,0-42.16,0-88.18-9.25-133.24-10.48-19.78-.56-39.89-1.72-59.68-1.72-70.09,0-136.4,14.48-171.59,120.98-35.7,108.5-146.15,237.25,11.8,348.06,8.24,2,16.1,2.88,23.64,2.88,56.88,0,96.49-50.17,157.52-50.17,4.6,0,9.32.28,14.18.9,56.55,37.78,83.36,127.65,156.9,128.85.72.01,1.44.02,2.15.02,76.06,0,106.08-65.21,140.17-115.34,45.99-67.61,85.09-146.35,180.53-152.62.72-.05,1.45-.07,2.18-.07,15.31,0,32.02,10.1,47.54,14.1,14.2,3.66,28.36,5.4,42.21,5.4,50.11,0,96.21-22.75,126.05-59.42,37.97-52.4,10.43-145.24-43.63-166.45-21.51-8.48-37.34-3.66-63.17-14.48-35-14.68-73.07-50.43-112.89-87.12-54.89-50.6-75.97-91.09-130.04-91.09h0Z"/>
      <path class="cls-1" d="m673.41,113.72v2c42.76,0,63.36,21.96,94.54,55.21,10.63,11.34,22.69,24.19,37.16,37.74l3.89,3.64c38.35,35.91,74.57,69.82,108.12,85.06,13.76,6.24,24.53,8.16,34.94,10.02,8.92,1.59,17.34,3.1,26.92,7.27,23.99,10.39,43.71,36.22,52.74,69.11,9.55,34.77,4.89,69.87-12.46,93.9-14.52,17.82-33.29,32.54-54.31,42.55-21.42,10.21-45.35,15.6-69.22,15.6-13.68,0-27.45-1.73-40.95-5.15-5.59-1.42-11.52-3.71-17.25-5.92-10.05-3.88-20.44-7.9-30.36-7.9-.74,0-1.47.02-2.19.07-85.28,5.25-127.36,66.53-168.06,125.8-4.94,7.19-10.04,14.62-15.13,21.81-5.05,7.14-10.1,14.77-15,22.15-14.62,22.07-29.73,44.88-49.18,62.11-21.84,19.34-46.34,28.75-74.9,28.75h-.65c-19.98-.11-37.55-6.74-55.28-20.88-15.78-12.58-29.79-29.79-43.34-46.43-16.69-20.5-33.95-41.71-55.26-55.56l-.39-.26-.46-.05c-4.52-.53-9.09-.8-13.58-.8-30.93,0-56.54,12.47-81.29,24.54-24.1,11.74-46.85,22.83-73.69,22.83-8.45,0-16.72-1.09-25.26-3.33-29.64-21.57-50.5-43.89-63.79-68.22-11.77-21.56-17.24-44.17-16.71-69.12.98-46.42,22.87-93.06,44.03-138.16,11.92-25.4,23.18-49.39,30.88-73.23,15.96-49.15,39.73-81.89,72.65-100.1,31.31-17.32,68-19.65,99.75-19.65,10.92,0,22.12.3,32.95.6,6.15.17,12.5.34,18.73.45,22.12.38,44.77,2.84,66.68,5.23,23.85,2.6,46.38,5.05,68.44,5.07h.07c17.91,0,34.2-6.31,49.81-19.3,13.78-11.46,25.81-27.01,37.44-42.04,22-28.44,44.75-57.84,80.79-62.23,6.39-.78,12.5-1.17,18.16-1.17v-2m0,0c-5.72,0-11.83.39-18.4,1.19-75.63,9.21-92.07,123.55-167.8,123.55h-.07c-42.84-.03-89.51-9.53-135.09-10.3-17.18-.32-34.56-1.05-51.72-1.05-71.41,0-139.08,12.7-174.3,121.13-35.62,110.21-153.01,235.26,6.61,351.18,9.15,2.43,17.82,3.49,26.13,3.49,55.61,0,95.14-47.37,154.98-47.37,4.34,0,8.78.25,13.35.78,55.84,36.29,82.81,122.8,154.96,123.19.22,0,.44,0,.66,0,76.02,0,106.09-64.92,140.7-113.85,46.45-65.64,86.99-140.93,181.68-146.76.68-.04,1.37-.06,2.06-.06,15.19,0,31.74,9.86,47.13,13.76,13.95,3.53,27.85,5.21,41.44,5.21,49.73,0,95.45-22.47,125.12-58.93,37.67-52.08,11.29-143.39-41.07-166.06-20.96-9.12-36.43-5.75-61.83-17.27-34.38-15.61-72-51.4-111.48-88.34-56.51-52.91-74.48-93.49-133.07-93.49h0Z"/>
      <path class="cls-1" d="m671.23,111.86v2c22.09,0,39.01,4.66,54.84,15.09,14.73,9.71,27.15,23.38,42.89,40.7,10.83,11.92,23.11,25.43,38.32,39.89l3.53,3.36c38.06,36.18,74.01,70.36,107.03,86.55,13.46,6.58,23.96,9.09,34.12,11.52,8.75,2.09,17.01,4.06,26.4,8.55,23.52,11.2,42.58,37.5,50.98,70.34,4.15,16.22,5.3,33,3.33,48.52-2.13,16.79-7.69,31.52-16.53,43.77-14.42,17.71-33.07,32.31-53.93,42.23-21.53,10.24-44.64,15.43-68.68,15.43-13.41,0-26.93-1.67-40.19-4.97-5.55-1.38-11.43-3.61-17.11-5.77-9.95-3.78-20.25-7.69-30.09-7.69-.7,0-1.39.02-2.06.06-85.7,4.92-128.88,64.89-170.65,122.88-4.47,6.2-9.08,12.61-13.67,18.83-5.49,7.45-10.97,15.48-16.27,23.25-14.57,21.35-29.64,43.43-48.88,60.14-21.62,18.78-45.72,27.99-73.67,28.17h-.52c-19.48,0-36.67-6.27-54.09-19.73-15.51-11.98-29.35-28.43-42.74-44.33-16.52-19.62-33.6-39.91-54.59-53.16l-.39-.25-.46-.05c-4.22-.45-8.49-.68-12.69-.68-30.33,0-55.6,11.77-80.04,23.15-23.74,11.05-46.16,21.49-72.38,21.49-9.3,0-18.4-1.3-27.79-3.99-122.87-92.39-77.8-184.6-34.2-273.78,13.19-26.98,25.65-52.47,33.79-78.1,16-50.18,40.25-83.29,74.15-101.24,31.14-16.49,67.72-18.76,102.61-18.76,8.22,0,16.63.13,24.77.26,5.68.09,11.55.18,17.32.23,22.99.16,46.57,2.7,69.38,5.16,23.1,2.49,44.93,4.84,66.39,4.97h.45c17.77,0,33.95-6.22,49.46-19.03,13.69-11.3,25.63-26.61,37.18-41.42,11.3-14.48,22.98-29.46,36.35-40.82,14.86-12.62,30.27-19.29,47.11-20.39,3.88-.25,7.66-.38,11.24-.38v-2m0,0c-3.63,0-7.41.13-11.37.39-77.76,5.11-93.61,121.66-169.97,121.66-.15,0-.29,0-.44,0-43.2-.24-90.08-9.81-135.76-10.12-14.01-.11-28.13-.48-42.1-.48-73.37,0-143.19,10.19-178.66,121.39-35.53,111.91-159.88,233.28,1.42,354.3,10.09,2.92,19.6,4.17,28.69,4.17,54.35,0,93.76-44.64,152.42-44.64,4.06,0,8.22.21,12.48.67,54.99,34.72,82.14,117.54,152.48,117.54.18,0,.36,0,.54,0,75.37-.48,105.4-64.83,140.42-112.38,46.92-63.68,88.89-135.51,182.82-140.9.65-.04,1.3-.06,1.95-.06,15.08,0,31.47,9.62,46.72,13.41,13.69,3.4,27.33,5.03,40.67,5.03,49.35,0,94.69-22.19,124.2-58.45,37.38-51.76,12.15-141.53-38.51-165.66-20.4-9.76-35.52-7.84-60.5-20.06-33.77-16.55-70.93-52.37-110.07-89.56-58.42-55.54-72.72-96.23-137.43-96.23h0Z"/>
      <path class="cls-1" d="m667.07,111.57c53.14,0,71.9,21.36,102.97,56.74,10.99,12.51,23.44,26.69,39.41,42.11l3.16,3.05c37.78,36.47,73.46,70.92,105.96,88.07,13.13,6.91,23.35,10,33.23,12.98,8.6,2.6,16.73,5.05,25.93,9.88,11.48,6,22.11,15.93,30.76,28.74,8.37,12.39,14.75,27.23,18.46,42.91,3.78,15.99,4.68,32.47,2.58,47.66-2.27,16.44-7.82,30.9-16.52,42.97-14.33,17.59-32.85,32.08-53.55,41.91-21.34,10.13-44.27,15.27-68.14,15.27-13.14,0-26.4-1.61-39.42-4.79-5.5-1.34-11.33-3.52-16.97-5.63-9.86-3.68-20.06-7.49-29.82-7.49-.65,0-1.3.02-1.93.05-86.24,4.58-130.6,63.31-173.5,120.1-3.91,5.17-7.95,10.52-11.95,15.73-5.94,7.74-11.6,15.79-17.59,24.3-14.46,20.57-29.42,41.85-48.35,58.04-21.28,18.2-44.82,27.28-71.98,27.77-.52,0-1.04.01-1.55.01-41.51,0-67.28-29.55-94.56-60.84-16.33-18.73-33.23-38.11-53.89-50.76l-.39-.24-.46-.04c-3.9-.38-7.86-.58-11.75-.58-29.73,0-54.66,11.08-78.77,21.79-23.38,10.39-45.46,20.2-71.06,20.2-10.18,0-20.12-1.54-30.38-4.72-29.39-22.79-49.97-45.77-62.92-70.23-11.49-21.72-16.64-44.1-15.73-68.43,1.69-45.34,24.59-90.32,46.75-133.81,13.83-27.15,28.13-55.23,36.65-82.55,8.7-27.81,19.66-49.87,33.5-67.46,12.39-15.74,26.8-27.47,44.05-35.85,32.45-15.77,69.7-17.08,108.2-17.08,4,0,8.01.01,12.02.03,4.03.01,8.06.03,12.09.03,1.24,0,2.49,0,3.74,0h1.1c23.47,0,47.58,2.58,70.89,5.07,21.41,2.29,43.54,4.66,64.42,4.88.27,0,.54,0,.81,0,17.64,0,33.71-6.15,49.14-18.81,13.61-11.17,25.47-26.27,36.94-40.88,11.56-14.72,23.51-29.94,37.27-41.2,15.28-12.51,31.25-18.68,48.81-18.89.79,0,1.57-.01,2.35-.01m0-2c-.79,0-1.57,0-2.37.01-79.88.94-95.15,119.77-172.14,119.77-.26,0-.53,0-.79,0-43.2-.45-89.9-9.95-135.33-9.95-.37,0-.73,0-1.1,0-1.24,0-2.49,0-3.73,0-8.04,0-16.09-.06-24.11-.06-77.05,0-151.28,5.48-187.66,121.78-35.44,113.62-166.75,231.29-3.78,357.42,11.06,3.46,21.43,4.91,31.32,4.91,53.1,0,92.36-41.99,149.83-41.99,3.77,0,7.62.18,11.56.57,54,33.07,81.31,111.9,149.49,111.9.53,0,1.06,0,1.59-.01,74.23-1.34,104.15-64.89,139.47-110.9,47.38-61.71,90.78-130.09,183.96-135.05.61-.03,1.22-.05,1.83-.05,14.97,0,31.21,9.37,46.32,13.06,13.44,3.28,26.81,4.84,39.9,4.84,48.98,0,93.93-21.91,123.28-57.96,37.08-51.43,13.01-139.68-35.95-165.26-19.85-10.4-34.61-9.93-59.16-22.85-33.15-17.49-69.87-53.34-108.66-90.78-60.7-58.61-70.53-99.4-143.77-99.4h0Z"/>
      <path class="cls-1" d="m666.27,108.86c1.05,0,2.12.02,3.19.06,54.53,2.2,72.3,23.2,101.75,57.99,11.1,13.11,23.67,27.97,40.4,44.37l2.77,2.72c37.5,36.77,72.91,71.49,104.9,89.6,12.76,7.2,22.67,10.85,32.26,14.38,8.48,3.12,16.5,6.07,25.55,11.26,11.21,6.42,21.54,16.68,29.87,29.69,8.09,12.64,14.17,27.62,17.57,43.31,7.26,33.45,1.91,65.85-14.66,88.91-29.36,36.03-73.38,56.69-120.78,56.69-12.87,0-25.87-1.55-38.65-4.6-5.46-1.31-11.24-3.43-16.84-5.48-9.77-3.58-19.87-7.29-29.55-7.29-.6,0-1.21.01-1.8.04-39,1.9-73.13,14.78-104.35,39.36-27.68,21.8-50.36,50.42-72.3,78.1-3.25,4.1-6.61,8.34-9.92,12.48-6.42,8.02-12.5,16.42-18.95,25.32-14.34,19.81-29.18,40.3-47.8,55.98-20.92,17.63-43.91,26.58-70.28,27.38-.88.03-1.73.04-2.61.04-40.12,0-65.45-27.99-92.27-57.63-16.15-17.85-32.85-36.3-53.19-48.36l-.39-.23-.45-.04c-3.57-.31-7.19-.47-10.77-.47-29.12,0-53.7,10.41-77.47,20.47-23.02,9.74-44.76,18.95-69.75,18.95-11.08,0-21.9-1.81-33.05-5.52-29.32-23.41-49.78-46.74-62.58-71.33-11.36-21.84-16.34-44.17-15.23-68.27,2.07-44.93,25.54-89.17,48.23-131.94,15.05-28.37,30.61-57.7,39.48-86.63,8.85-28.87,20.17-51.59,34.61-69.44,12.83-15.87,27.9-27.54,46.04-35.68,33.92-15.21,72.58-15.54,113.5-15.88,4.65-.04,9.47-.08,14.2-.14,1.41-.02,2.82-.03,4.24-.03,23.27,0,47.17,2.54,70.28,5,20.76,2.21,42.22,4.49,62.53,4.8.39,0,.78,0,1.17,0,38.95,0,62.66-30,85.58-59.02,11.5-14.56,23.4-29.61,37.07-40.68,15.38-12.45,30.76-18.25,48.41-18.25m0-2c-79.12,0-94.48,117.95-171.06,117.95-.38,0-.75,0-1.14,0-42.55-.64-88.31-9.8-132.84-9.8-1.42,0-2.84,0-4.26.03-85.37,1.16-170.95-5.63-210.24,122.55-35.35,115.33-173.62,229.31-8.97,360.55,12.06,4.06,23.32,5.74,34.03,5.74,51.86,0,90.95-39.42,147.22-39.42,3.47,0,6.99.15,10.59.47,52.99,31.42,80.46,106.27,146.48,106.27.89,0,1.77-.01,2.67-.04,73.1-2.2,102.9-64.94,138.52-109.43,47.84-59.74,92.68-124.67,185.11-129.19.56-.03,1.13-.04,1.7-.04,14.86,0,30.94,9.13,45.92,12.71,13.18,3.15,26.29,4.66,39.11,4.66,48.6,0,93.18-21.63,122.37-57.48,36.78-51.11,13.87-137.83-33.38-164.87-19.3-11.04-33.7-12.03-57.83-25.64-32.54-18.42-68.8-54.31-107.25-92.01-61.02-59.82-67.25-99.86-143.47-102.93-1.1-.04-2.19-.07-3.27-.07h0Z"/>
      <path class="cls-1" d="m667.04,105.93h.01c2.34,0,4.75.11,7.15.32,53.77,4.78,70.54,25.33,98.33,59.38,11.16,13.67,23.81,29.17,41.24,46.52l2.69,2.68c37.13,36.97,72.2,71.88,103.53,90.84,12.32,7.45,21.84,11.6,31.05,15.62,8.42,3.67,16.38,7.14,25.42,12.81,10.88,6.76,20.86,17.3,28.85,30.47,7.8,12.86,13.57,27.96,16.69,43.67,6.54,32.93.98,64.78-15.25,87.42-29.12,35.72-72.81,56.21-119.88,56.21-12.6,0-25.34-1.49-37.86-4.42-5.42-1.27-11.15-3.33-16.7-5.33-9.67-3.48-19.68-7.09-29.28-7.09-.56,0-1.12.01-1.66.04-39.38,1.75-74.01,14.29-105.88,38.35-28.28,21.34-51.64,49.43-74.23,76.59-2.53,3.04-5.06,6.08-7.59,9.11-6.89,8.24-13.4,16.98-20.3,26.22-14.22,19.07-28.93,38.79-47.24,53.99-20.57,17.08-43.01,25.92-68.59,27.02-1.22.05-2.46.08-3.67.08-38.76,0-63.65-26.45-90-54.44-15.96-16.95-32.45-34.49-52.46-45.94l-.35-.2-.4-.05c-4.81-.61-9.7-.93-14.52-.93-27.21,0-50.73,9.74-73.48,19.15-22.43,9.28-43.61,18.05-67.83,18.05-11.57,0-22.82-2.01-34.38-6.14-29.25-24.02-49.61-47.71-62.25-72.43-11.23-21.97-16.05-44.26-14.74-68.14,2.46-44.56,26.49-88.07,49.73-130.15,16.31-29.53,33.17-60.06,42.33-90.6,35.71-118.62,111.18-120.12,191.09-121.7,4-.08,8.01-.16,12.03-.25,2.4-.06,4.88-.09,7.37-.09,23.06,0,46.75,2.52,69.66,4.95,20.11,2.14,40.91,4.34,60.66,4.73.51.01,1.02.02,1.53.02,38.66,0,62.12-29.63,84.81-58.29,11.36-14.34,23.1-29.17,36.59-40.07,15.17-12.26,30.35-17.97,47.77-17.97m.01-2c-78.19-.01-93.24,116.33-169.18,116.33-.5,0-.99,0-1.49-.01-41.9-.83-86.71-9.68-130.36-9.68-2.48,0-4.94.03-7.41.09-84.28,1.98-167.05-2.64-204.98,123.38-35.14,117.12-180.49,227.33-14.16,363.67,12.55,4.52,24.25,6.37,35.38,6.37,49.94,0,88.44-37.2,141.31-37.2,4.64,0,9.39.29,14.27.91,51.99,29.78,79.56,100.65,143.45,100.65,1.24,0,2.49-.03,3.75-.08,71.93-3.09,101.67-65,137.57-107.95,48.33-57.79,94.57-119.26,186.25-123.33.52-.02,1.05-.03,1.57-.03,14.75,0,30.68,8.89,45.53,12.37,12.91,3.02,25.76,4.47,38.32,4.47,48.23,0,92.44-21.35,121.47-56.99,36.48-50.79,14.54-136.3-30.82-164.47-18.84-11.81-32.74-14.07-56.49-28.43-31.87-19.29-67.73-55.3-105.85-93.23-60.69-60.42-64.34-99.67-140.81-106.48-2.5-.22-4.95-.33-7.33-.33h0Z"/>
      <path class="cls-1" d="m667.88,102.81c3.59,0,7.31.26,11.08.77,24.94,3.39,42.73,9.78,57.69,20.73,13.89,10.17,24.23,23.33,37.32,40,11.19,14.25,23.86,30.4,41.98,48.72l2.63,2.66c36.76,37.16,71.48,72.26,102.15,92.07,11.86,7.67,20.98,12.3,29.79,16.79,8.37,4.26,16.28,8.27,25.32,14.41,21.17,14.37,37.9,43.39,43.66,75.73,5.74,32.23-.04,63.38-15.86,85.48-28.87,35.42-72.24,55.72-118.99,55.72-12.32,0-24.79-1.43-37.07-4.24-5.38-1.23-11.07-3.24-16.57-5.19-9.58-3.38-19.49-6.88-29.02-6.88-.51,0-1.01,0-1.52.03-39.85,1.59-75.07,13.83-107.67,37.4-28.94,20.93-53.04,48.54-76.34,75.25-1.6,1.84-3.21,3.67-4.81,5.51-7.38,8.45-14.34,17.51-21.7,27.09-14.09,18.35-28.66,37.32-46.64,52.04-20.21,16.54-42.09,25.26-66.89,26.66-1.6.09-3.2.13-4.77.13-37.4,0-61.84-24.91-87.71-51.28-15.76-16.06-32.05-32.67-51.71-43.53l-.3-.16-.34-.06c-5.91-1-11.93-1.5-17.89-1.5-25.52,0-48.07,9.12-69.87,17.94-21.86,8.84-42.5,17.19-65.97,17.19-12.03,0-23.7-2.21-35.66-6.77-29.2-24.63-49.47-48.7-61.97-73.58-11.11-22.12-15.77-44.4-14.23-68.11,2.86-44.25,27.48-87.09,51.29-128.52,17.57-30.56,35.73-62.17,45.16-94.27,8.39-28.41,19.18-50.84,32.98-68.56,12.3-15.79,26.79-27.51,44.29-35.84,32.78-15.6,70.74-16.79,110.92-18.05,3.22-.1,6.45-.2,9.69-.31,3.33-.12,6.79-.18,10.29-.18,22.89,0,46.41,2.5,69.16,4.91,19.5,2.07,39.67,4.21,58.88,4.68.63.02,1.25.02,1.88.02,38.4,0,61.63-29.32,84.09-57.67,11.21-14.15,22.81-28.78,36.12-39.52,14.97-12.09,29.95-17.71,47.15-17.71m0-2c-77.26,0-92.03,114.9-167.36,114.9-.61,0-1.21,0-1.83-.02-41.3-1-85.26-9.59-128.09-9.59-3.46,0-6.92.06-10.36.18-83.19,2.81-163.16.36-199.72,124.2-34.93,118.92-187.36,225.34-19.35,366.79,13.02,5,25.15,7.02,36.69,7.02,48.14,0,86.01-35.13,135.84-35.13,5.69,0,11.53.46,17.56,1.48,50.96,28.15,78.63,95.05,140.39,95.05,1.6,0,3.23-.04,4.88-.14,70.77-3.98,100.43-65.06,136.63-106.48,48.82-55.83,96.46-113.84,187.39-117.47.48-.02.96-.03,1.44-.03,14.64,0,30.43,8.65,45.14,12.02,12.65,2.9,25.22,4.29,37.52,4.29,47.86,0,91.7-21.06,120.58-56.51,36.19-50.47,15.1-134.64-28.26-164.08-18.43-12.51-31.79-16.11-55.16-31.22-31.21-20.16-66.67-56.28-104.44-94.45-60.36-61.03-61.44-99.6-138.14-110.02-3.93-.53-7.71-.79-11.34-.79h0Z"/>
      <path class="cls-1" d="m668.77,99.51c4.8,0,9.82.47,14.94,1.4,24.55,4.45,41.95,11.4,56.41,22.53,13.39,10.31,23.09,23.2,35.38,39.53,11.16,14.82,23.81,31.63,42.61,50.93l2.59,2.66c36.38,37.34,70.75,72.61,100.74,93.27,11.2,7.73,20.19,12.97,28.13,17.6,8.46,4.93,16.45,9.6,25.64,16.38,40.49,29.88,60.51,111.58,25.3,160.85-28.63,35.11-71.67,55.24-118.1,55.24-12.04,0-24.25-1.36-36.27-4.06-5.33-1.19-10.98-3.15-16.45-5.04-9.49-3.29-19.31-6.68-28.75-6.68h0c-.46,0-.91,0-1.37.02-40.45,1.43-76.35,13.38-109.78,36.54-29.69,20.56-54.6,47.79-78.69,74.11l-1.48,1.61c-7.9,8.64-15.31,18.01-23.15,27.93-28.24,35.72-57.44,72.66-111.19,76.42-1.98.14-3.96.21-5.9.21-36.04,0-60.02-23.38-85.41-48.14-15.55-15.17-31.63-30.85-50.94-41.1l-.25-.13-.28-.06c-6.98-1.48-13.82-2.19-20.92-2.19-24.01,0-45.65,8.55-66.58,16.82-20.37,8.05-41.42,16.36-64.19,16.36-12.49,0-24.56-2.43-36.89-7.42-29.18-25.24-49.38-49.7-61.73-74.77-10.99-22.29-15.48-44.59-13.73-68.16,3.27-44,28.51-86.22,52.91-127.04,18.83-31.5,38.3-64.07,47.96-97.66,8.16-28.22,18.69-50.52,32.19-68.19,12.04-15.76,26.26-27.52,43.47-35.95,32.26-15.8,69.93-17.42,109.82-19.13,2.38-.1,4.76-.2,7.16-.31,4.18-.19,8.57-.29,13.03-.29,22.75,0,46.14,2.49,68.75,4.89,18.92,2.01,38.49,4.09,57.19,4.63.75.02,1.48.03,2.22.03,38.16,0,61.18-29.05,83.44-57.15,11.07-13.97,22.52-28.43,35.66-39.03,14.77-11.93,29.55-17.48,46.51-17.48m0-2c-76.32,0-90.84,113.66-165.61,113.66-.71,0-1.43-.01-2.16-.03-40.76-1.17-83.93-9.53-126-9.53-4.39,0-8.76.09-13.12.29-82.1,3.63-159.26,3.35-194.47,125.02-34.71,120.72-194.23,223.36-24.54,369.91,13.47,5.5,26.01,7.69,37.95,7.69,46.45,0,83.67-33.18,130.77-33.18,6.62,0,13.43.65,20.5,2.15,49.92,26.51,77.67,89.47,137.29,89.47,1.98,0,3.99-.07,6.04-.21,69.61-4.87,99.2-65.11,135.68-105,49.31-53.88,98.35-108.42,188.54-111.61.43-.02.86-.02,1.29-.02,14.53,0,30.17,8.41,44.76,11.67,12.38,2.77,24.68,4.1,36.71,4.1,47.5,0,90.97-20.77,119.69-56.03,35.89-50.14,15.75-133.1-25.7-163.68-17.99-13.27-30.83-18.15-53.82-34.01-30.54-21.03-65.61-57.27-103.03-95.68-60.03-61.64-58.53-99.63-135.47-113.56-5.37-.97-10.46-1.43-15.3-1.43h0Z"/>
      <path class="cls-1" d="m669.74,96.04c5.96,0,12.26.74,18.74,2.19,51.42,11.56,66.25,32.18,88.71,63.4,11.08,15.4,23.63,32.85,43.1,53.14l2.56,2.67c36,37.52,70,72.96,99.32,94.46,10.24,7.52,18.53,13,25.84,17.84,9.14,6.05,17.03,11.27,26.58,18.92,19.12,15.32,33.71,42.84,39.03,73.62,2.68,15.53,2.8,31.33.35,45.69-2.67,15.66-8.25,29.52-16.58,41.2-28.38,34.8-71.11,54.76-117.23,54.76-11.76,0-23.7-1.3-35.47-3.88-5.3-1.16-10.9-3.06-16.33-4.89-9.4-3.19-19.13-6.48-28.49-6.48-.4,0-.81,0-1.21.02-40.62,1.25-76.84,12.62-110.74,34.76-31.17,20.36-57.28,47.58-80.32,71.61-8.43,8.8-16.31,18.48-24.65,28.74-27.92,34.32-56.8,69.81-108.8,74.18-2.38.2-4.76.3-7.08.3-34.69,0-58.2-21.87-83.08-45.02-15.34-14.27-31.2-29.02-50.15-38.68l-.2-.1-.21-.05c-7.85-2.01-15.59-2.99-23.65-2.99-22.66,0-43.46,8.02-63.57,15.78-19.85,7.66-40.37,15.57-62.46,15.57-12.94,0-25.4-2.64-38.07-8.08-29.18-25.86-49.31-50.73-61.53-76-10.88-22.49-15.2-44.82-13.22-68.27,1.66-19.63,7.88-40.47,19.03-63.73,10-20.85,22.99-41.76,35.56-61.98,20.1-32.34,40.88-65.78,50.74-100.8,7.94-28.04,18.22-50.24,31.42-67.86,11.8-15.75,25.76-27.55,42.68-36.08,31.76-16.01,69.22-18.05,108.88-20.21l4.41-.24c4.98-.28,10.23-.42,15.6-.42,22.63,0,45.92,2.49,68.44,4.89,18.37,1.96,37.37,3.99,55.57,4.59.85.03,1.71.04,2.55.04,37.94,0,60.77-28.84,82.85-56.73,10.94-13.82,22.25-28.11,35.22-38.59,14.57-11.78,29.15-17.27,45.87-17.27m0-2c-75.39,0-89.7,112.6-163.94,112.6-.82,0-1.64-.01-2.48-.04-40.26-1.33-82.71-9.49-124.08-9.49-5.26,0-10.5.13-15.72.43-81.01,4.46-155.37,6.34-189.21,125.84-34.5,122.52-201.09,221.37-29.74,373.03,13.91,6.01,26.85,8.37,39.16,8.37,44.87,0,81.4-31.35,126.03-31.35,7.47,0,15.16.88,23.15,2.92,48.85,24.89,76.66,83.91,134.14,83.91,2.37,0,4.78-.1,7.25-.31,68.45-5.76,97.97-65.17,134.73-103.53,49.8-51.92,100.23-103,189.68-105.76.38-.01.76-.02,1.15-.02,14.42,0,29.92,8.17,44.39,11.33,12.11,2.65,24.13,3.92,35.9,3.92,47.14,0,90.25-20.49,118.82-55.55,35.59-49.82,16.41-131.6-23.14-163.28-17.53-14.04-29.88-20.2-52.49-36.8-29.87-21.9-64.54-58.26-101.62-96.9-59.7-62.24-55.6-99.75-132.81-117.11-6.82-1.53-13.19-2.24-19.18-2.24h0Z"/>
      <path class="cls-1" d="m670.79,92.4c7.08,0,14.63,1.06,22.46,3.15,50.69,13.55,64.65,33.92,85.78,64.76,10.93,15.96,23.33,34.05,43.43,55.33l2.59,2.74c35.59,37.67,69.22,73.25,97.85,95.59,8.65,6.75,15.82,12.06,22.14,16.75,9.95,7.38,18.54,13.75,28.93,22.77,18.33,15.93,32.16,43.58,36.99,73.97,2.46,15.45,2.42,31.12-.1,45.33-2.76,15.52-8.34,29.27-16.6,40.86-28.14,34.5-70.55,54.28-116.36,54.28-11.48,0-23.14-1.24-34.65-3.7-5.26-1.12-10.82-2.97-16.21-4.75-9.32-3.09-18.95-6.28-28.23-6.28-.35,0-.69,0-1.04.01-40.47,1.05-76.71,11.64-110.8,32.37-30.52,18.55-55.91,42.8-81.38,68.11-8.99,8.94-17.35,18.93-26.21,29.51-27.58,32.94-56.1,67.01-106.36,71.97-2.79.28-5.59.41-8.32.41-33.33,0-56.36-20.37-80.74-41.93-15.12-13.37-30.75-27.2-49.32-36.24l-.14-.07-.15-.05c-8.62-2.6-17.17-3.87-26.12-3.87-21.44,0-41.45,7.53-60.8,14.81-19.35,7.28-39.35,14.81-60.8,14.81-13.38,0-26.21-2.87-39.22-8.77-29.2-26.49-49.27-51.77-61.37-77.27-10.76-22.69-14.92-45.08-12.71-68.45,1.85-19.56,8.33-40.25,19.8-63.24,10.29-20.63,23.62-41.27,36.52-61.24,21.37-33.09,43.46-67.31,53.5-103.73,14.6-52.73,37.67-85.72,72.61-103.82,31.31-16.22,68.63-18.68,108.13-21.29l1.41-.09c5.71-.38,11.77-.58,18.02-.58,22.54,0,45.76,2.49,68.2,4.9,17.85,1.92,36.3,3.9,54.04,4.56.96.04,1.92.05,2.87.05,37.76,0,60.41-28.67,82.33-56.41,10.81-13.68,21.99-27.83,34.79-38.21,14.38-11.65,28.76-17.08,45.25-17.08m0-2c-74.46,0-88.61,111.69-162.37,111.69-.92,0-1.85-.02-2.79-.05-39.8-1.49-81.59-9.46-122.31-9.46-6.08,0-12.13.18-18.15.58-79.92,5.28-151.47,9.33-183.95,126.67-34.29,124.32-207.96,219.39-34.93,376.15,14.32,6.54,27.65,9.08,40.33,9.08,43.37,0,79.2-29.62,121.59-29.62,8.24,0,16.71,1.12,25.55,3.79,47.76,23.26,75.62,78.38,130.94,78.38,2.77,0,5.6-.14,8.51-.42,67.29-6.65,96.74-65.23,133.78-102.05,50.29-49.96,102.12-97.59,190.83-99.9.33,0,.66-.01.99-.01,14.32,0,29.68,7.93,44.02,10.98,11.83,2.52,23.57,3.74,35.07,3.74,46.78,0,89.53-20.2,117.95-55.06,35.3-49.5,17.11-130.13-20.57-162.89-17.06-14.83-28.92-22.24-51.15-39.59-29.2-22.77-63.48-59.24-100.21-98.12-59.37-62.85-52.64-99.94-130.14-120.65-8.27-2.21-15.89-3.22-22.97-3.22h0Z"/>
      <path class="cls-1" d="m671.93,88.61c8.15,0,16.92,1.43,26.08,4.26,50.01,15.42,63.14,35.61,83.01,66.18,10.73,16.51,22.9,35.23,43.59,57.47l2.65,2.84c35.18,37.81,68.4,73.52,96.35,96.68,5.37,4.45,10.2,8.4,14.45,11.88,13.24,10.84,22.81,18.67,35.27,30.42,17.54,16.53,30.61,44.31,34.97,74.31,4.77,32.84-1.33,63.21-17.18,85.51-27.9,34.19-69.99,53.8-115.5,53.8-11.2,0-22.58-1.18-33.83-3.52-5.22-1.08-10.75-2.87-16.09-4.6-9.23-2.99-18.77-6.08-27.98-6.08h0c-.29,0-.58,0-.87,0-88.1,1.87-141.71,45.81-193.3,94.59-9.57,9.05-18.43,19.34-27.82,30.24-27.21,31.6-55.34,64.27-103.87,69.8-3.23.37-6.47.56-9.61.56-31.98,0-54.51-18.88-78.36-38.87-14.88-12.47-30.28-25.37-48.47-33.81l-.09-.04-.09-.03c-9.3-3.26-18.58-4.84-28.37-4.84-20.33,0-39.6,7.07-58.24,13.91-18.86,6.92-38.35,14.08-59.18,14.08-13.81,0-27.01-3.1-40.32-9.47-29.23-27.12-49.26-52.82-61.24-78.56-10.66-22.91-14.64-45.38-12.19-68.69,4.58-43.55,30.57-82.32,58.09-123.37,22.64-33.77,46.05-68.7,56.25-106.45,14.1-52.19,36.49-85.04,70.47-103.4,31.03-16.77,69.37-19.74,106.44-22.61,6.48-.5,13.12-.75,20.29-.75,22.48,0,45.64,2.5,68.04,4.92,17.35,1.87,35.29,3.81,52.57,4.53,1.06.04,2.13.07,3.17.07,37.59,0,60.1-28.55,81.87-56.16,10.69-13.57,21.75-27.59,34.39-37.87,14.19-11.54,28.38-16.91,44.64-16.91m0-2c-73.56,0-87.59,110.94-160.9,110.94-1.02,0-2.05-.02-3.09-.06-39.39-1.64-80.57-9.46-120.69-9.46-6.85,0-13.67.23-20.44.75-78.83,6.11-147.58,12.32-178.69,127.49-34.07,126.12-214.83,217.4-40.12,379.27,14.72,7.09,28.42,9.79,41.46,9.79,41.95,0,77.07-27.99,117.42-27.99,8.94,0,18.13,1.37,27.71,4.73,46.65,21.65,74.51,72.87,127.68,72.87,3.18,0,6.46-.18,9.83-.57,66.12-7.54,95.51-65.28,132.84-100.58,50.78-48.01,104.01-92.17,191.97-94.04.27,0,.55,0,.82,0,14.22,0,29.44,7.69,43.67,10.64,11.55,2.4,23.02,3.56,34.24,3.56,46.43,0,88.81-19.9,117.09-54.59,35-49.17,17.84-128.69-18.01-162.49-16.58-15.63-27.97-24.28-49.82-42.38-28.54-23.64-62.41-60.23-98.81-99.34-59.04-63.46-49.65-100.2-127.47-124.2-9.72-3-18.56-4.35-26.67-4.35h0Z"/>
      <path class="cls-1" d="m673.01,84.66c9.21,0,19.23,1.86,29.78,5.53,22.74,7.91,39.19,17.15,51.76,29.1,11.62,11.04,19.48,23.79,28.57,38.55,10.51,17.06,22.43,36.4,43.65,59.56l4.07,4.44c34.25,37.38,66.6,72.69,93.48,96.27,21.83,19.2,32.31,28.66,48.37,45.07,16.71,17.08,29.01,44.96,32.91,74.6,4.3,32.66-1.96,62.8-17.62,84.89-13.81,16.92-30.85,30.17-50.64,39.39-19.85,9.24-41.38,13.93-64.01,13.93-10.91,0-22.01-1.12-32.99-3.34-5.19-1.05-10.68-2.78-15.98-4.46-9.14-2.89-18.59-5.88-27.73-5.88h0c-.23,0-.46,0-.68,0-89.86,1.47-145.32,44.62-194.42,88.69-10.15,9.12-19.51,19.69-29.42,30.88-26.84,30.3-54.59,61.63-101.39,67.73-3.61.47-7.22.71-10.72.71-30.39,0-52.31-17.35-75.5-35.72-14.89-11.79-30.29-23.99-48.32-31.49l-.08-.03-.09-.03c-9-2.83-17.95-4.2-27.38-4.2-20.08,0-38.96,6.45-57.23,12.69-18.24,6.23-37.1,12.67-57.13,12.67-14.87,0-29.08-3.51-43.42-10.73-29.26-27.73-49.24-53.84-61.09-79.83-10.55-23.13-14.37-45.67-11.68-68.91,5.02-43.44,31.64-81.72,59.83-122.26,23.96-34.45,48.73-70.07,59.03-109.23,13.57-51.39,35.12-84.03,67.8-102.72,28.66-16.39,62.55-20.47,103.88-24.11,7.16-.64,14.53-.95,22.53-.94,22.4,0,45.51,2.52,67.86,4.96,16.87,1.84,34.31,3.74,51.16,4.52,1.16.05,2.34.08,3.48.08,37.42,0,59.71-28.45,81.27-55.95,10.56-13.48,21.48-27.41,33.97-37.62,14.02-11.45,28.04-16.79,44.12-16.79m0-2c-72.86,0-86.48,110.36-159.37,110.36-1.12,0-2.25-.03-3.39-.08-38.98-1.79-79.57-9.48-119.11-9.48-7.61,0-15.19.29-22.7.95-77.77,6.84-143.6,15.36-173.43,128.31-33.67,128.05-221.7,215.42-45.31,382.39,15.93,8.07,30.64,11.07,44.58,11.07,40.52,0,74.66-25.36,114.36-25.36,8.62,0,17.51,1.2,26.78,4.11,45.24,18.83,73.37,67.37,124.59,67.37,3.55,0,7.2-.23,10.98-.72,64.93-8.46,94.3-65.34,131.89-99.1,51.31-46.05,105.89-86.75,193.11-88.18.22,0,.43,0,.65,0,14.13,0,29.21,7.45,43.32,10.3,11.27,2.27,22.44,3.38,33.39,3.38,46.08,0,88.11-19.61,116.24-54.11,34.7-48.85,18.49-127.41-15.45-162.09-16.14-16.5-26.99-26.27-48.48-45.17-27.85-24.44-61.35-61.23-97.4-100.57-58.72-64.09-46.99-100.68-124.81-127.74-11.23-3.91-21.3-5.64-30.44-5.64h0Z"/>
      <path class="cls-1" d="m674.16,80.56c10.23,0,21.47,2.34,33.41,6.94,48.43,18.69,60.75,39.86,77.81,69.15,10.25,17.6,21.86,37.55,43.57,61.61l6.04,6.69c33.11,36.7,64.39,71.36,90.07,95.22,20.97,19.57,31.04,30.13,47.03,47.84,15.89,17.6,27.42,45.59,30.87,74.87,3.82,32.48-2.6,62.41-18.08,84.28-13.72,16.81-30.64,29.95-50.3,39.08-19.66,9.13-41.04,13.76-63.52,13.76-10.62,0-21.43-1.06-32.14-3.16-5.16-1.01-10.61-2.69-15.88-4.32-9.06-2.79-18.42-5.68-27.48-5.68h0c-.16,0-.33,0-.49,0-40.15.46-76.45,8.7-110.96,25.19-33.88,16.19-61.76,38.21-84.57,57.61-10.75,9.16-20.63,20.01-31.09,31.49-26.43,29.03-53.77,59.04-98.85,65.68-3.99.58-7.98.88-11.85.88-28.82,0-50.07-15.84-72.57-32.61-14.92-11.12-30.34-22.61-48.23-29.16l-.07-.03-.08-.02c-8.64-2.41-17.22-3.58-26.23-3.58-19.83,0-38.33,5.86-56.23,11.52-17.62,5.58-35.84,11.34-55.07,11.34-15.98,0-31.25-3.96-46.67-12.11-29.3-28.35-49.24-54.88-60.98-81.12-10.44-23.35-14.09-45.98-11.17-69.19,5.47-43.36,32.74-81.19,61.62-121.24,25.27-35.05,51.41-71.3,61.78-111.83,13.05-50.61,33.74-83.04,65.12-102.04,28.46-17.24,62.72-21.79,101.31-25.6,7.79-.78,15.84-1.16,24.62-1.16,22.35,0,45.42,2.55,67.74,5.01,16.42,1.81,33.39,3.69,49.82,4.51,1.28.06,2.52.1,3.78.1,37.26,0,59.36-28.38,80.73-55.82,10.44-13.41,21.23-27.27,33.58-37.41,13.85-11.38,27.71-16.68,43.62-16.68m0-2c-72.17,0-85.43,109.92-157.92,109.92-1.21,0-2.43-.03-3.68-.09-38.61-1.93-78.67-9.52-117.66-9.52-8.33,0-16.61.35-24.82,1.17-76.72,7.57-139.62,18.4-168.17,129.14-33.27,129.98-228.57,213.43-50.5,385.51,17.23,9.16,32.97,12.48,47.85,12.48,39.07,0,72.26-22.86,111.3-22.86,8.27,0,16.79,1.02,25.69,3.51,43.82,16.04,72.19,61.89,121.49,61.89,3.91,0,7.95-.29,12.14-.9,63.73-9.38,93.1-65.39,130.94-97.63,51.83-44.1,107.77-81.34,194.26-82.32.15,0,.31,0,.46,0,14.03,0,28.99,7.21,42.98,9.95,10.98,2.15,21.86,3.2,32.53,3.2,45.74,0,87.42-19.31,115.41-53.63,34.41-48.53,19.16-126.18-12.89-161.7-15.69-17.38-26.02-28.25-47.15-47.96-27.16-25.23-60.29-62.24-95.99-101.79-58.39-64.72-44.29-101.24-122.14-131.28-12.75-4.92-24.02-7.08-34.13-7.08h0Z"/>
      <path class="cls-1" d="m675.39,76.33h.01c11.21,0,23.64,2.86,36.96,8.49,47.74,20.2,59.35,41.38,75.42,70.71,9.93,18.13,21.19,38.68,43.34,63.6,2.97,3.34,5.92,6.67,8.86,9.97,31.64,35.62,61.53,69.26,85.82,93.14,20.09,19.84,29.74,31.44,44.35,49.01l1.33,1.6c15.07,18.12,25.85,46.2,28.83,75.12,3.33,32.32-3.26,62.04-18.56,83.69-13.63,16.7-30.44,29.74-49.96,38.78-19.48,9.02-40.69,13.59-63.04,13.59-10.32,0-20.85-1.01-31.28-2.99-5.13-.97-10.54-2.6-15.78-4.17-8.98-2.69-18.26-5.48-27.24-5.48h-.28c-40.12.26-76.43,7.71-111.01,22.8-27.8,12.13-54.21,28.82-85.63,54.11-11.38,9.18-21.8,20.3-32.82,32.08-26,27.78-52.89,56.51-96.24,63.65-4.37.72-8.74,1.08-13,1.08-27.24,0-47.8-14.34-69.56-29.53-14.97-10.44-30.44-21.25-48.22-26.82l-.06-.02-.06-.02c-8.21-2-16.35-2.97-24.87-2.97-19.59,0-37.73,5.3-55.27,10.42-17,4.96-34.59,10.1-53.01,10.1-17.14,0-33.52-4.46-50.08-13.63-29.35-28.97-49.27-55.94-60.88-82.44-10.34-23.59-13.82-46.32-10.65-69.5,5.93-43.32,33.86-80.72,63.44-120.32,26.59-35.6,54.09-72.41,64.52-114.27,12.53-49.84,32.37-82.05,62.45-101.37,28.21-18.11,62.8-23.15,98.74-27.09,8.37-.93,17.06-1.38,26.58-1.38,22.31,0,45.38,2.58,67.68,5.07,15.99,1.79,32.52,3.63,48.56,4.5,1.36.07,2.73.11,4.07.11,37.14,0,59.06-28.35,80.25-55.77,10.32-13.35,20.99-27.15,33.19-37.25,13.68-11.32,27.38-16.59,43.11-16.59m.01-2c-71.49-.01-84.42,109.61-156.57,109.61-1.3,0-2.62-.04-3.96-.11-38.28-2.07-77.85-9.57-116.35-9.57-9,0-17.95.41-26.8,1.4-75.66,8.3-135.64,21.44-162.91,129.96-32.87,131.9-235.44,211.45-55.7,388.64,18.62,10.36,35.43,14.01,51.29,14.01,37.62,0,69.88-20.52,108.28-20.52,7.85,0,15.94.86,24.4,2.92,42.39,13.3,70.95,56.44,118.37,56.44,4.28,0,8.71-.35,13.32-1.11,62.53-10.3,91.9-65.44,129.99-96.15,52.36-42.14,109.65-75.92,195.4-76.46.09,0,.18,0,.27,0,13.94,0,28.77,6.97,42.66,9.61,10.69,2.03,21.28,3.02,31.65,3.02,45.41,0,86.74-19.01,114.59-53.15,34.11-48.2,19.88-124.99-10.33-161.3-15.21-18.29-25.04-30.24-45.81-50.75-26.47-26.03-59.22-63.24-94.58-103.01-58.07-65.35-41.58-101.88-119.48-134.83-14.26-6.03-26.7-8.65-37.73-8.65h0Z"/>
      <path class="cls-1" d="m676.73,71.98c12.31,0,25.54,3.32,40.42,10.16,21.72,9.97,37.19,20.6,48.71,33.45,10.52,11.74,16.98,24.32,24.46,38.89,9.58,18.65,20.43,39.78,42.97,65.53,4.49,5.12,8.93,10.2,13.32,15.22,29.52,33.77,57.41,65.66,79.92,89.07,17.86,18.66,27.28,31.01,39.19,46.64,1.65,2.17,3.36,4.41,5.14,6.73,14.26,18.61,24.28,46.78,26.81,75.36,2.84,32.15-3.92,61.66-19.05,83.12-13.55,16.59-30.25,29.53-49.63,38.47-19.3,8.9-40.35,13.41-62.56,13.41-10.02,0-20.25-.95-30.41-2.82-5.1-.94-10.25-2.44-15.7-4.03-8.9-2.59-18.1-5.28-27.02-5.28h-.06c-40.12.05-76.45,6.72-111.05,20.41-28.6,11.31-56.15,27.39-86.7,50.6-12.05,9.17-23.01,20.58-34.62,32.65-25.53,26.56-51.94,54.03-93.57,61.65-4.76.87-9.53,1.31-14.17,1.31-25.67,0-46.4-13.47-66.46-26.5-15.04-9.77-30.6-19.88-48.27-24.45h-.05s-.05-.02-.05-.02c-7.7-1.61-15.31-2.39-23.27-2.39-19.37,0-37.16,4.77-54.36,9.38-17.15,4.6-33.36,8.95-50.98,8.95s-35.91-5-53.65-15.28c-121.99-122.7-65.47-195.76-5.64-273.12,27.91-36.09,56.77-73.4,67.24-116.57,12-49.09,31-81.09,59.78-100.69,25.19-17.16,55.47-23.66,96.18-28.58,8.91-1.09,18.2-1.62,28.43-1.62,22.3,0,45.37,2.61,67.68,5.13,15.59,1.76,31.7,3.59,47.37,4.49,1.46.08,2.92.13,4.34.13,37.03,0,58.79-28.36,79.84-55.79,10.21-13.3,20.77-27.06,32.84-37.12,13.53-11.28,27.08-16.53,42.64-16.52m0-2c-70.83,0-83.48,109.43-155.31,109.43-1.39,0-2.79-.04-4.23-.12-37.99-2.2-77.12-9.63-115.16-9.63-9.64,0-19.21.48-28.67,1.64-74.6,9.03-131.67,24.48-157.66,130.78-32.47,133.83-242.31,209.47-60.89,391.76,20.1,11.69,38.02,15.68,54.89,15.68,36.17,0,67.54-18.33,105.34-18.33,7.35,0,14.94.69,22.87,2.35,40.96,10.6,69.66,51.02,115.23,51.02,4.66,0,9.48-.42,14.52-1.34,61.34-11.22,90.7-65.49,129.04-94.68,52.89-40.19,111.53-70.51,196.54-70.61.02,0,.04,0,.05,0,13.86,0,28.57,6.73,42.35,9.27,10.39,1.91,20.68,2.85,30.77,2.85,45.08,0,86.07-18.7,113.79-52.68,33.81-47.88,20.64-123.83-7.77-160.91-14.72-19.21-24.06-32.22-44.48-53.54-25.78-26.82-58.16-64.24-93.18-104.23-57.74-65.98-38.84-102.58-116.81-138.37-15.77-7.24-29.34-10.34-41.25-10.34h0Z"/>
      <path class="cls-1" d="m678.1,67.44c13.23,0,27.57,3.93,43.84,12.01,46.64,22.93,57.42,45.47,71.07,74,9.17,19.17,19.57,40.9,42.44,67.43,7.26,8.42,14.4,16.72,21.38,24.84,26,30.24,50.56,58.8,70.42,80.65,16.71,18.43,25.4,30.92,36.4,46.72,2.1,3.02,4.27,6.14,6.59,9.42,13.46,19.1,22.73,47.36,24.8,75.59,2.34,31.98-4.6,61.3-19.56,82.56-13.47,16.48-30.05,29.33-49.3,38.17-19.12,8.79-40.02,13.24-62.1,13.24-9.72,0-19.65-.89-29.52-2.64-5.07-.9-10.19-2.35-15.62-3.89-8.76-2.48-17.81-5.04-26.61-5.08-.54,0-1.06,0-1.6,0-73.51,0-134.35,20.09-197.26,65.13-12.74,9.13-24.28,20.82-36.49,33.2-25.04,25.37-50.92,51.6-90.83,59.66-5.15,1.04-10.32,1.56-15.37,1.56-24.09,0-44-11.97-63.26-23.54-15.15-9.1-30.81-18.51-48.4-22.05h-.03s-.03,0-.03,0c-7.08-1.24-14.06-1.84-21.35-1.84-19.19,0-36.66,4.29-53.55,8.43-16.54,4.06-32.16,7.89-49,7.89-19.9,0-38.14-5.43-57.4-17.09-122.28-125.28-64.43-197.58-3.18-274.11,29.23-36.52,59.45-74.29,69.95-118.73,11.48-48.36,29.63-80.14,57.11-100.01,24.8-17.94,55.36-24.99,93.61-30.07,9.41-1.26,19.27-1.87,30.16-1.87,22.29,0,45.39,2.65,67.72,5.21,15.2,1.74,30.92,3.54,46.23,4.49,1.54.1,3.09.14,4.61.14,36.95,0,58.59-28.43,79.52-55.93,10.11-13.28,20.56-27,32.49-37.03,13.37-11.24,26.75-16.47,42.11-16.47m0-2c-70.08,0-82.57,109.43-154.12,109.43-1.47,0-2.96-.05-4.48-.14-37.72-2.34-76.45-9.7-114.08-9.7-10.24,0-20.39.55-30.42,1.89-73.55,9.76-127.69,27.52-152.4,131.61-32.07,135.76-249.18,207.48-66.08,394.88,21.67,13.16,40.73,17.51,58.66,17.51,34.76,0,65.3-16.32,102.55-16.32,6.76,0,13.74.54,21.01,1.81,39.51,7.95,68.3,45.63,112.05,45.63,5.04,0,10.28-.5,15.76-1.6,60.14-12.15,89.5-65.54,128.1-93.2,53.08-37.99,112.66-64.75,196.1-64.75.53,0,1.05,0,1.59,0,13.73.05,28.25,6.51,41.88,8.93,10.09,1.79,20.08,2.67,29.87,2.67,44.75,0,85.4-18.4,112.99-52.2,33.52-47.56,21.44-122.71-5.2-160.51-14.2-20.15-23.09-34.21-43.14-56.33-25.09-27.61-57.09-65.24-91.77-105.46-57.42-66.61-35.99-103.48-114.14-141.91-17.29-8.58-31.96-12.21-44.73-12.21h0Z"/>
      <path class="cls-1" d="m679.65,60.94v2c14.08,0,29.48,4.52,47.08,13.82,46.13,24.37,56.25,47.07,69.05,75.8,8.75,19.64,18.67,41.9,41.84,69.18,14.16,16.67,27.69,32.71,40.77,48.21,18.13,21.48,35.25,41.77,49.59,58.47,16.02,18.65,24.63,32.21,34.61,47.9,2.24,3.52,4.55,7.16,7.04,11.01,12.67,19.57,21.2,47.91,22.81,75.82,1.84,31.81-5.29,60.93-20.08,82-26.84,32.85-66.12,50.94-110.62,50.94-9.41,0-19.04-.83-28.62-2.47-5.05-.87-10.15-2.26-15.55-3.74-8.6-2.36-17.49-4.79-26.13-4.88-1.37-.01-2.72-.02-4.08-.02-39.33,0-74.88,5.29-108.65,16.17-29.93,9.64-58.46,23.73-87.23,43.08-13.46,9.06-25.6,21.04-38.44,33.73-24.5,24.21-49.83,49.24-88.03,57.7-5.55,1.23-11.14,1.86-16.61,1.86-22.52,0-41.55-10.5-59.95-20.65-15.28-8.43-31.07-17.14-48.61-19.61-6.31-.89-12.54-1.32-19.02-1.32-19.07,0-36.27,3.85-52.9,7.57-15.96,3.57-31.03,6.94-47.11,6.94-21.23,0-40.73-6.06-61.32-19.05-122.65-127.89-63.41-199.45-.7-275.23,30.55-36.91,62.14-75.08,72.64-120.76,10.96-47.65,28.26-79.21,54.44-99.34,25.88-19.9,59.05-26.93,91.04-31.56,9.88-1.43,20.28-2.13,31.79-2.13,22.3,0,45.43,2.69,67.81,5.29,14.84,1.72,30.18,3.51,45.15,4.49,1.66.11,3.25.16,4.87.16,36.87,0,58.38-28.47,79.19-56,10.01-13.25,20.37-26.96,32.19-36.97,13.24-11.21,26.5-16.43,41.73-16.43v-2m0,0c-69.57,0-81.79,109.39-153.1,109.39-1.56,0-3.13-.05-4.74-.16-37.49-2.47-75.85-9.79-113.09-9.79-10.81,0-21.51.62-32.08,2.15-72.49,10.49-123.71,30.56-147.14,132.43-31.67,137.69-256.04,205.5-71.27,398,23.35,14.78,43.57,19.49,62.6,19.49,33.41,0,63.19-14.51,100.01-14.51,6.04,0,12.27.39,18.74,1.3,38.06,5.35,66.87,40.27,108.83,40.27,5.44,0,11.11-.59,17.04-1.9,58.94-13.07,88.29-65.59,127.15-91.73,53.06-35.69,113.29-58.91,194.77-58.91,1.35,0,2.7,0,4.06.02,13.58.13,27.91,6.29,41.36,8.59,9.78,1.68,19.46,2.5,28.95,2.5,44.43,0,84.75-18.09,112.21-51.73,33.22-47.23,22.29-121.6-2.64-160.11-13.66-21.1-22.11-36.2-41.81-59.12-24.4-28.41-56.03-66.24-90.36-106.68-57.09-67.24-33.26-104.14-111.48-145.46-18.75-9.91-34.47-14.05-48.01-14.05h0Z"/>
      <path class="cls-1" d="m681.17,58.19h.01c14.92,0,31.39,5.2,50.35,15.89,45.76,25.64,55.21,48.58,67.17,77.62,8.29,20.13,17.69,42.94,41.08,70.92,27.62,33.03,56.71,68.31,88.93,107.88,15.81,19.46,24.14,33.84,33.79,50.51,2.07,3.58,4.22,7.28,6.51,11.17,11.94,20.08,19.75,48.53,20.9,76.11.92,22.34-1.92,54.59-20.69,81.38-26.6,32.55-65.61,50.47-109.86,50.47-9.1,0-18.41-.78-27.69-2.3-5.04-.83-10.11-2.18-15.49-3.6-8.43-2.24-17.15-4.55-25.64-4.67-2.41-.04-4.84-.05-7.22-.05-74.36,0-135.96,16.97-193.85,53.39-14.19,8.94-26.92,21.21-40.4,34.19-23.96,23.08-48.73,46.94-85.21,55.81-6.26,1.52-12.32,2.26-18.5,2.26-21.2,0-39.48-9.08-57.16-17.85-14.98-7.44-30.47-15.13-47.56-17.16-5.46-.65-10.85-.97-16.47-.97-18.62,0-35.54,3.57-51.9,7.02-15.67,3.31-30.47,6.43-46.1,6.43-22.67,0-43.31-6.87-64.94-21.62-124.74-128.07-63.59-199.64,1.16-275.4,32.22-37.71,65.55-76.71,75.97-123.74,10.48-46.97,26.93-78.33,51.79-98.7,11.06-9.06,24.01-16.12,39.61-21.59,13.33-4.68,28.85-8.31,48.84-11.42,10.33-1.62,21.25-2.41,33.38-2.41,22.29,0,45.45,2.74,67.85,5.38,14.5,1.71,29.5,3.49,44.16,4.51,1.74.12,3.42.18,5.12.18,36.82,0,58.23-28.59,78.93-56.25,20.54-27.44,39.95-53.37,73.13-53.37m.01-2c-68.92-.01-80.98,109.61-152.07,109.61-1.63,0-3.29-.06-4.98-.18-37.26-2.59-75.29-9.89-112.15-9.9-11.36,0-22.61.69-33.69,2.43-71.47,11.14-119.66,33.62-141.88,133.25-30.97,139.81-265.67,207.02-76.46,401.12,24.69,16.88,46.03,22.08,66.23,22.08,32.49,0,62.08-13.46,98-13.46,5.27,0,10.67.29,16.24.95,36.73,4.37,65.14,35.03,104.96,35.03,6.04,0,12.34-.7,18.98-2.31,57.7-14.02,87.13-65.62,126.2-90.25,52.93-33.31,113.51-53.09,192.78-53.09,2.38,0,4.78.02,7.19.05,13.44.2,27.56,6.06,40.84,8.25,9.46,1.56,18.83,2.33,28.01,2.33,44.12,0,84.12-17.78,111.46-51.26,32.92-46.91,23.36-120.31-.08-159.72-12.98-21.97-21.16-38.15-40.47-61.91-23.74-29.15-54.96-67.26-88.95-107.9-56.76-67.89-30.41-105.07-108.81-149-20.25-11.41-37.02-16.14-51.33-16.14h0Z"/>
      <path class="cls-1" d="m682.8,51.37v2c15.73,0,33.23,5.9,53.53,18.03,45.44,26.91,54.24,50.13,65.38,79.52,7.81,20.6,16.66,43.94,40.24,72.58,34.33,41.67,64.59,79.39,87.5,109.07,15.44,20.07,23.42,35.16,32.67,52.64,2.01,3.79,4.08,7.71,6.3,11.8,11.35,20.96,18.25,48.81,18.95,76.42.56,22.17-2.68,54.17-21.26,80.74-26.36,32.24-65.11,50-109.13,50-8.78,0-17.78-.72-26.74-2.14-5.02-.79-10.09-2.09-15.45-3.46-8.26-2.12-16.81-4.3-25.14-4.47-3.79-.08-7.59-.12-11.3-.12-38.21,0-72.39,3.97-104.49,12.14-30.92,7.87-59.18,19.46-86.39,35.43-14.95,8.8-28.31,21.36-42.45,34.65-23.38,21.97-47.55,44.7-82.3,53.92-6.97,1.84-13.73,2.74-20.65,2.74-19.85,0-37.32-7.69-54.21-15.13-14.66-6.45-29.82-13.13-46.43-14.73-4.48-.43-9.08-.65-13.7-.65-18.22,0-34.89,3.34-51.01,6.57-15.43,3.09-30.01,6.01-45.28,6.01-24.11,0-45.88-7.73-68.48-24.32-126.86-128.3-63.78-199.88,3-275.66,33.91-38.48,68.98-78.27,79.3-126.64,9.99-46.32,25.6-77.48,49.13-98.05,19.93-17.43,45.6-27.73,85.87-34.47,10.75-1.82,22.16-2.7,34.88-2.7,22.29,0,45.49,2.79,67.92,5.48,14.19,1.71,28.87,3.47,43.23,4.52,1.8.13,3.61.2,5.37.2,36.79,0,58.11-28.74,78.71-56.52,20.36-27.45,39.59-53.38,72.43-53.38v-2m.01,0c-68.35-.01-80.24,109.9-151.16,109.9-1.71,0-3.44-.06-5.22-.19-37.07-2.72-74.78-10.01-111.31-10.01-11.89,0-23.64.77-35.21,2.73-70.45,11.79-115.61,36.69-136.62,134.08-30.28,141.92-275.29,208.54-81.66,404.24,25.97,19.1,48.41,24.8,69.79,24.8,31.75,0,61.15-12.58,96.3-12.58,4.41,0,8.9.2,13.51.64,35.32,3.41,63.21,29.87,100.83,29.87,6.71,0,13.73-.84,21.16-2.81,56.45-14.98,85.97-65.65,125.25-88.78,52.56-30.84,113.13-47.29,189.86-47.29,3.72,0,7.47.04,11.26.12,13.29.27,27.21,5.84,40.31,7.91,9.14,1.44,18.19,2.16,27.06,2.16,43.82,0,83.5-17.46,110.73-50.79,32.62-46.59,24.33-118.97,2.48-159.32-12.35-22.81-20.21-40.1-39.14-64.7-23.08-29.9-53.89-68.28-87.54-109.12-56.43-68.54-27.55-106-106.15-152.55-21.73-12.98-39.51-18.3-54.54-18.31h0Z"/>
      <path class="cls-1" d="m684.54,48.58h.01c16.47,0,34.98,6.59,56.59,20.13,20.69,12.97,34.98,25.84,44.96,40.49,8.98,13.19,13.69,26.71,18.67,41.03,7.32,21.03,15.62,44.86,39.35,74.14,36.45,44.93,65.41,82.03,86.07,110.26,15.3,21,23.03,37.03,31.98,55.58,1.8,3.74,3.67,7.61,5.65,11.62,10.59,21.48,16.8,49.44,17.02,76.71.18,22-3.47,53.75-21.87,80.12-26.12,31.94-64.62,49.53-108.41,49.53-8.45,0-17.12-.66-25.78-1.97-5.02-.76-10.07-2-15.42-3.32-8.09-1.99-16.45-4.06-24.62-4.27-5.65-.15-11.29-.22-16.78-.22-37.42,0-70.59,3.34-101.4,10.22-31.01,6.92-58.85,17.25-85.1,31.56-15.76,8.63-29.77,21.49-44.6,35.11-22.75,20.89-46.27,42.49-79.3,52.02-7.77,2.23-15.33,3.32-23.11,3.32-18.44,0-35.02-6.35-51.05-12.48-14.3-5.48-29.1-11.14-45.19-12.32-3.49-.26-7.08-.39-10.67-.39-17.86,0-34.33,3.15-50.26,6.19-15.26,2.92-29.68,5.67-44.68,5.67-25.56,0-48.42-8.63-71.94-27.15-129.03-128.58-63.99-200.18,4.85-276,35.61-39.22,72.43-79.77,82.63-129.45,19.9-95.65,62.65-121.32,129.76-133.34,11.14-2.02,23.01-2.99,36.28-2.99,22.31,0,45.56,2.84,68.04,5.59,13.9,1.7,28.27,3.46,42.36,4.54,1.89.15,3.78.22,5.62.22,36.77,0,57.97-28.85,78.47-56.75,20.19-27.47,39.26-53.42,71.86-53.42m.01-2c-67.94-.01-79.56,110.16-150.34,110.16-1.79,0-3.6-.07-5.46-.21-36.9-2.84-74.34-10.14-110.55-10.14-12.38,0-24.61.85-36.64,3.03-69.43,12.44-111.56,39.75-131.36,134.9-29.58,144.04-284.91,210.07-86.85,407.36,27.18,21.43,50.72,27.65,73.27,27.65,31.16,0,60.46-11.87,94.93-11.87,3.45,0,6.96.12,10.52.38,33.79,2.48,61.04,24.8,96.39,24.8,7.48,0,15.32-1,23.67-3.4,55.21-15.93,84.81-65.69,124.31-87.3,51.81-28.26,111.87-41.54,185.53-41.54,5.5,0,11.07.07,16.73.22,13.14.34,26.86,5.61,39.79,7.57,8.81,1.33,17.53,1.99,26.08,1.99,43.53,0,82.9-17.14,110.01-50.33,32.33-46.26,25.38-117.68,5.04-158.92-11.68-23.68-19.26-42.05-37.8-67.49-22.43-30.65-52.83-69.29-86.14-110.35-56.11-69.19-24.81-106.77-103.48-156.09-23.18-14.53-41.93-20.43-57.65-20.44h0Z"/>
      <path class="cls-1" d="m686.35,43.54h0c17.2,0,36.69,7.36,59.59,22.49,44.95,29.46,52.86,54.52,62.03,83.53,6.79,21.48,14.48,45.83,38.32,75.68,37.49,46.92,65.18,83.38,84.65,111.46,15.25,22.07,22.73,39.14,31.4,58.9,1.57,3.57,3.19,7.27,4.89,11.06,9.84,21.98,15.35,50.05,15.11,77-.19,21.82-4.25,53.32-22.48,79.51-25.88,31.64-64.14,49.07-107.72,49.07-8.12,0-16.46-.61-24.79-1.81-5.01-.72-10.07-1.92-15.41-3.19-7.9-1.87-16.08-3.81-24.08-4.06-8.31-.26-16.52-.4-24.4-.4-36.28,0-68.06,2.75-97.16,8.41-30.64,5.95-57.72,15-82.81,27.67-16.61,8.41-31.3,21.61-46.85,35.58-22.08,19.83-44.9,40.33-76.2,50.13-8.69,2.71-17.2,4.03-26,4.03-16.96,0-32.53-5.05-47.59-9.93-13.91-4.51-28.29-9.17-43.83-9.94-2.41-.12-4.89-.18-7.36-.18-17.56,0-33.88,3-49.66,5.91-15.16,2.79-29.47,5.43-44.29,5.43-27.36,0-50.59-9.28-75.3-30.09-131.19-128.89-64.22-200.54,6.68-276.41,37.31-39.93,75.9-81.22,85.98-132.2,9.03-45.12,22.95-75.87,43.82-96.77,18.73-18.76,43.62-30.29,80.7-37.38,11.51-2.22,23.81-3.3,37.61-3.3,22.33,0,45.64,2.9,68.18,5.7,13.62,1.69,27.71,3.44,41.53,4.56,1.96.16,3.93.24,5.84.24,36.77,0,57.92-29.05,78.38-57.15,20.04-27.52,38.97-53.52,71.23-53.52m0-2c-67.37,0-78.95,110.67-149.61,110.67-1.86,0-3.74-.08-5.68-.23-36.75-2.96-73.94-10.26-109.88-10.27-12.85,0-25.53.93-37.99,3.33-68.41,13.08-107.52,42.82-126.11,135.72-28.89,146.16-294.53,211.59-92.04,410.48,28.32,23.87,52.93,30.61,76.64,30.61,30.76,0,60.02-11.34,93.95-11.34,2.4,0,4.81.06,7.26.18,32.09,1.58,58.56,19.87,91.52,19.87,8.38,0,17.18-1.18,26.6-4.12,53.97-16.89,83.65-65.72,123.36-85.83,50.5-25.49,109.24-35.85,179.07-35.86,7.97,0,16.08.13,24.34.4,13,.41,26.51,5.39,39.27,7.23,8.47,1.22,16.85,1.83,25.08,1.83,43.25,0,82.32-16.81,109.32-49.86,32.03-45.94,26.46-116.4,7.6-158.53-10.99-24.56-18.31-44-36.47-70.28-21.77-31.4-51.76-70.31-84.73-111.57-55.78-69.84-21.85-107.87-100.81-159.63-24.63-16.27-44.31-22.81-60.69-22.81h0Z"/>
      <path class="cls-1" d="m688.23,36.54v2c17.91,0,38.36,8.11,62.53,24.79,44.76,30.75,52.03,56.18,60.44,85.63,6.26,21.9,13.35,46.73,37.27,77.13,38.12,48.45,64.57,84.25,83.22,112.65,15.38,23.47,22.67,41.84,31.12,63.12,1.25,3.14,2.51,6.33,3.84,9.61,9.11,22.43,13.93,50.59,13.22,77.27-.83,31.02-8.82,58.31-23.13,78.9-13,15.89-28.99,28.14-47.52,36.43-18.09,8.08-38.12,12.18-59.54,12.18-7.78,0-15.78-.55-23.78-1.65-5.02-.69-10.08-1.84-15.43-3.05-7.71-1.75-15.69-3.56-23.51-3.86-12.3-.46-24.17-.7-35.28-.7-71.38,0-125.46,9.69-170.19,30.48-17.51,8.16-32.91,21.71-49.21,36.05-21.35,18.79-43.43,38.22-73,48.22-9.77,3.3-19.41,4.9-29.48,4.9-15.35,0-29.77-3.81-43.71-7.5-13.46-3.56-27.37-7.24-42.3-7.6-1.23-.03-2.5-.05-3.75-.05-17.33,0-33.55,2.91-49.23,5.71-15.13,2.71-29.41,5.27-44.15,5.27-28.8,0-53.02-10.22-78.53-33.15-32.23-31.24-53.61-59.84-65.36-87.44-10.43-24.51-12.98-47.73-7.8-70.99,9.7-43.55,44.66-79.93,81.66-118.45,39.03-40.63,79.39-82.64,89.33-134.88,8.55-44.58,21.63-75.13,41.17-96.14,18.18-19.55,42.28-31.52,78.12-38.82,11.86-2.43,24.57-3.61,38.86-3.61,22.36,0,45.74,2.96,68.35,5.82,13.36,1.69,27.17,3.44,40.75,4.58,2.04.17,4.08.26,6.07.26,36.78,0,57.86-29.23,78.25-57.49,19.9-27.58,38.69-53.64,70.71-53.64v-2m.01,0c-66.97-.01-78.38,111.13-148.97,111.13-1.93,0-3.89-.08-5.9-.25-36.63-3.08-73.6-10.4-109.27-10.4-13.29,0-26.41,1.02-39.26,3.65-67.4,13.73-103.47,45.88-120.85,136.54-28.2,148.27-304.15,213.11-97.23,413.6,29.37,26.4,55.04,33.68,79.9,33.68,30.54,0,59.86-10.98,93.38-10.98,1.23,0,2.46.01,3.7.05,30.18.74,55.64,15.1,86.06,15.1,9.46,0,19.4-1.39,30.12-5.01,52.72-17.84,82.49-65.75,122.41-84.35,48.3-22.46,104.5-30.3,169.35-30.3,11.46,0,23.19.24,35.2.7,12.85.48,26.16,5.17,38.75,6.89,8.12,1.11,16.16,1.67,24.05,1.67,42.98,0,81.75-16.48,108.65-49.4,31.73-45.62,27.62-115.15,10.17-158.13-10.26-25.45-17.36-45.95-35.13-73.07-21.11-32.15-50.69-71.32-83.32-112.79-55.45-70.49-19-108.8-98.15-163.18-26.05-17.97-46.64-25.14-63.65-25.15h0Z"/>
      <path class="cls-1" d="m690.18,33.51h0c18.56,0,39.94,8.88,65.37,27.15,44.62,32.05,51.24,57.88,58.91,87.8,5.72,22.31,12.2,47.59,36.16,78.53,38.04,49.1,64.03,85.28,81.8,113.85,15.34,24.66,22.36,44.21,30.49,66.84,1.02,2.84,2.05,5.72,3.12,8.66,8.34,22.92,12.45,51.19,11.29,77.56-1.36,30.76-9.56,57.83-23.74,78.29-12.93,15.8-28.83,27.96-47.26,36.15-17.92,7.96-37.83,12-59.16,12-7.43,0-15.08-.5-22.74-1.49-5.04-.65-10.11-1.75-15.48-2.92-7.51-1.63-15.28-3.32-22.91-3.65-18.79-.82-35.35-1.22-50.63-1.22-31.66,0-58.79,1.75-82.93,5.34-27.47,4.09-51.35,10.56-73,19.78-18.46,7.86-34.59,21.79-51.67,36.54-20.58,17.77-41.86,36.14-69.69,46.3-11.05,4.03-22.11,6-33.8,6-13.57,0-26.61-2.65-39.21-5.22-12.89-2.62-26.23-5.34-40.42-5.34h-.07s-.06,0-.06,0c-17.09.02-33.22,2.86-48.82,5.61-15.18,2.67-29.52,5.2-44.27,5.2-30.2,0-55.38-11.19-81.63-36.3-50.97-48.74-76.04-92.36-76.64-133.37-.36-25.04,8.01-49.05,26.34-75.57,16.3-23.57,37.83-45.38,60.62-68.48,40.76-41.3,82.9-84.01,92.69-137.51,8.06-44.09,20.3-74.44,38.51-95.5,17.35-20.07,41.35-32.87,75.53-40.27,12.18-2.64,25.28-3.92,40.04-3.92,22.4,0,45.86,3.02,68.54,5.93,13.11,1.69,26.67,3.43,40.02,4.6,2.12.19,4.24.28,6.29.28,36.8,0,57.82-29.41,78.15-57.85,19.77-27.66,38.44-53.78,70.23-53.78m0-2c-66.61,0-77.85,111.64-148.39,111.64-1.99,0-4.03-.09-6.12-.27-36.52-3.2-73.3-10.54-108.74-10.54-13.72,0-27.24,1.1-40.47,3.97-66.38,14.38-99.42,48.94-115.59,137.37-27.5,150.39-313.77,214.64-102.42,416.73,30.34,29.01,57.04,36.85,83.01,36.85,30.45,0,59.91-10.77,93.09-10.81h.13c27.9,0,52.01,10.56,79.63,10.56,10.81,0,22.16-1.62,34.48-6.12,51.48-18.79,81.33-65.78,121.46-82.88,44.85-19.1,96.81-24.96,155.15-24.96,16.35,0,33.2.46,50.54,1.22,12.7.55,25.81,4.94,38.23,6.55,7.77,1,15.45,1.51,22.99,1.51,42.72,0,81.21-16.15,108.02-48.94,31.44-45.29,28.69-113.87,12.73-157.74-9.58-26.32-16.41-47.9-33.8-75.86-20.45-32.89-49.62-72.34-81.91-114.01-55.12-71.15-16.15-109.74-95.48-166.72-27.45-19.72-48.93-27.52-66.54-27.52h0Z"/>
      <path class="cls-1" d="m692.3,26.34v2c19.2,0,41.47,9.7,68.08,29.63,44.66,33.37,50.61,59.64,57.5,90.05,5.14,22.69,10.96,48.41,34.92,79.82,37.62,49.3,63.16,85.85,80.37,115.04,15.54,26.38,22.37,47.55,30.28,72.05.66,2.05,1.33,4.11,2.01,6.2,7.74,23.81,11.08,51.49,9.43,77.95-1.91,30.4-10.35,57.22-24.41,77.56-12.86,15.71-28.68,27.78-47.01,35.88-17.76,7.84-37.55,11.82-58.81,11.82-7.07,0-14.36-.45-21.65-1.34-5.07-.62-10.17-1.67-15.57-2.79-7.3-1.51-14.85-3.07-22.28-3.44-19.71-.98-45.52-2.11-70.41-2.11-58.91,0-101.24,6.21-137.25,20.12-19.43,7.54-36.34,21.87-54.24,37.04-19.77,16.76-40.22,34.09-66.29,44.37-12.82,5.04-25.35,7.39-39.44,7.39-11.47,0-22.72-1.6-33.61-3.14-11.2-1.59-22.78-3.23-34.9-3.23-1.23,0-2.47.02-3.68.05-15.21.41-29.77,2.83-43.86,5.17-15.12,2.51-29.41,4.88-44.1,4.88-31.9,0-58.36-11.97-85.82-38.81-51.24-50.16-76.17-94.66-76.2-136.05-.02-25.07,8.69-48.96,27.41-75.19,16.64-23.31,38.5-44.79,61.64-67.52,42.22-41.48,85.88-84.37,95.34-139.31,7.61-43.69,19.01-73.84,35.87-94.9,16.71-20.88,39.89-34.12,72.94-41.68,12.48-2.87,25.95-4.26,41.18-4.26,22.42,0,45.94,3.08,68.68,6.06,12.9,1.69,26.25,3.44,39.39,4.64,2.19.2,4.38.3,6.51.3,36.85,0,57.86-29.64,78.19-58.31,19.67-27.75,38.25-53.96,69.78-53.96v-2m.01,0c-66.19-.02-77.47,112.27-147.99,112.27-2.06,0-4.17-.1-6.33-.29-36.43-3.32-73.03-10.71-108.25-10.71-14.13,0-28.04,1.19-41.63,4.31-65.4,14.95-95.31,52-110.33,138.19-26.32,152.79-320.41,211.54-107.62,419.85,31.89,31.18,59.92,39.38,87.22,39.38,28.92,0,57.02-9.21,88.01-10.05,1.21-.03,2.42-.05,3.62-.05,23.84,0,45.17,6.37,68.51,6.37,12.57,0,25.72-1.85,40.17-7.53,50.18-19.78,80.21-65.77,120.52-81.4,40.12-15.51,86.06-19.99,136.52-19.99,22.57,0,46.05.9,70.31,2.1,12.55.62,25.46,4.72,37.71,6.21,7.4.9,14.71,1.35,21.89,1.35,42.48,0,80.7-15.8,107.42-48.49,31.14-44.97,29.93-112.3,15.29-157.34-8.79-27.06-15.51-49.86-32.46-78.65-19.85-33.65-48.55-73.36-80.51-115.24-54.78-71.81-13.06-110.68-92.82-170.26-28.79-21.56-51.1-30.02-69.27-30.03h0Z"/>
      <path class="cls-1" d="m694.49,23.14c19.79,0,42.91,10.52,70.7,32.15,20.46,15.87,34,31.06,42.61,47.82,7.66,14.92,10.51,29.31,13.52,44.55,4.77,24.18,9.71,49.19,33.65,81.06,37.19,49.48,62.28,86.42,78.95,116.23,15.82,28.36,22.43,51.37,30.09,78.02l.86,3.01c13.13,45.57,12.8,111.22-17.53,155.19-25.31,30.91-61.7,47.24-105.27,47.24-6.7,0-13.61-.4-20.53-1.19-5.12-.58-10.26-1.59-15.7-2.66-7.07-1.39-14.39-2.82-21.59-3.22l-.44-.02c-32.28-1.81-62.77-3.52-92.15-3.52-48.52,0-85.43,4.98-116.16,15.67-20.47,7.16-38.19,21.94-56.95,37.59-18.9,15.76-38.44,32.06-62.74,42.38-15.09,6.39-29.73,9.24-47.47,9.24-8.76,0-17.54-.69-26.04-1.37-8.75-.69-17.8-1.41-27.08-1.41-3.12,0-6.18.08-9.1.24-13.2.72-26.03,2.76-38.43,4.73-15.19,2.42-29.55,4.7-44.32,4.7-33.61,0-61.39-12.79-90.08-41.46-51.51-51.58-76.29-96.96-75.77-138.73.31-25.11,9.36-48.9,28.48-74.86,16.99-23.08,39.19-44.23,62.69-66.62,43.68-41.61,88.84-84.64,97.97-141.01,7.17-43.36,17.72-73.32,33.22-94.31,16.02-21.69,38.37-35.38,70.35-43.09,12.76-3.1,26.58-4.6,42.25-4.6,22.44,0,46.03,3.15,68.83,6.2,12.71,1.7,25.85,3.45,38.81,4.68,2.27.21,4.53.32,6.73.32,36.9,0,57.92-29.88,78.25-58.78,19.6-27.85,38.1-54.16,69.4-54.16m0-2c-65.8,0-77.15,112.94-147.65,112.94-2.13,0-4.3-.1-6.54-.31-36.36-3.44-72.81-10.88-107.83-10.88-14.52,0-28.8,1.28-42.72,4.66-64.42,15.52-91.19,55.05-105.07,139.01-25.13,155.2-327.04,208.44-112.81,422.97,33.45,33.44,62.86,42.05,91.49,42.05s54.02-7.86,82.86-9.43c3.03-.17,6.03-.24,8.99-.24,18.29,0,35.32,2.77,53.12,2.77,15.12,0,30.78-2,48.25-9.4,48.88-20.76,79.1-65.76,119.57-79.93,34.52-12.01,73.46-15.56,115.5-15.56,29.45,0,60.43,1.74,92.48,3.54,12.4.69,25.11,4.49,37.18,5.87,7.01.8,13.94,1.2,20.76,1.2,42.25,0,80.22-15.45,106.86-48.04,30.84-44.65,31.17-110.74,17.85-156.94-8-27.79-14.6-51.81-31.13-81.44-19.24-34.41-47.48-74.39-79.1-116.46-54.45-72.48-9.97-111.63-90.15-173.81-30.11-23.44-53.22-32.57-71.93-32.57h0Z"/>
      <path class="cls-1" d="m696.73,17.9h0c20.37,0,44.33,11.35,73.27,34.7,20.5,16.48,33.93,32.16,42.27,49.37,7.41,15.29,9.89,29.9,12.51,45.36,4.16,24.56,8.46,49.95,32.35,82.25,36.76,49.66,61.39,86.97,77.53,117.43,16.19,30.64,22.71,56.46,29.62,83.79,6.28,24.82,8.3,52.77,5.69,78.72-2.98,29.64-11.89,55.96-25.77,76.13-25.07,30.61-61.29,46.79-104.75,46.79-6.32,0-12.83-.35-19.37-1.04-5.18-.55-10.39-1.51-15.91-2.53-6.82-1.26-13.88-2.57-20.84-3-8.08-.5-16.22-1.04-24.09-1.57-31.54-2.09-61.34-4.07-90.09-4.07-39.12,0-69.52,3.78-95.67,11.89-21.57,6.74-40.15,22.03-59.82,38.21-17.95,14.77-36.52,30.04-59.03,40.33-21.59,9.84-40.51,11.86-62.27,11.86-4.1,0-8.28-.07-12.33-.13-4.12-.07-8.38-.13-12.63-.13-7.87,0-14.39.24-20.53.76-11.06.91-21.93,2.61-32.45,4.25-15.45,2.41-30.04,4.68-45.08,4.68-23.76,0-55.95-5.03-94.35-44.25-51.77-52.99-76.42-99.25-75.34-141.42.64-25.17,10.03-48.87,29.55-74.59,17.35-22.86,39.9-43.71,63.78-65.77,45.12-41.71,91.78-84.84,100.56-142.61,6.81-43.7,16.23-72.6,30.57-93.71,15.28-22.5,36.81-36.64,67.76-44.49,13.03-3.33,27.18-4.95,43.26-4.95,22.47,0,46.13,3.22,69.01,6.33,12.52,1.7,25.47,3.47,38.26,4.72,2.34.23,4.67.34,6.94.34,36.97,0,57.99-30.13,78.33-59.27,19.52-27.97,37.96-54.38,69.04-54.38m0-2c-65.48-.01-76.84,113.65-147.38,113.65-2.19,0-4.43-.11-6.74-.34-36.31-3.55-72.63-11.06-107.46-11.06-14.9,0-29.52,1.37-43.76,5.01-63.44,16.1-87.08,58.11-99.81,139.84-23.95,157.6-333.67,205.34-118,426.09,35.02,35.77,65.82,44.85,95.78,44.85,25.8,0,50.97-6.73,77.7-8.94,6.96-.59,13.72-.75,20.36-.75,8.43,0,16.68.26,24.96.26,19.97,0,40.06-1.54,63.1-12.04,47.57-21.74,77.99-65.75,118.62-78.45,28.88-8.96,60.91-11.8,95.07-11.8,36.05,0,74.47,3.16,114.06,5.63,12.25.76,24.75,4.27,36.66,5.53,6.61.7,13.15,1.05,19.58,1.05,42.04,0,79.76-15.09,106.35-47.59,30.55-44.32,32.4-109.18,20.41-156.55-7.21-28.53-13.7-53.77-29.79-84.23-18.63-35.17-46.41-75.42-77.69-117.68-54.11-73.15-6.88-112.57-87.48-177.35-31.41-25.34-55.3-35.14-74.53-35.15h0Z"/>
      <path class="cls-1" d="m699.02,10.63v2c20.94,0,45.73,12.2,75.81,37.29,20.55,17.09,33.88,33.27,41.95,50.94,7.17,15.68,9.27,30.51,11.5,46.2,3.54,24.92,7.2,50.68,31.03,83.4,36.32,49.83,60.5,87.52,76.11,118.62,15.34,30.64,21.64,56.26,28.29,86.56,5.55,25.27,6.91,53.37,3.82,79.11-3.51,29.24-12.65,55.32-26.45,75.41-24.84,30.32-60.9,46.35-104.28,46.35-5.92,0-12.03-.3-18.16-.9-5.28-.52-10.58-1.44-16.2-2.42-6.55-1.14-13.31-2.32-20-2.78-13.85-.95-27.77-2.1-41.24-3.21-32.32-2.67-62.86-5.19-92.23-5.19-30.51,0-55.84,2.87-77.46,8.78-22.76,6.27-42.24,22.12-62.87,38.91-16.93,13.78-34.44,28.03-55.15,38.19-27.86,13.65-51.58,14.76-76.69,15.95-9.38.44-19.09.9-29.14,2.04-8.72.98-17.41,2.35-25.81,3.67-15.95,2.51-31.02,4.89-46.59,4.89-24.84,0-58.48-5.36-98.54-47.16-52.04-54.4-76.55-101.54-74.92-144.1.96-25.23,10.7-48.86,30.63-74.35,17.72-22.66,40.63-43.21,64.88-64.97,46.56-41.77,94.71-84.97,103.13-144.11,6.34-43.54,14.95-72.26,27.92-93.12,14.49-23.31,35.2-37.89,65.18-45.89,13.28-3.57,27.74-5.3,44.22-5.3,22.5,0,45.19,3.14,69.2,6.47,12.35,1.71,25.13,3.48,37.75,4.76,2.41.24,4.81.37,7.14.37,37.04,0,58.08-30.38,78.42-59.76,19.46-28.09,37.83-54.63,68.73-54.63v-2m.01,0c-65.2-.02-76.58,114.39-147.17,114.39-2.25,0-4.56-.12-6.94-.36-36.27-3.67-72.48-11.24-107.15-11.24-15.25,0-30.21,1.46-44.74,5.37-62.46,16.67-82.97,61.16-94.55,140.66-22.77,160.01-340.3,202.24-123.19,429.21,36.55,38.15,68.74,47.78,99.98,47.78,24.24,0,47.91-5.8,72.62-8.57,36.55-4.15,67.63.85,106.48-18.18,46.27-22.72,76.88-65.75,117.67-76.98,23.71-6.48,49.59-8.71,76.93-8.71,41.85,0,87.13,5.22,133.33,8.4,12.1.83,24.4,4.05,36.14,5.19,6.19.6,12.33.91,18.36.91,41.85,0,79.35-14.73,105.88-47.15,30.25-44,33.64-107.62,22.98-156.15-6.42-29.27-12.79-55.73-28.46-87.02-18.03-35.92-45.33-76.44-76.28-118.9-53.77-73.82-3.79-113.51-84.82-180.9-32.69-27.28-57.35-37.75-77.07-37.76h0Z"/>
      <path class="cls-1" d="m701.37,7.33h.01c21.47,0,47.07,13.06,78.27,39.91,45.12,38.77,48.53,68.31,52.15,99.59,2.92,25.27,5.94,51.39,29.68,84.5,35.88,49.99,59.61,88.06,74.69,119.82,15.58,32.86,21.65,61,26.97,89.33,8.37,44.55,6.16,108.44-25.17,154.18-12.63,15.41-28.18,27.14-46.22,34.86-17.16,7.34-36.55,11.06-57.65,11.06-5.5,0-11.19-.26-16.9-.76-5.42-.48-10.86-1.37-16.62-2.31-6.23-1.02-12.66-2.06-19.03-2.54-18.16-1.37-36.48-3.25-54.2-5.07-33.68-3.46-65.48-6.72-95.92-6.72-23.81,0-44.06,2.06-61.91,6.29-24.03,5.73-44.47,22.24-66.11,39.72-15.83,12.78-32.19,26-51.08,35.96-28.91,15.21-53.95,17.93-80.47,20.8-7.57.82-15.4,1.67-23.43,2.82-6.16.88-12.36,1.91-18.36,2.9-16.78,2.78-32.64,5.4-49.08,5.4-38.35,0-69.98-15.48-102.55-50.19-52.31-55.81-76.68-103.82-74.5-146.78,1.28-25.31,11.36-48.88,31.72-74.16,18.09-22.48,41.37-42.75,66.02-64.21,48-41.8,97.63-85.03,105.67-145.54,5.96-44.09,13.51-71.77,25.26-92.53,13.65-24.12,33.54-39.15,62.59-47.29,13.51-3.8,28.27-5.65,45.13-5.65,22.54,0,45.31,3.21,69.41,6.61,12.19,1.72,24.8,3.5,37.27,4.8,2.48.26,4.95.39,7.34.39,37.11,0,58.17-30.64,78.53-60.26,19.4-28.23,37.73-54.9,68.46-54.9m.01-2c-64.94-.01-76.36,115.16-147,115.16-2.32,0-4.69-.12-7.14-.38-36.24-3.78-72.36-11.42-106.89-11.42-15.59,0-30.86,1.56-45.68,5.73-61.48,17.25-78.86,64.22-89.3,141.48-21.58,162.41-346.94,199.14-128.38,432.33,38.02,40.52,71.57,50.82,104.01,50.82,22.74,0,44.93-5.06,67.72-8.32,35.97-5.18,66.94-4.05,104.54-23.83,44.97-23.7,75.77-65.74,116.72-75.5,19.18-4.55,39.81-6.24,61.45-6.24,46.76,0,98.22,7.88,149.96,11.79,11.96.9,24.05,3.82,35.62,4.85,5.76.51,11.46.77,17.08.77,41.69,0,78.98-14.35,105.47-46.71,29.95-43.68,34.88-106.05,25.54-155.75-5.63-30-11.89-57.68-27.12-89.81-17.42-36.68-44.26-77.47-74.87-120.13-53.44-74.49-.7-114.46-82.15-184.44-33.96-29.24-59.36-40.39-79.57-40.4h0Z"/>
      <path class="cls-1" d="m703.77,2c22,0,48.39,13.92,80.7,42.56,45.29,40.15,47.99,70.23,50.85,102.09,2.3,25.61,4.68,52.08,28.33,85.56,35.92,50.84,58.52,88.16,73.27,121.02,14.22,31.66,20.53,59.71,25.64,92.09,4.17,26.45,4.2,54.07.08,79.87-4.6,28.81-13.96,53.7-27.81,73.98-12.59,15.35-28.09,27-46.08,34.62-17.01,7.21-36.34,10.86-57.44,10.86-5.07,0-10.31-.21-15.57-.64-5.62-.45-11.25-1.31-17.22-2.21-5.84-.89-11.89-1.81-17.87-2.3-21.45-1.76-43.25-4.49-64.33-7.14-35.2-4.41-68.45-8.58-100.03-8.58h0c-18.33,0-34.27,1.42-48.75,4.34-25.4,5.13-46.84,22.38-69.54,40.65-14.63,11.78-29.76,23.95-46.82,33.59-31,17.52-58.42,22.03-87.46,26.82-4.71.78-9.59,1.58-14.5,2.44-3.3.58-6.6,1.18-9.89,1.78-17.24,3.13-35.07,6.37-52.85,6.37s-35.02-3.51-50.85-10.74c-18.89-8.62-37.03-22.55-55.44-42.59-52.58-57.22-76.81-106.11-74.08-149.46,1.6-25.4,12.02-48.92,32.81-74.01,18.47-22.3,42.13-42.31,67.18-63.5,49.42-41.8,100.53-85.02,108.18-146.89,4.05-32.75,9.6-66.56,22.61-91.94,12.77-24.92,31.84-40.4,60.01-48.69,13.73-4.04,28.78-6.01,46-6.01,22.59,0,45.44,3.28,69.63,6.75,12.05,1.73,24.5,3.52,36.83,4.84,2.55.27,5.08.41,7.54.41,37.2,0,58.28-30.9,78.66-60.78,19.36-28.38,37.64-55.18,68.23-55.18M703.77,0c-64.73,0-76.16,115.96-146.89,115.96-2.38,0-4.81-.13-7.33-.4-36.23-3.9-72.27-11.6-106.67-11.6-15.92,0-31.49,1.65-46.57,6.09-60.5,17.82-74.75,67.27-84.04,142.31-20.4,164.82-353.57,196.04-133.58,435.45,39.38,42.85,74.25,53.97,107.76,53.97,21.31,0,42.07-4.49,63.09-8.18,35.39-6.21,66.26-8.95,102.6-29.49,43.67-24.68,74.66-65.73,115.78-74.03,15.27-3.08,31.48-4.3,48.35-4.3,50.88,0,107.9,11.09,164.2,15.71,11.81.97,23.7,3.6,35.09,4.51,5.3.43,10.56.64,15.73.64,41.56,0,78.66-13.96,105.12-46.28,29.66-43.35,36.12-104.49,28.1-155.36-4.85-30.74-10.98-59.64-25.79-92.6-16.82-37.44-43.19-78.49-73.47-121.35-53.1-75.15,2.39-115.4-79.49-187.98C750.57,11.84,724.45,0,703.77,0h0Z"/>
    </g>
  </g>
</svg>