<?xml version="1.0" encoding="UTF-8"?>
<svg id="Layer_1" data-name="Layer 1" xmlns="http://www.w3.org/2000/svg" viewBox="0 0 1920 218">
  <defs>
    <style>
      .cls-1 {
        fill: green;
        stroke: green;
        stroke-miterlimit: 10;
        stroke-width: 10px;
      }
    </style>
  </defs>
  <g>
    <line class="cls-1" x1="35.51" y1="100" x2="35.51" y2="30.5"/>
    <line class="cls-1" x1="78.01" y1="30.5" x2="35.01" y2="30.5"/>
    <line class="cls-1" x1="78.01" y1="30.5" x2="105.51" y2="30.5"/>
    <line class="cls-1" x1="105.51" y1="30.5" x2="105.51" y2="83"/>
    <line class="cls-1" x1="82.51" y1="82.5" x2="106.01" y2="82.5"/>
    <line class="cls-1" x1="60.01" y1="50.5" x2="82.01" y2="50.5"/>
    <line class="cls-1" x1="59.51" y1="99.5" x2="59.51" y2="50"/>
    <line class="cls-1" x1="82.51" y1="83" x2="82.51" y2="50"/>
    <line class="cls-1" x1="128.51" y1="100.5" x2="59.01" y2="100.5"/>
    <line class="cls-1" x1="105.51" y1="30.5" x2="86.51" y2="30.5"/>
    <line class="cls-1" x1="105.51" y1="30.5" x2="86.51" y2="30.5"/>
    <line class="cls-1" x1="105.01" y1="30.5" x2="106.01" y2="30.5"/>
    <rect class="cls-1" x="59.01" y="99.5" width="1" height="0"/>
  </g>
  <g>
    <line class="cls-1" x1="128.51" y1="100" x2="128.51" y2="30.5"/>
    <line class="cls-1" x1="171.01" y1="30.5" x2="128.01" y2="30.5"/>
    <line class="cls-1" x1="171.01" y1="30.5" x2="198.51" y2="30.5"/>
    <line class="cls-1" x1="198.51" y1="30.5" x2="198.51" y2="83"/>
    <line class="cls-1" x1="175.51" y1="82.5" x2="199.01" y2="82.5"/>
    <line class="cls-1" x1="153.01" y1="50.5" x2="175.01" y2="50.5"/>
    <line class="cls-1" x1="152.51" y1="99.5" x2="152.51" y2="50"/>
    <line class="cls-1" x1="175.51" y1="83" x2="175.51" y2="50"/>
    <line class="cls-1" x1="221.51" y1="100.5" x2="152.01" y2="100.5"/>
    <line class="cls-1" x1="198.51" y1="30.5" x2="179.51" y2="30.5"/>
    <line class="cls-1" x1="198.51" y1="30.5" x2="179.51" y2="30.5"/>
    <line class="cls-1" x1="198.01" y1="30.5" x2="199.01" y2="30.5"/>
    <line class="cls-1" x1="128.01" y1="100.5" x2="129.01" y2="100.5"/>
    <rect class="cls-1" x="152.01" y="99.5" width="1" height="0"/>
  </g>
  <g>
    <line class="cls-1" x1="221.24" y1="100.02" x2="221.24" y2="30.52"/>
    <line class="cls-1" x1="263.74" y1="30.52" x2="220.74" y2="30.52"/>
    <line class="cls-1" x1="263.74" y1="30.52" x2="291.24" y2="30.52"/>
    <line class="cls-1" x1="291.24" y1="30.52" x2="291.24" y2="83.02"/>
    <line class="cls-1" x1="268.24" y1="82.52" x2="291.74" y2="82.52"/>
    <line class="cls-1" x1="245.74" y1="50.52" x2="267.74" y2="50.52"/>
    <line class="cls-1" x1="245.24" y1="99.52" x2="245.24" y2="50.02"/>
    <line class="cls-1" x1="268.24" y1="83.02" x2="268.24" y2="50.02"/>
    <line class="cls-1" x1="314.24" y1="100.52" x2="244.74" y2="100.52"/>
    <line class="cls-1" x1="291.24" y1="30.52" x2="272.24" y2="30.52"/>
    <line class="cls-1" x1="291.24" y1="30.52" x2="272.24" y2="30.52"/>
    <line class="cls-1" x1="290.74" y1="30.52" x2="291.74" y2="30.52"/>
    <line class="cls-1" x1="220.74" y1="100.52" x2="221.74" y2="100.52"/>
    <rect class="cls-1" x="244.74" y="99.52" width="1" height="0"/>
  </g>
  <g>
    <line class="cls-1" x1="314.24" y1="100.02" x2="314.24" y2="30.52"/>
    <line class="cls-1" x1="356.74" y1="30.52" x2="313.74" y2="30.52"/>
    <line class="cls-1" x1="356.74" y1="30.52" x2="384.24" y2="30.52"/>
    <line class="cls-1" x1="384.24" y1="30.52" x2="384.24" y2="83.02"/>
    <line class="cls-1" x1="361.24" y1="82.52" x2="384.74" y2="82.52"/>
    <line class="cls-1" x1="338.74" y1="50.52" x2="360.74" y2="50.52"/>
    <line class="cls-1" x1="338.24" y1="99.52" x2="338.24" y2="50.02"/>
    <line class="cls-1" x1="361.24" y1="83.02" x2="361.24" y2="50.02"/>
    <line class="cls-1" x1="407.24" y1="100.52" x2="337.74" y2="100.52"/>
    <line class="cls-1" x1="384.24" y1="30.52" x2="365.24" y2="30.52"/>
    <line class="cls-1" x1="384.24" y1="30.52" x2="365.24" y2="30.52"/>
    <line class="cls-1" x1="383.74" y1="30.52" x2="384.74" y2="30.52"/>
    <line class="cls-1" x1="313.74" y1="100.52" x2="314.74" y2="100.52"/>
    <rect class="cls-1" x="337.74" y="99.52" width="1" height="0"/>
  </g>
  <g>
    <line class="cls-1" x1="406.56" y1="99.49" x2="406.56" y2="29.99"/>
    <line class="cls-1" x1="449.06" y1="29.99" x2="406.06" y2="29.99"/>
    <line class="cls-1" x1="449.06" y1="29.99" x2="476.56" y2="29.99"/>
    <line class="cls-1" x1="476.56" y1="29.99" x2="476.56" y2="82.49"/>
    <line class="cls-1" x1="453.56" y1="81.99" x2="477.06" y2="81.99"/>
    <line class="cls-1" x1="431.06" y1="49.99" x2="453.06" y2="49.99"/>
    <line class="cls-1" x1="430.56" y1="98.99" x2="430.56" y2="49.49"/>
    <line class="cls-1" x1="453.56" y1="82.49" x2="453.56" y2="49.49"/>
    <line class="cls-1" x1="499.56" y1="99.99" x2="430.06" y2="99.99"/>
    <line class="cls-1" x1="476.56" y1="29.99" x2="457.56" y2="29.99"/>
    <line class="cls-1" x1="476.56" y1="29.99" x2="457.56" y2="29.99"/>
    <line class="cls-1" x1="476.06" y1="29.99" x2="477.06" y2="29.99"/>
    <line class="cls-1" x1="406.06" y1="99.99" x2="407.06" y2="99.99"/>
    <rect class="cls-1" x="430.06" y="98.99" width="1" height="0"/>
  </g>
  <g>
    <line class="cls-1" x1="499.56" y1="99.49" x2="499.56" y2="29.99"/>
    <line class="cls-1" x1="542.06" y1="29.99" x2="499.06" y2="29.99"/>
    <line class="cls-1" x1="542.06" y1="29.99" x2="569.56" y2="29.99"/>
    <line class="cls-1" x1="569.56" y1="29.99" x2="569.56" y2="82.49"/>
    <line class="cls-1" x1="546.56" y1="81.99" x2="570.06" y2="81.99"/>
    <line class="cls-1" x1="524.06" y1="49.99" x2="546.06" y2="49.99"/>
    <line class="cls-1" x1="523.56" y1="98.99" x2="523.56" y2="49.49"/>
    <line class="cls-1" x1="546.56" y1="82.49" x2="546.56" y2="49.49"/>
    <line class="cls-1" x1="592.56" y1="99.99" x2="523.06" y2="99.99"/>
    <line class="cls-1" x1="569.56" y1="29.99" x2="550.56" y2="29.99"/>
    <line class="cls-1" x1="569.56" y1="29.99" x2="550.56" y2="29.99"/>
    <line class="cls-1" x1="569.06" y1="29.99" x2="570.06" y2="29.99"/>
    <line class="cls-1" x1="499.06" y1="99.99" x2="500.06" y2="99.99"/>
    <rect class="cls-1" x="523.06" y="98.99" width="1" height="0"/>
  </g>
  <g>
    <line class="cls-1" x1="592.28" y1="99.52" x2="592.28" y2="30.02"/>
    <line class="cls-1" x1="634.78" y1="30.02" x2="591.78" y2="30.02"/>
    <line class="cls-1" x1="634.78" y1="30.02" x2="662.28" y2="30.02"/>
    <line class="cls-1" x1="662.28" y1="30.02" x2="662.28" y2="82.52"/>
    <line class="cls-1" x1="639.28" y1="82.02" x2="662.78" y2="82.02"/>
    <line class="cls-1" x1="616.78" y1="50.02" x2="638.78" y2="50.02"/>
    <line class="cls-1" x1="616.28" y1="99.02" x2="616.28" y2="49.52"/>
    <line class="cls-1" x1="639.28" y1="82.52" x2="639.28" y2="49.52"/>
    <line class="cls-1" x1="685.28" y1="100.02" x2="615.78" y2="100.02"/>
    <line class="cls-1" x1="662.28" y1="30.02" x2="643.28" y2="30.02"/>
    <line class="cls-1" x1="662.28" y1="30.02" x2="643.28" y2="30.02"/>
    <line class="cls-1" x1="661.78" y1="30.02" x2="662.78" y2="30.02"/>
    <line class="cls-1" x1="591.78" y1="100.02" x2="592.78" y2="100.02"/>
    <rect class="cls-1" x="615.78" y="99.02" width="1" height="0"/>
  </g>
  <g>
    <line class="cls-1" x1="685.28" y1="99.52" x2="685.28" y2="30.02"/>
    <line class="cls-1" x1="727.78" y1="30.02" x2="684.78" y2="30.02"/>
    <line class="cls-1" x1="727.78" y1="30.02" x2="755.28" y2="30.02"/>
    <line class="cls-1" x1="755.28" y1="30.02" x2="755.28" y2="82.52"/>
    <line class="cls-1" x1="732.28" y1="82.02" x2="755.78" y2="82.02"/>
    <line class="cls-1" x1="709.78" y1="50.02" x2="731.78" y2="50.02"/>
    <line class="cls-1" x1="709.28" y1="99.02" x2="709.28" y2="49.52"/>
    <line class="cls-1" x1="732.28" y1="82.52" x2="732.28" y2="49.52"/>
    <line class="cls-1" x1="778.28" y1="100.02" x2="708.78" y2="100.02"/>
    <line class="cls-1" x1="755.28" y1="30.02" x2="736.28" y2="30.02"/>
    <line class="cls-1" x1="755.28" y1="30.02" x2="736.28" y2="30.02"/>
    <line class="cls-1" x1="754.78" y1="30.02" x2="755.78" y2="30.02"/>
    <line class="cls-1" x1="684.78" y1="100.02" x2="685.78" y2="100.02"/>
    <rect class="cls-1" x="708.78" y="99.02" width="1" height="0"/>
  </g>
  <g>
    <line class="cls-1" x1="1519.78" y1="99.47" x2="1519.78" y2="29.97"/>
    <line class="cls-1" x1="1562.28" y1="29.97" x2="1519.28" y2="29.97"/>
    <line class="cls-1" x1="1562.28" y1="29.97" x2="1589.78" y2="29.97"/>
    <line class="cls-1" x1="1589.78" y1="29.97" x2="1589.78" y2="82.47"/>
    <line class="cls-1" x1="1566.78" y1="81.97" x2="1590.28" y2="81.97"/>
    <line class="cls-1" x1="1544.28" y1="49.97" x2="1566.28" y2="49.97"/>
    <line class="cls-1" x1="1543.78" y1="98.97" x2="1543.78" y2="49.47"/>
    <line class="cls-1" x1="1566.78" y1="82.47" x2="1566.78" y2="49.47"/>
    <line class="cls-1" x1="1612.78" y1="99.97" x2="1543.28" y2="99.97"/>
    <line class="cls-1" x1="1589.78" y1="29.97" x2="1570.78" y2="29.97"/>
    <line class="cls-1" x1="1589.78" y1="29.97" x2="1570.78" y2="29.97"/>
    <line class="cls-1" x1="1589.28" y1="29.97" x2="1590.28" y2="29.97"/>
    <line class="cls-1" x1="1519.28" y1="99.97" x2="1520.28" y2="99.97"/>
    <rect class="cls-1" x="1543.28" y="98.97" width="1" height="0"/>
  </g>
  <g>
    <line class="cls-1" x1="1612.78" y1="99.47" x2="1612.78" y2="29.97"/>
    <line class="cls-1" x1="1655.28" y1="29.97" x2="1612.28" y2="29.97"/>
    <line class="cls-1" x1="1655.28" y1="29.97" x2="1682.78" y2="29.97"/>
    <line class="cls-1" x1="1682.78" y1="29.97" x2="1682.78" y2="82.47"/>
    <line class="cls-1" x1="1659.78" y1="81.97" x2="1683.28" y2="81.97"/>
    <line class="cls-1" x1="1637.28" y1="49.97" x2="1659.28" y2="49.97"/>
    <line class="cls-1" x1="1636.78" y1="98.97" x2="1636.78" y2="49.47"/>
    <line class="cls-1" x1="1659.78" y1="82.47" x2="1659.78" y2="49.47"/>
    <line class="cls-1" x1="1705.78" y1="99.97" x2="1636.28" y2="99.97"/>
    <line class="cls-1" x1="1682.78" y1="29.97" x2="1663.78" y2="29.97"/>
    <line class="cls-1" x1="1682.78" y1="29.97" x2="1663.78" y2="29.97"/>
    <line class="cls-1" x1="1682.28" y1="29.97" x2="1683.28" y2="29.97"/>
    <line class="cls-1" x1="1612.28" y1="99.97" x2="1613.28" y2="99.97"/>
    <rect class="cls-1" x="1636.28" y="98.97" width="1" height="0"/>
  </g>
  <g>
    <line class="cls-1" x1="1705.5" y1="99.5" x2="1705.5" y2="30"/>
    <line class="cls-1" x1="1748" y1="30" x2="1705" y2="30"/>
    <line class="cls-1" x1="1748" y1="30" x2="1775.5" y2="30"/>
    <line class="cls-1" x1="1775.5" y1="30" x2="1775.5" y2="82.5"/>
    <line class="cls-1" x1="1752.5" y1="82" x2="1776" y2="82"/>
    <line class="cls-1" x1="1730" y1="50" x2="1752" y2="50"/>
    <line class="cls-1" x1="1729.5" y1="99" x2="1729.5" y2="49.5"/>
    <line class="cls-1" x1="1752.5" y1="82.5" x2="1752.5" y2="49.5"/>
    <line class="cls-1" x1="1798.5" y1="100" x2="1729" y2="100"/>
    <line class="cls-1" x1="1775.5" y1="30" x2="1756.5" y2="30"/>
    <line class="cls-1" x1="1775.5" y1="30" x2="1756.5" y2="30"/>
    <line class="cls-1" x1="1775" y1="30" x2="1776" y2="30"/>
    <line class="cls-1" x1="1705" y1="100" x2="1706" y2="100"/>
    <rect class="cls-1" x="1729" y="99" width="1" height="0"/>
  </g>
  <g>
    <line class="cls-1" x1="777.78" y1="100.47" x2="777.78" y2="30.97"/>
    <line class="cls-1" x1="820.28" y1="30.97" x2="777.28" y2="30.97"/>
    <line class="cls-1" x1="820.28" y1="30.97" x2="847.78" y2="30.97"/>
    <line class="cls-1" x1="847.78" y1="30.97" x2="847.78" y2="83.47"/>
    <line class="cls-1" x1="824.78" y1="82.97" x2="848.28" y2="82.97"/>
    <line class="cls-1" x1="802.28" y1="50.97" x2="824.28" y2="50.97"/>
    <line class="cls-1" x1="801.78" y1="99.97" x2="801.78" y2="50.47"/>
    <line class="cls-1" x1="824.78" y1="83.47" x2="824.78" y2="50.47"/>
    <line class="cls-1" x1="870.78" y1="100.97" x2="801.28" y2="100.97"/>
    <line class="cls-1" x1="847.78" y1="30.97" x2="828.78" y2="30.97"/>
    <line class="cls-1" x1="847.78" y1="30.97" x2="828.78" y2="30.97"/>
    <line class="cls-1" x1="847.28" y1="30.97" x2="848.28" y2="30.97"/>
    <line class="cls-1" x1="777.28" y1="100.97" x2="778.28" y2="100.97"/>
    <rect class="cls-1" x="801.28" y="99.97" width="1" height="0"/>
  </g>
  <g>
    <line class="cls-1" x1="870.78" y1="100.47" x2="870.78" y2="30.97"/>
    <line class="cls-1" x1="913.28" y1="30.97" x2="870.28" y2="30.97"/>
    <line class="cls-1" x1="913.28" y1="30.97" x2="940.78" y2="30.97"/>
    <line class="cls-1" x1="940.78" y1="30.97" x2="940.78" y2="83.47"/>
    <line class="cls-1" x1="917.78" y1="82.97" x2="941.28" y2="82.97"/>
    <line class="cls-1" x1="895.28" y1="50.97" x2="917.28" y2="50.97"/>
    <line class="cls-1" x1="894.78" y1="99.97" x2="894.78" y2="50.47"/>
    <line class="cls-1" x1="917.78" y1="83.47" x2="917.78" y2="50.47"/>
    <line class="cls-1" x1="963.78" y1="100.97" x2="894.28" y2="100.97"/>
    <line class="cls-1" x1="940.78" y1="30.97" x2="921.78" y2="30.97"/>
    <line class="cls-1" x1="940.78" y1="30.97" x2="921.78" y2="30.97"/>
    <line class="cls-1" x1="940.28" y1="30.97" x2="941.28" y2="30.97"/>
    <line class="cls-1" x1="870.28" y1="100.97" x2="871.28" y2="100.97"/>
    <rect class="cls-1" x="894.28" y="99.97" width="1" height="0"/>
  </g>
  <g>
    <line class="cls-1" x1="963.5" y1="100.5" x2="963.5" y2="31"/>
    <line class="cls-1" x1="1006" y1="31" x2="963" y2="31"/>
    <line class="cls-1" x1="1006" y1="31" x2="1033.5" y2="31"/>
    <line class="cls-1" x1="1033.5" y1="31" x2="1033.5" y2="83.5"/>
    <line class="cls-1" x1="1010.5" y1="83" x2="1034" y2="83"/>
    <line class="cls-1" x1="988" y1="51" x2="1010" y2="51"/>
    <line class="cls-1" x1="987.5" y1="100" x2="987.5" y2="50.5"/>
    <line class="cls-1" x1="1010.5" y1="83.5" x2="1010.5" y2="50.5"/>
    <line class="cls-1" x1="1056.5" y1="101" x2="987" y2="101"/>
    <line class="cls-1" x1="1033.5" y1="31" x2="1014.5" y2="31"/>
    <line class="cls-1" x1="1033.5" y1="31" x2="1014.5" y2="31"/>
    <line class="cls-1" x1="1033" y1="31" x2="1034" y2="31"/>
    <line class="cls-1" x1="963" y1="101" x2="964" y2="101"/>
    <rect class="cls-1" x="987" y="100" width="1" height="0"/>
  </g>
  <g>
    <line class="cls-1" x1="1056.5" y1="100.5" x2="1056.5" y2="31"/>
    <line class="cls-1" x1="1099" y1="31" x2="1056" y2="31"/>
    <line class="cls-1" x1="1099" y1="31" x2="1126.5" y2="31"/>
    <line class="cls-1" x1="1126.5" y1="31" x2="1126.5" y2="83.5"/>
    <line class="cls-1" x1="1103.5" y1="83" x2="1127" y2="83"/>
    <line class="cls-1" x1="1081" y1="51" x2="1103" y2="51"/>
    <line class="cls-1" x1="1080.5" y1="100" x2="1080.5" y2="50.5"/>
    <line class="cls-1" x1="1103.5" y1="83.5" x2="1103.5" y2="50.5"/>
    <line class="cls-1" x1="1149.5" y1="101" x2="1080" y2="101"/>
    <line class="cls-1" x1="1126.5" y1="31" x2="1107.5" y2="31"/>
    <line class="cls-1" x1="1126.5" y1="31" x2="1107.5" y2="31"/>
    <line class="cls-1" x1="1126" y1="31" x2="1127" y2="31"/>
    <line class="cls-1" x1="1056" y1="101" x2="1057" y2="101"/>
    <rect class="cls-1" x="1080" y="100" width="1" height="0"/>
  </g>
  <g>
    <line class="cls-1" x1="1148.83" y1="99.96" x2="1148.83" y2="30.46"/>
    <line class="cls-1" x1="1191.33" y1="30.46" x2="1148.33" y2="30.46"/>
    <line class="cls-1" x1="1191.33" y1="30.46" x2="1218.83" y2="30.46"/>
    <line class="cls-1" x1="1218.83" y1="30.46" x2="1218.83" y2="82.96"/>
    <line class="cls-1" x1="1195.83" y1="82.46" x2="1219.33" y2="82.46"/>
    <line class="cls-1" x1="1173.33" y1="50.46" x2="1195.33" y2="50.46"/>
    <line class="cls-1" x1="1172.83" y1="99.46" x2="1172.83" y2="49.96"/>
    <line class="cls-1" x1="1195.83" y1="82.96" x2="1195.83" y2="49.96"/>
    <line class="cls-1" x1="1241.83" y1="100.46" x2="1172.33" y2="100.46"/>
    <line class="cls-1" x1="1218.83" y1="30.46" x2="1199.83" y2="30.46"/>
    <line class="cls-1" x1="1218.83" y1="30.46" x2="1199.83" y2="30.46"/>
    <line class="cls-1" x1="1218.33" y1="30.46" x2="1219.33" y2="30.46"/>
    <line class="cls-1" x1="1148.33" y1="100.46" x2="1149.33" y2="100.46"/>
    <rect class="cls-1" x="1172.33" y="99.46" width="1" height="0"/>
  </g>
  <g>
    <line class="cls-1" x1="1241.83" y1="99.96" x2="1241.83" y2="30.46"/>
    <line class="cls-1" x1="1284.33" y1="30.46" x2="1241.33" y2="30.46"/>
    <line class="cls-1" x1="1284.33" y1="30.46" x2="1311.83" y2="30.46"/>
    <line class="cls-1" x1="1311.83" y1="30.46" x2="1311.83" y2="82.96"/>
    <line class="cls-1" x1="1288.83" y1="82.46" x2="1312.33" y2="82.46"/>
    <line class="cls-1" x1="1266.33" y1="50.46" x2="1288.33" y2="50.46"/>
    <line class="cls-1" x1="1265.83" y1="99.46" x2="1265.83" y2="49.96"/>
    <line class="cls-1" x1="1288.83" y1="82.96" x2="1288.83" y2="49.96"/>
    <line class="cls-1" x1="1334.83" y1="100.46" x2="1265.33" y2="100.46"/>
    <line class="cls-1" x1="1311.83" y1="30.46" x2="1292.83" y2="30.46"/>
    <line class="cls-1" x1="1311.83" y1="30.46" x2="1292.83" y2="30.46"/>
    <line class="cls-1" x1="1311.33" y1="30.46" x2="1312.33" y2="30.46"/>
    <line class="cls-1" x1="1241.33" y1="100.46" x2="1242.33" y2="100.46"/>
    <rect class="cls-1" x="1265.33" y="99.46" width="1" height="0"/>
  </g>
  <g>
    <line class="cls-1" x1="1334.55" y1="99.99" x2="1334.55" y2="30.49"/>
    <line class="cls-1" x1="1377.05" y1="30.49" x2="1334.05" y2="30.49"/>
    <line class="cls-1" x1="1377.05" y1="30.49" x2="1404.55" y2="30.49"/>
    <line class="cls-1" x1="1404.55" y1="30.49" x2="1404.55" y2="82.99"/>
    <line class="cls-1" x1="1381.55" y1="82.49" x2="1405.05" y2="82.49"/>
    <line class="cls-1" x1="1359.05" y1="50.49" x2="1381.05" y2="50.49"/>
    <line class="cls-1" x1="1358.55" y1="99.49" x2="1358.55" y2="49.99"/>
    <line class="cls-1" x1="1381.55" y1="82.99" x2="1381.55" y2="49.99"/>
    <line class="cls-1" x1="1427.55" y1="100.49" x2="1358.05" y2="100.49"/>
    <line class="cls-1" x1="1404.55" y1="30.49" x2="1385.55" y2="30.49"/>
    <line class="cls-1" x1="1404.55" y1="30.49" x2="1385.55" y2="30.49"/>
    <line class="cls-1" x1="1404.05" y1="30.49" x2="1405.05" y2="30.49"/>
    <line class="cls-1" x1="1334.05" y1="100.49" x2="1335.05" y2="100.49"/>
    <rect class="cls-1" x="1358.05" y="99.49" width="1" height="0"/>
  </g>
  <g>
    <line class="cls-1" x1="1427.55" y1="99.99" x2="1427.55" y2="30.49"/>
    <line class="cls-1" x1="1470.05" y1="30.49" x2="1427.05" y2="30.49"/>
    <line class="cls-1" x1="1470.05" y1="30.49" x2="1497.55" y2="30.49"/>
    <line class="cls-1" x1="1497.55" y1="30.49" x2="1497.55" y2="82.99"/>
    <line class="cls-1" x1="1474.55" y1="82.49" x2="1498.05" y2="82.49"/>
    <line class="cls-1" x1="1452.05" y1="50.49" x2="1474.05" y2="50.49"/>
    <line class="cls-1" x1="1451.55" y1="99.49" x2="1451.55" y2="49.99"/>
    <line class="cls-1" x1="1474.55" y1="82.99" x2="1474.55" y2="49.99"/>
    <line class="cls-1" x1="1520.55" y1="100.49" x2="1451.05" y2="100.49"/>
    <line class="cls-1" x1="1497.55" y1="30.49" x2="1478.55" y2="30.49"/>
    <line class="cls-1" x1="1497.55" y1="30.49" x2="1478.55" y2="30.49"/>
    <line class="cls-1" x1="1497.05" y1="30.49" x2="1498.05" y2="30.49"/>
    <line class="cls-1" x1="1427.05" y1="100.49" x2="1428.05" y2="100.49"/>
    <rect class="cls-1" x="1451.05" y="99.49" width="1" height="0"/>
  </g>
  <g>
    <line class="cls-1" x1="36.57" y1="195.43" x2="36.57" y2="125.93"/>
    <line class="cls-1" x1="79.07" y1="125.93" x2="36.07" y2="125.93"/>
    <line class="cls-1" x1="79.07" y1="125.93" x2="106.57" y2="125.93"/>
    <line class="cls-1" x1="106.57" y1="125.93" x2="106.57" y2="178.43"/>
    <line class="cls-1" x1="83.57" y1="177.93" x2="107.07" y2="177.93"/>
    <line class="cls-1" x1="61.07" y1="145.93" x2="83.07" y2="145.93"/>
    <line class="cls-1" x1="60.57" y1="194.93" x2="60.57" y2="145.43"/>
    <line class="cls-1" x1="83.57" y1="178.43" x2="83.57" y2="145.43"/>
    <line class="cls-1" x1="129.57" y1="195.93" x2="60.07" y2="195.93"/>
    <line class="cls-1" x1="106.57" y1="125.93" x2="87.57" y2="125.93"/>
    <line class="cls-1" x1="106.57" y1="125.93" x2="87.57" y2="125.93"/>
    <line class="cls-1" x1="106.07" y1="125.93" x2="107.07" y2="125.93"/>
    <rect class="cls-1" x="60.07" y="194.93" width="1" height="0"/>
  </g>
  <g>
    <line class="cls-1" x1="129.57" y1="195.43" x2="129.57" y2="125.93"/>
    <line class="cls-1" x1="172.07" y1="125.93" x2="129.07" y2="125.93"/>
    <line class="cls-1" x1="172.07" y1="125.93" x2="199.57" y2="125.93"/>
    <line class="cls-1" x1="199.57" y1="125.93" x2="199.57" y2="178.43"/>
    <line class="cls-1" x1="176.57" y1="177.93" x2="200.07" y2="177.93"/>
    <line class="cls-1" x1="154.07" y1="145.93" x2="176.07" y2="145.93"/>
    <line class="cls-1" x1="153.57" y1="194.93" x2="153.57" y2="145.43"/>
    <line class="cls-1" x1="176.57" y1="178.43" x2="176.57" y2="145.43"/>
    <line class="cls-1" x1="222.57" y1="195.93" x2="153.07" y2="195.93"/>
    <line class="cls-1" x1="199.57" y1="125.93" x2="180.57" y2="125.93"/>
    <line class="cls-1" x1="199.57" y1="125.93" x2="180.57" y2="125.93"/>
    <line class="cls-1" x1="199.07" y1="125.93" x2="200.07" y2="125.93"/>
    <line class="cls-1" x1="129.07" y1="195.93" x2="130.07" y2="195.93"/>
    <rect class="cls-1" x="153.07" y="194.93" width="1" height="0"/>
  </g>
  <g>
    <line class="cls-1" x1="222.3" y1="195.46" x2="222.3" y2="125.96"/>
    <line class="cls-1" x1="264.8" y1="125.96" x2="221.8" y2="125.96"/>
    <line class="cls-1" x1="264.8" y1="125.96" x2="292.3" y2="125.96"/>
    <line class="cls-1" x1="292.3" y1="125.96" x2="292.3" y2="178.46"/>
    <line class="cls-1" x1="269.3" y1="177.96" x2="292.8" y2="177.96"/>
    <line class="cls-1" x1="246.8" y1="145.96" x2="268.8" y2="145.96"/>
    <line class="cls-1" x1="246.3" y1="194.96" x2="246.3" y2="145.46"/>
    <line class="cls-1" x1="269.3" y1="178.46" x2="269.3" y2="145.46"/>
    <line class="cls-1" x1="315.3" y1="195.96" x2="245.8" y2="195.96"/>
    <line class="cls-1" x1="292.3" y1="125.96" x2="273.3" y2="125.96"/>
    <line class="cls-1" x1="292.3" y1="125.96" x2="273.3" y2="125.96"/>
    <line class="cls-1" x1="291.8" y1="125.96" x2="292.8" y2="125.96"/>
    <line class="cls-1" x1="221.8" y1="195.96" x2="222.8" y2="195.96"/>
    <rect class="cls-1" x="245.8" y="194.96" width="1" height="0"/>
  </g>
  <g>
    <line class="cls-1" x1="315.3" y1="195.46" x2="315.3" y2="125.96"/>
    <line class="cls-1" x1="357.8" y1="125.96" x2="314.8" y2="125.96"/>
    <line class="cls-1" x1="357.8" y1="125.96" x2="385.3" y2="125.96"/>
    <line class="cls-1" x1="385.3" y1="125.96" x2="385.3" y2="178.46"/>
    <line class="cls-1" x1="362.3" y1="177.96" x2="385.8" y2="177.96"/>
    <line class="cls-1" x1="339.8" y1="145.96" x2="361.8" y2="145.96"/>
    <line class="cls-1" x1="339.3" y1="194.96" x2="339.3" y2="145.46"/>
    <line class="cls-1" x1="362.3" y1="178.46" x2="362.3" y2="145.46"/>
    <line class="cls-1" x1="408.3" y1="195.96" x2="338.8" y2="195.96"/>
    <line class="cls-1" x1="385.3" y1="125.96" x2="366.3" y2="125.96"/>
    <line class="cls-1" x1="385.3" y1="125.96" x2="366.3" y2="125.96"/>
    <line class="cls-1" x1="384.8" y1="125.96" x2="385.8" y2="125.96"/>
    <line class="cls-1" x1="314.8" y1="195.96" x2="315.8" y2="195.96"/>
    <rect class="cls-1" x="338.8" y="194.96" width="1" height="0"/>
  </g>
  <g>
    <line class="cls-1" x1="407.62" y1="194.92" x2="407.62" y2="125.42"/>
    <line class="cls-1" x1="450.12" y1="125.42" x2="407.12" y2="125.42"/>
    <line class="cls-1" x1="450.12" y1="125.42" x2="477.62" y2="125.42"/>
    <line class="cls-1" x1="477.62" y1="125.42" x2="477.62" y2="177.92"/>
    <line class="cls-1" x1="454.62" y1="177.42" x2="478.12" y2="177.42"/>
    <line class="cls-1" x1="432.12" y1="145.42" x2="454.12" y2="145.42"/>
    <line class="cls-1" x1="431.62" y1="194.42" x2="431.62" y2="144.92"/>
    <line class="cls-1" x1="454.62" y1="177.92" x2="454.62" y2="144.92"/>
    <line class="cls-1" x1="500.62" y1="195.42" x2="431.12" y2="195.42"/>
    <line class="cls-1" x1="477.62" y1="125.42" x2="458.62" y2="125.42"/>
    <line class="cls-1" x1="477.62" y1="125.42" x2="458.62" y2="125.42"/>
    <line class="cls-1" x1="477.12" y1="125.42" x2="478.12" y2="125.42"/>
    <line class="cls-1" x1="407.12" y1="195.42" x2="408.12" y2="195.42"/>
    <rect class="cls-1" x="431.12" y="194.42" width="1" height="0"/>
  </g>
  <g>
    <line class="cls-1" x1="500.62" y1="194.92" x2="500.62" y2="125.42"/>
    <line class="cls-1" x1="543.12" y1="125.42" x2="500.12" y2="125.42"/>
    <line class="cls-1" x1="543.12" y1="125.42" x2="570.62" y2="125.42"/>
    <line class="cls-1" x1="570.62" y1="125.42" x2="570.62" y2="177.92"/>
    <line class="cls-1" x1="547.62" y1="177.42" x2="571.12" y2="177.42"/>
    <line class="cls-1" x1="525.12" y1="145.42" x2="547.12" y2="145.42"/>
    <line class="cls-1" x1="524.62" y1="194.42" x2="524.62" y2="144.92"/>
    <line class="cls-1" x1="547.62" y1="177.92" x2="547.62" y2="144.92"/>
    <line class="cls-1" x1="593.62" y1="195.42" x2="524.12" y2="195.42"/>
    <line class="cls-1" x1="570.62" y1="125.42" x2="551.62" y2="125.42"/>
    <line class="cls-1" x1="570.62" y1="125.42" x2="551.62" y2="125.42"/>
    <line class="cls-1" x1="570.12" y1="125.42" x2="571.12" y2="125.42"/>
    <line class="cls-1" x1="500.12" y1="195.42" x2="501.12" y2="195.42"/>
    <rect class="cls-1" x="524.12" y="194.42" width="1" height="0"/>
  </g>
  <g>
    <line class="cls-1" x1="593.34" y1="194.95" x2="593.34" y2="125.45"/>
    <line class="cls-1" x1="635.84" y1="125.45" x2="592.84" y2="125.45"/>
    <line class="cls-1" x1="635.84" y1="125.45" x2="663.34" y2="125.45"/>
    <line class="cls-1" x1="663.34" y1="125.45" x2="663.34" y2="177.95"/>
    <line class="cls-1" x1="640.34" y1="177.45" x2="663.84" y2="177.45"/>
    <line class="cls-1" x1="617.84" y1="145.45" x2="639.84" y2="145.45"/>
    <line class="cls-1" x1="617.34" y1="194.45" x2="617.34" y2="144.95"/>
    <line class="cls-1" x1="640.34" y1="177.95" x2="640.34" y2="144.95"/>
    <line class="cls-1" x1="686.34" y1="195.45" x2="616.84" y2="195.45"/>
    <line class="cls-1" x1="663.34" y1="125.45" x2="644.34" y2="125.45"/>
    <line class="cls-1" x1="663.34" y1="125.45" x2="644.34" y2="125.45"/>
    <line class="cls-1" x1="662.84" y1="125.45" x2="663.84" y2="125.45"/>
    <line class="cls-1" x1="592.84" y1="195.45" x2="593.84" y2="195.45"/>
    <rect class="cls-1" x="616.84" y="194.45" width="1" height="0"/>
  </g>
  <g>
    <line class="cls-1" x1="686.34" y1="194.95" x2="686.34" y2="125.45"/>
    <line class="cls-1" x1="728.84" y1="125.45" x2="685.84" y2="125.45"/>
    <line class="cls-1" x1="728.84" y1="125.45" x2="756.34" y2="125.45"/>
    <line class="cls-1" x1="756.34" y1="125.45" x2="756.34" y2="177.95"/>
    <line class="cls-1" x1="733.34" y1="177.45" x2="756.84" y2="177.45"/>
    <line class="cls-1" x1="710.84" y1="145.45" x2="732.84" y2="145.45"/>
    <line class="cls-1" x1="710.34" y1="194.45" x2="710.34" y2="144.95"/>
    <line class="cls-1" x1="733.34" y1="177.95" x2="733.34" y2="144.95"/>
    <line class="cls-1" x1="779.34" y1="195.45" x2="709.84" y2="195.45"/>
    <line class="cls-1" x1="756.34" y1="125.45" x2="737.34" y2="125.45"/>
    <line class="cls-1" x1="756.34" y1="125.45" x2="737.34" y2="125.45"/>
    <line class="cls-1" x1="755.84" y1="125.45" x2="756.84" y2="125.45"/>
    <line class="cls-1" x1="685.84" y1="195.45" x2="686.84" y2="195.45"/>
    <rect class="cls-1" x="709.84" y="194.45" width="1" height="0"/>
  </g>
  <g>
    <line class="cls-1" x1="1520.84" y1="194.9" x2="1520.84" y2="125.4"/>
    <line class="cls-1" x1="1563.34" y1="125.4" x2="1520.34" y2="125.4"/>
    <line class="cls-1" x1="1563.34" y1="125.4" x2="1590.84" y2="125.4"/>
    <line class="cls-1" x1="1590.84" y1="125.4" x2="1590.84" y2="177.9"/>
    <line class="cls-1" x1="1567.84" y1="177.4" x2="1591.34" y2="177.4"/>
    <line class="cls-1" x1="1545.34" y1="145.4" x2="1567.34" y2="145.4"/>
    <line class="cls-1" x1="1544.84" y1="194.4" x2="1544.84" y2="144.9"/>
    <line class="cls-1" x1="1567.84" y1="177.9" x2="1567.84" y2="144.9"/>
    <line class="cls-1" x1="1613.84" y1="195.4" x2="1544.34" y2="195.4"/>
    <line class="cls-1" x1="1590.84" y1="125.4" x2="1571.84" y2="125.4"/>
    <line class="cls-1" x1="1590.84" y1="125.4" x2="1571.84" y2="125.4"/>
    <line class="cls-1" x1="1590.34" y1="125.4" x2="1591.34" y2="125.4"/>
    <line class="cls-1" x1="1520.34" y1="195.4" x2="1521.34" y2="195.4"/>
    <rect class="cls-1" x="1544.34" y="194.4" width="1" height="0"/>
  </g>
  <g>
    <line class="cls-1" x1="1613.84" y1="194.9" x2="1613.84" y2="125.4"/>
    <line class="cls-1" x1="1656.34" y1="125.4" x2="1613.34" y2="125.4"/>
    <line class="cls-1" x1="1656.34" y1="125.4" x2="1683.84" y2="125.4"/>
    <line class="cls-1" x1="1683.84" y1="125.4" x2="1683.84" y2="177.9"/>
    <line class="cls-1" x1="1660.84" y1="177.4" x2="1684.34" y2="177.4"/>
    <line class="cls-1" x1="1638.34" y1="145.4" x2="1660.34" y2="145.4"/>
    <line class="cls-1" x1="1637.84" y1="194.4" x2="1637.84" y2="144.9"/>
    <line class="cls-1" x1="1660.84" y1="177.9" x2="1660.84" y2="144.9"/>
    <line class="cls-1" x1="1706.84" y1="195.4" x2="1637.34" y2="195.4"/>
    <line class="cls-1" x1="1683.84" y1="125.4" x2="1664.84" y2="125.4"/>
    <line class="cls-1" x1="1683.84" y1="125.4" x2="1664.84" y2="125.4"/>
    <line class="cls-1" x1="1683.34" y1="125.4" x2="1684.34" y2="125.4"/>
    <line class="cls-1" x1="1613.34" y1="195.4" x2="1614.34" y2="195.4"/>
    <rect class="cls-1" x="1637.34" y="194.4" width="1" height="0"/>
  </g>
  <g>
    <line class="cls-1" x1="1706.56" y1="194.93" x2="1706.56" y2="125.43"/>
    <line class="cls-1" x1="1749.06" y1="125.43" x2="1706.06" y2="125.43"/>
    <line class="cls-1" x1="1749.06" y1="125.43" x2="1776.56" y2="125.43"/>
    <line class="cls-1" x1="1776.56" y1="125.43" x2="1776.56" y2="177.93"/>
    <line class="cls-1" x1="1753.56" y1="177.43" x2="1777.06" y2="177.43"/>
    <line class="cls-1" x1="1731.06" y1="145.43" x2="1753.06" y2="145.43"/>
    <line class="cls-1" x1="1730.56" y1="194.43" x2="1730.56" y2="144.93"/>
    <line class="cls-1" x1="1753.56" y1="177.93" x2="1753.56" y2="144.93"/>
    <line class="cls-1" x1="1799.56" y1="195.43" x2="1730.06" y2="195.43"/>
    <line class="cls-1" x1="1776.56" y1="125.43" x2="1757.56" y2="125.43"/>
    <line class="cls-1" x1="1776.56" y1="125.43" x2="1757.56" y2="125.43"/>
    <line class="cls-1" x1="1776.06" y1="125.43" x2="1777.06" y2="125.43"/>
    <line class="cls-1" x1="1706.06" y1="195.43" x2="1707.06" y2="195.43"/>
    <rect class="cls-1" x="1730.06" y="194.43" width="1" height="0"/>
  </g>
  <g>
    <line class="cls-1" x1="778.84" y1="195.9" x2="778.84" y2="126.4"/>
    <line class="cls-1" x1="821.34" y1="126.4" x2="778.34" y2="126.4"/>
    <line class="cls-1" x1="821.34" y1="126.4" x2="848.84" y2="126.4"/>
    <line class="cls-1" x1="848.84" y1="126.4" x2="848.84" y2="178.9"/>
    <line class="cls-1" x1="825.84" y1="178.4" x2="849.34" y2="178.4"/>
    <line class="cls-1" x1="803.34" y1="146.4" x2="825.34" y2="146.4"/>
    <line class="cls-1" x1="802.84" y1="195.4" x2="802.84" y2="145.9"/>
    <line class="cls-1" x1="825.84" y1="178.9" x2="825.84" y2="145.9"/>
    <line class="cls-1" x1="871.84" y1="196.4" x2="802.34" y2="196.4"/>
    <line class="cls-1" x1="848.84" y1="126.4" x2="829.84" y2="126.4"/>
    <line class="cls-1" x1="848.84" y1="126.4" x2="829.84" y2="126.4"/>
    <line class="cls-1" x1="848.34" y1="126.4" x2="849.34" y2="126.4"/>
    <line class="cls-1" x1="778.34" y1="196.4" x2="779.34" y2="196.4"/>
    <rect class="cls-1" x="802.34" y="195.4" width="1" height="0"/>
  </g>
  <g>
    <line class="cls-1" x1="871.84" y1="195.9" x2="871.84" y2="126.4"/>
    <line class="cls-1" x1="914.34" y1="126.4" x2="871.34" y2="126.4"/>
    <line class="cls-1" x1="914.34" y1="126.4" x2="941.84" y2="126.4"/>
    <line class="cls-1" x1="941.84" y1="126.4" x2="941.84" y2="178.9"/>
    <line class="cls-1" x1="918.84" y1="178.4" x2="942.34" y2="178.4"/>
    <line class="cls-1" x1="896.34" y1="146.4" x2="918.34" y2="146.4"/>
    <line class="cls-1" x1="895.84" y1="195.4" x2="895.84" y2="145.9"/>
    <line class="cls-1" x1="918.84" y1="178.9" x2="918.84" y2="145.9"/>
    <line class="cls-1" x1="964.84" y1="196.4" x2="895.34" y2="196.4"/>
    <line class="cls-1" x1="941.84" y1="126.4" x2="922.84" y2="126.4"/>
    <line class="cls-1" x1="941.84" y1="126.4" x2="922.84" y2="126.4"/>
    <line class="cls-1" x1="941.34" y1="126.4" x2="942.34" y2="126.4"/>
    <line class="cls-1" x1="871.34" y1="196.4" x2="872.34" y2="196.4"/>
    <rect class="cls-1" x="895.34" y="195.4" width="1" height="0"/>
  </g>
  <g>
    <line class="cls-1" x1="964.56" y1="195.93" x2="964.56" y2="126.43"/>
    <line class="cls-1" x1="1007.06" y1="126.43" x2="964.06" y2="126.43"/>
    <line class="cls-1" x1="1007.06" y1="126.43" x2="1034.56" y2="126.43"/>
    <line class="cls-1" x1="1034.56" y1="126.43" x2="1034.56" y2="178.93"/>
    <line class="cls-1" x1="1011.56" y1="178.43" x2="1035.06" y2="178.43"/>
    <line class="cls-1" x1="989.06" y1="146.43" x2="1011.06" y2="146.43"/>
    <line class="cls-1" x1="988.56" y1="195.43" x2="988.56" y2="145.93"/>
    <line class="cls-1" x1="1011.56" y1="178.93" x2="1011.56" y2="145.93"/>
    <line class="cls-1" x1="1057.56" y1="196.43" x2="988.06" y2="196.43"/>
    <line class="cls-1" x1="1034.56" y1="126.43" x2="1015.56" y2="126.43"/>
    <line class="cls-1" x1="1034.56" y1="126.43" x2="1015.56" y2="126.43"/>
    <line class="cls-1" x1="1034.06" y1="126.43" x2="1035.06" y2="126.43"/>
    <line class="cls-1" x1="964.06" y1="196.43" x2="965.06" y2="196.43"/>
    <rect class="cls-1" x="988.06" y="195.43" width="1" height="0"/>
  </g>
  <g>
    <line class="cls-1" x1="1057.56" y1="195.93" x2="1057.56" y2="126.43"/>
    <line class="cls-1" x1="1100.06" y1="126.43" x2="1057.06" y2="126.43"/>
    <line class="cls-1" x1="1100.06" y1="126.43" x2="1127.56" y2="126.43"/>
    <line class="cls-1" x1="1127.56" y1="126.43" x2="1127.56" y2="178.93"/>
    <line class="cls-1" x1="1104.56" y1="178.43" x2="1128.06" y2="178.43"/>
    <line class="cls-1" x1="1082.06" y1="146.43" x2="1104.06" y2="146.43"/>
    <line class="cls-1" x1="1081.56" y1="195.43" x2="1081.56" y2="145.93"/>
    <line class="cls-1" x1="1104.56" y1="178.93" x2="1104.56" y2="145.93"/>
    <line class="cls-1" x1="1150.56" y1="196.43" x2="1081.06" y2="196.43"/>
    <line class="cls-1" x1="1127.56" y1="126.43" x2="1108.56" y2="126.43"/>
    <line class="cls-1" x1="1127.56" y1="126.43" x2="1108.56" y2="126.43"/>
    <line class="cls-1" x1="1127.06" y1="126.43" x2="1128.06" y2="126.43"/>
    <line class="cls-1" x1="1057.06" y1="196.43" x2="1058.06" y2="196.43"/>
    <rect class="cls-1" x="1081.06" y="195.43" width="1" height="0"/>
  </g>
  <g>
    <line class="cls-1" x1="1149.89" y1="195.4" x2="1149.89" y2="125.9"/>
    <line class="cls-1" x1="1192.39" y1="125.9" x2="1149.39" y2="125.9"/>
    <line class="cls-1" x1="1192.39" y1="125.9" x2="1219.89" y2="125.9"/>
    <line class="cls-1" x1="1219.89" y1="125.9" x2="1219.89" y2="178.4"/>
    <line class="cls-1" x1="1196.89" y1="177.9" x2="1220.39" y2="177.9"/>
    <line class="cls-1" x1="1174.39" y1="145.9" x2="1196.39" y2="145.9"/>
    <line class="cls-1" x1="1173.89" y1="194.9" x2="1173.89" y2="145.4"/>
    <line class="cls-1" x1="1196.89" y1="178.4" x2="1196.89" y2="145.4"/>
    <line class="cls-1" x1="1242.89" y1="195.9" x2="1173.39" y2="195.9"/>
    <line class="cls-1" x1="1219.89" y1="125.9" x2="1200.89" y2="125.9"/>
    <line class="cls-1" x1="1219.89" y1="125.9" x2="1200.89" y2="125.9"/>
    <line class="cls-1" x1="1219.39" y1="125.9" x2="1220.39" y2="125.9"/>
    <line class="cls-1" x1="1149.39" y1="195.9" x2="1150.39" y2="195.9"/>
    <rect class="cls-1" x="1173.39" y="194.9" width="1" height="0"/>
  </g>
  <g>
    <line class="cls-1" x1="1242.89" y1="195.4" x2="1242.89" y2="125.9"/>
    <line class="cls-1" x1="1285.39" y1="125.9" x2="1242.39" y2="125.9"/>
    <line class="cls-1" x1="1285.39" y1="125.9" x2="1312.89" y2="125.9"/>
    <line class="cls-1" x1="1312.89" y1="125.9" x2="1312.89" y2="178.4"/>
    <line class="cls-1" x1="1289.89" y1="177.9" x2="1313.39" y2="177.9"/>
    <line class="cls-1" x1="1267.39" y1="145.9" x2="1289.39" y2="145.9"/>
    <line class="cls-1" x1="1266.89" y1="194.9" x2="1266.89" y2="145.4"/>
    <line class="cls-1" x1="1289.89" y1="178.4" x2="1289.89" y2="145.4"/>
    <line class="cls-1" x1="1335.89" y1="195.9" x2="1266.39" y2="195.9"/>
    <line class="cls-1" x1="1312.89" y1="125.9" x2="1293.89" y2="125.9"/>
    <line class="cls-1" x1="1312.89" y1="125.9" x2="1293.89" y2="125.9"/>
    <line class="cls-1" x1="1312.39" y1="125.9" x2="1313.39" y2="125.9"/>
    <line class="cls-1" x1="1242.39" y1="195.9" x2="1243.39" y2="195.9"/>
    <rect class="cls-1" x="1266.39" y="194.9" width="1" height="0"/>
  </g>
  <g>
    <line class="cls-1" x1="1335.61" y1="195.42" x2="1335.61" y2="125.92"/>
    <line class="cls-1" x1="1378.11" y1="125.92" x2="1335.11" y2="125.92"/>
    <line class="cls-1" x1="1378.11" y1="125.92" x2="1405.61" y2="125.92"/>
    <line class="cls-1" x1="1405.61" y1="125.92" x2="1405.61" y2="178.42"/>
    <line class="cls-1" x1="1382.61" y1="177.92" x2="1406.11" y2="177.92"/>
    <line class="cls-1" x1="1360.11" y1="145.92" x2="1382.11" y2="145.92"/>
    <line class="cls-1" x1="1359.61" y1="194.92" x2="1359.61" y2="145.42"/>
    <line class="cls-1" x1="1382.61" y1="178.42" x2="1382.61" y2="145.42"/>
    <line class="cls-1" x1="1428.61" y1="195.92" x2="1359.11" y2="195.92"/>
    <line class="cls-1" x1="1405.61" y1="125.92" x2="1386.61" y2="125.92"/>
    <line class="cls-1" x1="1405.61" y1="125.92" x2="1386.61" y2="125.92"/>
    <line class="cls-1" x1="1405.11" y1="125.92" x2="1406.11" y2="125.92"/>
    <line class="cls-1" x1="1335.11" y1="195.92" x2="1336.11" y2="195.92"/>
    <rect class="cls-1" x="1359.11" y="194.92" width="1" height="0"/>
  </g>
  <g>
    <line class="cls-1" x1="1428.61" y1="195.42" x2="1428.61" y2="125.92"/>
    <line class="cls-1" x1="1471.11" y1="125.92" x2="1428.11" y2="125.92"/>
    <line class="cls-1" x1="1471.11" y1="125.92" x2="1498.61" y2="125.92"/>
    <line class="cls-1" x1="1498.61" y1="125.92" x2="1498.61" y2="178.42"/>
    <line class="cls-1" x1="1475.61" y1="177.92" x2="1499.11" y2="177.92"/>
    <line class="cls-1" x1="1453.11" y1="145.92" x2="1475.11" y2="145.92"/>
    <line class="cls-1" x1="1452.61" y1="194.92" x2="1452.61" y2="145.42"/>
    <line class="cls-1" x1="1475.61" y1="178.42" x2="1475.61" y2="145.42"/>
    <line class="cls-1" x1="1521.61" y1="195.92" x2="1452.11" y2="195.92"/>
    <line class="cls-1" x1="1498.61" y1="125.92" x2="1479.61" y2="125.92"/>
    <line class="cls-1" x1="1498.61" y1="125.92" x2="1479.61" y2="125.92"/>
    <line class="cls-1" x1="1498.11" y1="125.92" x2="1499.11" y2="125.92"/>
    <line class="cls-1" x1="1428.11" y1="195.92" x2="1429.11" y2="195.92"/>
    <rect class="cls-1" x="1452.11" y="194.92" width="1" height="0"/>
  </g>
  <g>
    <line class="cls-1" x1="1799.21" y1="194.43" x2="1799.21" y2="124.93"/>
    <line class="cls-1" x1="1841.71" y1="124.93" x2="1798.71" y2="124.93"/>
    <line class="cls-1" x1="1841.71" y1="124.93" x2="1869.21" y2="124.93"/>
    <line class="cls-1" x1="1869.21" y1="124.93" x2="1869.21" y2="177.43"/>
    <line class="cls-1" x1="1846.21" y1="176.93" x2="1869.71" y2="176.93"/>
    <line class="cls-1" x1="1823.71" y1="144.93" x2="1845.71" y2="144.93"/>
    <line class="cls-1" x1="1823.21" y1="193.93" x2="1823.21" y2="144.43"/>
    <line class="cls-1" x1="1846.21" y1="177.43" x2="1846.21" y2="144.43"/>
    <line class="cls-1" x1="1892.21" y1="194.93" x2="1822.71" y2="194.93"/>
    <line class="cls-1" x1="1869.21" y1="124.93" x2="1850.21" y2="124.93"/>
    <line class="cls-1" x1="1869.21" y1="124.93" x2="1850.21" y2="124.93"/>
    <line class="cls-1" x1="1868.71" y1="124.93" x2="1869.71" y2="124.93"/>
    <line class="cls-1" x1="1798.71" y1="194.93" x2="1799.71" y2="194.93"/>
    <rect class="cls-1" x="1822.71" y="193.93" width="1" height="0"/>
  </g>
  <g>
    <line class="cls-1" x1="1798.21" y1="99.43" x2="1798.21" y2="29.93"/>
    <line class="cls-1" x1="1840.71" y1="29.93" x2="1797.71" y2="29.93"/>
    <line class="cls-1" x1="1840.71" y1="29.93" x2="1868.21" y2="29.93"/>
    <line class="cls-1" x1="1868.21" y1="29.93" x2="1868.21" y2="82.43"/>
    <line class="cls-1" x1="1845.21" y1="81.93" x2="1868.71" y2="81.93"/>
    <line class="cls-1" x1="1822.71" y1="49.93" x2="1844.71" y2="49.93"/>
    <line class="cls-1" x1="1822.21" y1="98.93" x2="1822.21" y2="49.43"/>
    <line class="cls-1" x1="1845.21" y1="82.43" x2="1845.21" y2="49.43"/>
    <line class="cls-1" x1="1891.21" y1="99.93" x2="1821.71" y2="99.93"/>
    <line class="cls-1" x1="1868.21" y1="29.93" x2="1849.21" y2="29.93"/>
    <line class="cls-1" x1="1868.21" y1="29.93" x2="1849.21" y2="29.93"/>
    <line class="cls-1" x1="1867.71" y1="29.93" x2="1868.71" y2="29.93"/>
    <line class="cls-1" x1="1797.71" y1="99.93" x2="1798.71" y2="99.93"/>
    <rect class="cls-1" x="1821.71" y="98.93" width="1" height="0"/>
  </g>
</svg>