<?xml version="1.0" encoding="UTF-8"?>
<svg id="Layer_2" data-name="Layer 2" xmlns="http://www.w3.org/2000/svg" viewBox="0 0 233 322">
  <defs>
    <style>
      .cls-1 {
        fill: none;
        stroke: red;
        stroke-miterlimit: 10;
      }
    </style>
  </defs>
  <g id="Layer_1-2" data-name="Layer 1">
    <g>
      <circle class="cls-1" cx="67" cy="104" r=".5"/>
      <ellipse class="cls-1" cx="64.5" cy="104" rx="3" ry=".5"/>
      <ellipse class="cls-1" cx="63.5" cy="104" rx="4" ry=".5"/>
      <ellipse class="cls-1" cx="62" cy="103.5" rx="5.5" ry="1"/>
      <ellipse class="cls-1" cx="59.5" cy="102" rx="8" ry="2.5"/>
      <ellipse class="cls-1" cx="57" cy="101" rx="10.5" ry="3.5"/>
      <ellipse class="cls-1" cx="54" cy="99" rx="13.5" ry="5.5"/>
      <ellipse class="cls-1" cx="52" cy="96.5" rx="15.5" ry="8"/>
      <ellipse class="cls-1" cx="50" cy="95" rx="17.5" ry="9.5"/>
      <ellipse class="cls-1" cx="49.5" cy="94" rx="18" ry="10.5"/>
      <ellipse class="cls-1" cx="48.5" cy="93" rx="19" ry="11.5"/>
      <ellipse class="cls-1" cx="48.5" cy="92.5" rx="19" ry="12"/>
      <ellipse class="cls-1" cx="48.5" cy="92.5" rx="19" ry="12"/>
      <ellipse class="cls-1" cx="48.5" cy="92.5" rx="19" ry="12"/>
      <ellipse class="cls-1" cx="48.5" cy="92" rx="19" ry="12.5"/>
      <ellipse class="cls-1" cx="48.5" cy="91" rx="19" ry="13.5"/>
      <ellipse class="cls-1" cx="48" cy="89.5" rx="19.5" ry="15"/>
      <ellipse class="cls-1" cx="48" cy="89" rx="19.5" ry="15.5"/>
      <ellipse class="cls-1" cx="47.5" cy="89" rx="20" ry="15.5"/>
      <ellipse class="cls-1" cx="47.5" cy="87.5" rx="20" ry="17"/>
      <circle class="cls-1" cx="49.5" cy="86.5" r="18"/>
      <circle class="cls-1" cx="48" cy="85" r="19.5"/>
      <circle class="cls-1" cx="48" cy="85" r="19.5"/>
      <circle class="cls-1" cx="47.5" cy="84.5" r="20"/>
      <circle class="cls-1" cx="47" cy="84" r="20.5"/>
      <ellipse class="cls-1" cx="47" cy="82" rx="20.5" ry="22.5"/>
      <circle class="cls-1" cx="45.5" cy="82.5" r="22"/>
      <ellipse class="cls-1" cx="47" cy="80" rx="20.5" ry="24.5"/>
      <ellipse class="cls-1" cx="47.5" cy="77.5" rx="20" ry="27"/>
      <ellipse class="cls-1" cx="48" cy="77" rx="19.5" ry="27.5"/>
      <ellipse class="cls-1" cx="48" cy="76.5" rx="19.5" ry="28"/>
      <ellipse class="cls-1" cx="48.5" cy="75.5" rx="19" ry="29"/>
      <ellipse class="cls-1" cx="48.5" cy="75.5" rx="19" ry="29"/>
      <ellipse class="cls-1" cx="49" cy="74" rx="18.5" ry="30.5"/>
      <ellipse class="cls-1" cx="49.5" cy="73.5" rx="18" ry="31"/>
      <ellipse class="cls-1" cx="49.5" cy="73" rx="18" ry="31.5"/>
      <ellipse class="cls-1" cx="50" cy="72" rx="17.5" ry="32.5"/>
      <ellipse class="cls-1" cx="51" cy="71.5" rx="16.5" ry="33"/>
      <ellipse class="cls-1" cx="51.5" cy="70.5" rx="16" ry="34"/>
      <ellipse class="cls-1" cx="51.5" cy="70.5" rx="16" ry="34"/>
      <ellipse class="cls-1" cx="52" cy="69.5" rx="15.5" ry="35"/>
      <ellipse class="cls-1" cx="52" cy="69.5" rx="15.5" ry="35"/>
      <ellipse class="cls-1" cx="52.5" cy="68.5" rx="15" ry="36"/>
      <ellipse class="cls-1" cx="52.5" cy="68.5" rx="15" ry="36"/>
      <ellipse class="cls-1" cx="53.5" cy="67.5" rx="14" ry="37"/>
      <ellipse class="cls-1" cx="54" cy="67" rx="13.5" ry="37.5"/>
      <ellipse class="cls-1" cx="54.5" cy="66" rx="13" ry="38.5"/>
      <ellipse class="cls-1" cx="55.5" cy="65" rx="12" ry="39.5"/>
      <ellipse class="cls-1" cx="56" cy="64.5" rx="11.5" ry="40"/>
      <ellipse class="cls-1" cx="57" cy="63.5" rx="10.5" ry="41"/>
      <ellipse class="cls-1" cx="57.5" cy="63" rx="10" ry="41.5"/>
      <ellipse class="cls-1" cx="58" cy="63" rx="9.5" ry="41.5"/>
      <ellipse class="cls-1" cx="58.5" cy="62" rx="9" ry="42.5"/>
      <ellipse class="cls-1" cx="59" cy="61.5" rx="8.5" ry="43"/>
      <ellipse class="cls-1" cx="60.5" cy="61" rx="7" ry="43.5"/>
      <ellipse class="cls-1" cx="61.5" cy="60" rx="6" ry="44.5"/>
      <ellipse class="cls-1" cx="62.5" cy="58.5" rx="5" ry="46"/>
      <ellipse class="cls-1" cx="64" cy="58" rx="3.5" ry="46.5"/>
      <ellipse class="cls-1" cx="65.5" cy="57" rx="2" ry="47.5"/>
      <ellipse class="cls-1" cx="66.5" cy="56" rx="1" ry="48.5"/>
      <path class="cls-1" d="m67.5,55.5V6.5v98-49Z"/>
      <ellipse class="cls-1" cx="68.5" cy="55" rx="1" ry="49.5"/>
      <ellipse class="cls-1" cx="70" cy="55" rx="2.5" ry="49.5"/>
      <ellipse class="cls-1" cx="71" cy="54" rx="3.5" ry="50.5"/>
      <ellipse class="cls-1" cx="71.5" cy="54" rx="4" ry="50.5"/>
      <ellipse class="cls-1" cx="72.5" cy="54" rx="5" ry="50.5"/>
      <ellipse class="cls-1" cx="74" cy="53.5" rx="6.5" ry="51"/>
      <ellipse class="cls-1" cx="76" cy="53" rx="8.5" ry="51.5"/>
      <ellipse class="cls-1" cx="77.5" cy="53" rx="10" ry="51.5"/>
      <ellipse class="cls-1" cx="80" cy="53" rx="12.5" ry="51.5"/>
      <ellipse class="cls-1" cx="81.5" cy="53" rx="14" ry="51.5"/>
      <ellipse class="cls-1" cx="83.5" cy="52.5" rx="16" ry="52"/>
      <ellipse class="cls-1" cx="86" cy="52.5" rx="18.5" ry="52"/>
      <ellipse class="cls-1" cx="88.5" cy="52.5" rx="21" ry="52"/>
      <ellipse class="cls-1" cx="91" cy="52.5" rx="23.5" ry="52"/>
      <ellipse class="cls-1" cx="92" cy="52.5" rx="24.5" ry="52"/>
      <ellipse class="cls-1" cx="93.5" cy="52.5" rx="26" ry="52"/>
      <ellipse class="cls-1" cx="94.5" cy="52.5" rx="27" ry="52"/>
      <ellipse class="cls-1" cx="96" cy="52.5" rx="28.5" ry="52"/>
      <ellipse class="cls-1" cx="97" cy="52.5" rx="29.5" ry="52"/>
      <ellipse class="cls-1" cx="98" cy="54" rx="30.5" ry="50.5"/>
      <ellipse class="cls-1" cx="101" cy="54" rx="33.5" ry="50.5"/>
      <ellipse class="cls-1" cx="103" cy="55" rx="35.5" ry="49.5"/>
      <ellipse class="cls-1" cx="106.5" cy="56" rx="39" ry="48.5"/>
      <ellipse class="cls-1" cx="109" cy="57" rx="41.5" ry="47.5"/>
      <ellipse class="cls-1" cx="111" cy="58" rx="43.5" ry="46.5"/>
      <ellipse class="cls-1" cx="112.5" cy="59" rx="45" ry="45.5"/>
      <circle class="cls-1" cx="112.5" cy="59.5" r="45"/>
      <ellipse class="cls-1" cx="115" cy="60.5" rx="47.5" ry="44"/>
      <ellipse class="cls-1" cx="115.5" cy="60.5" rx="48" ry="44"/>
      <ellipse class="cls-1" cx="116.5" cy="61" rx="49" ry="43.5"/>
      <ellipse class="cls-1" cx="117.5" cy="61.5" rx="50" ry="43"/>
      <ellipse class="cls-1" cx="119.5" cy="62.5" rx="52" ry="42"/>
      <ellipse class="cls-1" cx="121" cy="63.5" rx="53.5" ry="41"/>
      <ellipse class="cls-1" cx="123.5" cy="65.5" rx="56" ry="39"/>
      <ellipse class="cls-1" cx="125.5" cy="66.5" rx="58" ry="38"/>
      <ellipse class="cls-1" cx="126" cy="67.5" rx="58.5" ry="37"/>
      <ellipse class="cls-1" cx="126.5" cy="68.5" rx="59" ry="36"/>
      <ellipse class="cls-1" cx="126.5" cy="68.5" rx="59" ry="36"/>
      <ellipse class="cls-1" cx="127" cy="68.5" rx="59.5" ry="36"/>
      <ellipse class="cls-1" cx="127" cy="68.5" rx="59.5" ry="36"/>
      <ellipse class="cls-1" cx="127" cy="68.5" rx="59.5" ry="36"/>
      <ellipse class="cls-1" cx="127" cy="68.5" rx="59.5" ry="36"/>
      <ellipse class="cls-1" cx="127.5" cy="68.5" rx="60" ry="36"/>
      <ellipse class="cls-1" cx="128.5" cy="70" rx="61" ry="34.5"/>
      <ellipse class="cls-1" cx="129" cy="70.5" rx="61.5" ry="34"/>
      <ellipse class="cls-1" cx="130" cy="72" rx="62.5" ry="32.5"/>
      <ellipse class="cls-1" cx="130.5" cy="73" rx="63" ry="31.5"/>
      <ellipse class="cls-1" cx="131" cy="73.5" rx="63.5" ry="31"/>
      <ellipse class="cls-1" cx="131.5" cy="74" rx="64" ry="30.5"/>
      <ellipse class="cls-1" cx="131.5" cy="74" rx="64" ry="30.5"/>
      <ellipse class="cls-1" cx="132" cy="75.5" rx="64.5" ry="29"/>
      <ellipse class="cls-1" cx="132.5" cy="77.5" rx="65" ry="27"/>
      <ellipse class="cls-1" cx="134.5" cy="80.5" rx="67" ry="24"/>
      <ellipse class="cls-1" cx="136" cy="85" rx="68.5" ry="19.5"/>
      <ellipse class="cls-1" cx="137" cy="87.5" rx="69.5" ry="17"/>
      <ellipse class="cls-1" cx="138.5" cy="90.5" rx="71" ry="14"/>
      <ellipse class="cls-1" cx="139.5" cy="92.5" rx="72" ry="12"/>
      <ellipse class="cls-1" cx="139.5" cy="95" rx="72" ry="9.5"/>
      <ellipse class="cls-1" cx="141" cy="100" rx="73.5" ry="4.5"/>
      <ellipse class="cls-1" cx="142.5" cy="102.5" rx="75.5" ry=".5"/>
      <ellipse class="cls-1" cx="141.5" cy="106" rx="76.5" ry="3"/>
      <ellipse class="cls-1" cx="144.5" cy="109" rx="77.5" ry="6"/>
      <ellipse class="cls-1" cx="145.5" cy="112" rx="78" ry="7.5"/>
      <ellipse class="cls-1" cx="145.5" cy="113" rx="78" ry="8.5"/>
      <ellipse class="cls-1" cx="146" cy="113.5" rx="78.5" ry="9"/>
      <ellipse class="cls-1" cx="146" cy="115.5" rx="78.5" ry="11"/>
      <ellipse class="cls-1" cx="148" cy="118.5" rx="80.5" ry="14"/>
      <ellipse class="cls-1" cx="148.5" cy="120.5" rx="81" ry="16"/>
      <ellipse class="cls-1" cx="149" cy="123" rx="81.5" ry="18.5"/>
      <ellipse class="cls-1" cx="149.5" cy="125" rx="82" ry="20.5"/>
      <ellipse class="cls-1" cx="149.5" cy="126" rx="82" ry="21.5"/>
      <ellipse class="cls-1" cx="149.5" cy="128" rx="82" ry="23.5"/>
      <ellipse class="cls-1" cx="149.5" cy="129.5" rx="82" ry="25"/>
      <ellipse class="cls-1" cx="150" cy="131.5" rx="82.5" ry="27"/>
      <ellipse class="cls-1" cx="150" cy="133.5" rx="82.5" ry="29"/>
      <ellipse class="cls-1" cx="150" cy="135.5" rx="82.5" ry="31"/>
      <ellipse class="cls-1" cx="150" cy="137.5" rx="82.5" ry="33"/>
      <ellipse class="cls-1" cx="150" cy="139.5" rx="82.5" ry="35"/>
      <ellipse class="cls-1" cx="150" cy="141" rx="82.5" ry="36.5"/>
      <ellipse class="cls-1" cx="150" cy="143.5" rx="82.5" ry="39"/>
      <ellipse class="cls-1" cx="150" cy="146.5" rx="82.5" ry="42"/>
      <ellipse class="cls-1" cx="149.5" cy="149" rx="82" ry="44.5"/>
      <ellipse class="cls-1" cx="149.5" cy="150" rx="82" ry="45.5"/>
      <ellipse class="cls-1" cx="149.5" cy="151" rx="82" ry="46.5"/>
      <ellipse class="cls-1" cx="149" cy="152" rx="81.5" ry="47.5"/>
      <ellipse class="cls-1" cx="149" cy="153.5" rx="81.5" ry="49"/>
      <ellipse class="cls-1" cx="149" cy="154.5" rx="81.5" ry="50"/>
      <ellipse class="cls-1" cx="149" cy="157" rx="81.5" ry="52.5"/>
      <ellipse class="cls-1" cx="149" cy="159.5" rx="81.5" ry="55"/>
      <ellipse class="cls-1" cx="148.5" cy="162.5" rx="81" ry="58"/>
      <ellipse class="cls-1" cx="148" cy="164.5" rx="80.5" ry="60"/>
      <ellipse class="cls-1" cx="147" cy="166.5" rx="79.5" ry="62"/>
      <ellipse class="cls-1" cx="146.5" cy="169" rx="79" ry="64.5"/>
      <ellipse class="cls-1" cx="146.5" cy="171.5" rx="79" ry="67"/>
      <ellipse class="cls-1" cx="146.5" cy="175" rx="79" ry="70.5"/>
      <ellipse class="cls-1" cx="146.5" cy="179.5" rx="79" ry="75"/>
      <ellipse class="cls-1" cx="146.5" cy="184" rx="79" ry="79.5"/>
      <ellipse class="cls-1" cx="146.5" cy="187" rx="79" ry="82.5"/>
      <ellipse class="cls-1" cx="145.5" cy="189" rx="78" ry="84.5"/>
      <ellipse class="cls-1" cx="145" cy="191.5" rx="77.5" ry="87"/>
      <ellipse class="cls-1" cx="144.5" cy="191" rx="77" ry="86.5"/>
      <ellipse class="cls-1" cx="144" cy="193.5" rx="76.5" ry="89"/>
      <ellipse class="cls-1" cx="143.5" cy="194.5" rx="76" ry="90"/>
      <ellipse class="cls-1" cx="142" cy="196" rx="74.5" ry="91.5"/>
      <ellipse class="cls-1" cx="141" cy="197.5" rx="73.5" ry="93"/>
      <ellipse class="cls-1" cx="140" cy="198.5" rx="72.5" ry="94"/>
      <ellipse class="cls-1" cx="139" cy="200.5" rx="71.5" ry="96"/>
      <ellipse class="cls-1" cx="137.5" cy="202" rx="70" ry="97.5"/>
      <ellipse class="cls-1" cx="136.5" cy="203.5" rx="69" ry="99"/>
      <ellipse class="cls-1" cx="135.5" cy="205.5" rx="68" ry="101"/>
      <ellipse class="cls-1" cx="134.5" cy="206.5" rx="67" ry="102"/>
      <ellipse class="cls-1" cx="133.5" cy="207" rx="66" ry="102.5"/>
      <ellipse class="cls-1" cx="132" cy="208" rx="64.5" ry="103.5"/>
      <ellipse class="cls-1" cx="131" cy="209" rx="63.5" ry="104.5"/>
      <ellipse class="cls-1" cx="130.5" cy="209" rx="63" ry="104.5"/>
      <ellipse class="cls-1" cx="129.5" cy="209.5" rx="62" ry="105"/>
      <ellipse class="cls-1" cx="129" cy="209.5" rx="61.5" ry="105"/>
      <ellipse class="cls-1" cx="127.5" cy="210" rx="60" ry="105.5"/>
      <ellipse class="cls-1" cx="127" cy="210" rx="59.5" ry="105.5"/>
      <ellipse class="cls-1" cx="126" cy="210" rx="58.5" ry="105.5"/>
      <ellipse class="cls-1" cx="125.5" cy="210" rx="58" ry="105.5"/>
      <ellipse class="cls-1" cx="125" cy="211.5" rx="57.5" ry="107"/>
      <ellipse class="cls-1" cx="124.5" cy="211.5" rx="57" ry="107"/>
      <ellipse class="cls-1" cx="122.5" cy="212" rx="55" ry="107.5"/>
      <ellipse class="cls-1" cx="120.5" cy="212" rx="53" ry="107.5"/>
      <ellipse class="cls-1" cx="119.5" cy="211.5" rx="52" ry="107"/>
      <ellipse class="cls-1" cx="118" cy="211.5" rx="50.5" ry="107"/>
      <ellipse class="cls-1" cx="117" cy="212.5" rx="49.5" ry="108"/>
      <ellipse class="cls-1" cx="115.5" cy="212.5" rx="48" ry="108"/>
      <ellipse class="cls-1" cx="114.5" cy="212.5" rx="47" ry="108"/>
      <ellipse class="cls-1" cx="113" cy="212.5" rx="45.5" ry="108"/>
      <ellipse class="cls-1" cx="111.5" cy="213" rx="44" ry="108.5"/>
      <ellipse class="cls-1" cx="109.5" cy="213" rx="42" ry="108.5"/>
      <ellipse class="cls-1" cx="107.5" cy="213" rx="40" ry="108.5"/>
      <ellipse class="cls-1" cx="106" cy="213" rx="38.5" ry="108.5"/>
      <ellipse class="cls-1" cx="104.5" cy="213" rx="37" ry="108.5"/>
      <ellipse class="cls-1" cx="103" cy="212.5" rx="35.5" ry="108"/>
      <ellipse class="cls-1" cx="102" cy="212.5" rx="34.5" ry="108"/>
      <ellipse class="cls-1" cx="100.5" cy="213" rx="33" ry="108.5"/>
      <ellipse class="cls-1" cx="98.5" cy="213" rx="31" ry="108.5"/>
      <ellipse class="cls-1" cx="96" cy="213" rx="28.5" ry="108.5"/>
      <ellipse class="cls-1" cx="94.5" cy="213" rx="27" ry="108.5"/>
      <ellipse class="cls-1" cx="92.5" cy="213" rx="25" ry="108.5"/>
      <ellipse class="cls-1" cx="91" cy="213" rx="23.5" ry="108.5"/>
      <ellipse class="cls-1" cx="90" cy="212.5" rx="22.5" ry="108"/>
      <ellipse class="cls-1" cx="88.5" cy="212.5" rx="21" ry="108"/>
      <ellipse class="cls-1" cx="86" cy="212.5" rx="18.5" ry="108"/>
      <ellipse class="cls-1" cx="85" cy="212.5" rx="17.5" ry="108"/>
      <ellipse class="cls-1" cx="83.5" cy="212.5" rx="16" ry="108"/>
      <ellipse class="cls-1" cx="82.5" cy="212.5" rx="15" ry="108"/>
      <ellipse class="cls-1" cx="81.5" cy="212.5" rx="14" ry="108"/>
      <ellipse class="cls-1" cx="80" cy="212.5" rx="12.5" ry="108"/>
      <ellipse class="cls-1" cx="78.5" cy="212.5" rx="11" ry="108"/>
      <ellipse class="cls-1" cx="76.5" cy="212" rx="9" ry="107.5"/>
      <ellipse class="cls-1" cx="75" cy="211" rx="7.5" ry="106.5"/>
      <ellipse class="cls-1" cx="73" cy="210.5" rx="5.5" ry="106"/>
      <ellipse class="cls-1" cx="72" cy="209.5" rx="4.5" ry="105"/>
      <ellipse class="cls-1" cx="70.5" cy="209" rx="3" ry="104.5"/>
      <ellipse class="cls-1" cx="69.5" cy="209.5" rx="2" ry="105"/>
      <path class="cls-1" d="m67.5,208.5v104V104.5v104Z"/>
      <ellipse class="cls-1" cx="66" cy="208" rx="1.5" ry="103.5"/>
      <ellipse class="cls-1" cx="64.5" cy="208.5" rx="3" ry="104"/>
      <ellipse class="cls-1" cx="63.5" cy="207" rx="4" ry="102.5"/>
      <ellipse class="cls-1" cx="62" cy="207" rx="5.5" ry="102.5"/>
      <ellipse class="cls-1" cx="60.5" cy="206.5" rx="7" ry="102"/>
      <ellipse class="cls-1" cx="59" cy="205.5" rx="8.5" ry="101"/>
      <ellipse class="cls-1" cx="58" cy="205.5" rx="9.5" ry="101"/>
      <ellipse class="cls-1" cx="57.5" cy="205.5" rx="10" ry="101"/>
      <ellipse class="cls-1" cx="56.5" cy="205.5" rx="11" ry="101"/>
      <ellipse class="cls-1" cx="55.5" cy="204" rx="12" ry="99.5"/>
      <ellipse class="cls-1" cx="53.5" cy="203" rx="14" ry="98.5"/>
      <ellipse class="cls-1" cx="52" cy="202.5" rx="15.5" ry="98"/>
      <ellipse class="cls-1" cx="51.5" cy="202.5" rx="16" ry="98"/>
      <ellipse class="cls-1" cx="51" cy="202.5" rx="16.5" ry="98"/>
      <ellipse class="cls-1" cx="51" cy="202.5" rx="16.5" ry="98"/>
      <ellipse class="cls-1" cx="50" cy="201" rx="17.5" ry="96.5"/>
      <ellipse class="cls-1" cx="50" cy="201" rx="17.5" ry="96.5"/>
      <ellipse class="cls-1" cx="49.5" cy="201" rx="18" ry="96.5"/>
      <ellipse class="cls-1" cx="49.5" cy="201" rx="18" ry="96.5"/>
      <ellipse class="cls-1" cx="49.5" cy="201" rx="18" ry="96.5"/>
      <ellipse class="cls-1" cx="49.5" cy="200" rx="18" ry="95.5"/>
      <ellipse class="cls-1" cx="49" cy="200" rx="18.5" ry="95.5"/>
      <ellipse class="cls-1" cx="49" cy="200" rx="18.5" ry="95.5"/>
      <ellipse class="cls-1" cx="48.5" cy="199.5" rx="19" ry="95"/>
      <ellipse class="cls-1" cx="48" cy="199.5" rx="19.5" ry="95"/>
      <ellipse class="cls-1" cx="47.5" cy="199.5" rx="20" ry="95"/>
      <ellipse class="cls-1" cx="47.5" cy="199.5" rx="20" ry="95"/>
      <ellipse class="cls-1" cx="47.5" cy="197" rx="20" ry="92.5"/>
      <ellipse class="cls-1" cx="47" cy="197" rx="20.5" ry="92.5"/>
      <ellipse class="cls-1" cx="47" cy="197" rx="20.5" ry="92.5"/>
      <ellipse class="cls-1" cx="47" cy="197" rx="20.5" ry="92.5"/>
      <ellipse class="cls-1" cx="46.5" cy="197" rx="21" ry="92.5"/>
      <ellipse class="cls-1" cx="46" cy="197" rx="21.5" ry="92.5"/>
      <ellipse class="cls-1" cx="46" cy="196.5" rx="21.5" ry="92"/>
      <ellipse class="cls-1" cx="45" cy="196.5" rx="22.5" ry="92"/>
      <ellipse class="cls-1" cx="45" cy="196.5" rx="22.5" ry="92"/>
      <ellipse class="cls-1" cx="45" cy="196.5" rx="22.5" ry="92"/>
      <ellipse class="cls-1" cx="45" cy="196.5" rx="22.5" ry="92"/>
      <ellipse class="cls-1" cx="45" cy="196.5" rx="22.5" ry="92"/>
      <ellipse class="cls-1" cx="44.5" cy="196.5" rx="23" ry="92"/>
      <ellipse class="cls-1" cx="44.5" cy="194.5" rx="23" ry="90"/>
      <ellipse class="cls-1" cx="44.5" cy="194.5" rx="23" ry="90"/>
      <ellipse class="cls-1" cx="44.5" cy="194.5" rx="23" ry="90"/>
      <ellipse class="cls-1" cx="44.5" cy="194.5" rx="23" ry="90"/>
      <ellipse class="cls-1" cx="44.5" cy="194.5" rx="23" ry="90"/>
      <ellipse class="cls-1" cx="44.5" cy="194.5" rx="23" ry="90"/>
      <ellipse class="cls-1" cx="44" cy="194.5" rx="23.5" ry="90"/>
      <ellipse class="cls-1" cx="44" cy="194.5" rx="23.5" ry="90"/>
      <ellipse class="cls-1" cx="44" cy="194.5" rx="23.5" ry="90"/>
      <ellipse class="cls-1" cx="44" cy="194.5" rx="23.5" ry="90"/>
      <ellipse class="cls-1" cx="44" cy="194.5" rx="23.5" ry="90"/>
      <ellipse class="cls-1" cx="44" cy="193.5" rx="23.5" ry="89"/>
      <ellipse class="cls-1" cx="43.5" cy="193.5" rx="24" ry="89"/>
      <ellipse class="cls-1" cx="43.5" cy="193.5" rx="24" ry="89"/>
      <ellipse class="cls-1" cx="43.5" cy="193.5" rx="24" ry="89"/>
      <ellipse class="cls-1" cx="43" cy="191" rx="24.5" ry="86.5"/>
      <ellipse class="cls-1" cx="43" cy="191" rx="24.5" ry="86.5"/>
      <ellipse class="cls-1" cx="43" cy="191" rx="24.5" ry="86.5"/>
      <ellipse class="cls-1" cx="43" cy="191" rx="24.5" ry="86.5"/>
      <ellipse class="cls-1" cx="43" cy="191" rx="24.5" ry="86.5"/>
      <ellipse class="cls-1" cx="42.5" cy="190" rx="25" ry="85.5"/>
      <ellipse class="cls-1" cx="42.5" cy="190" rx="25" ry="85.5"/>
      <ellipse class="cls-1" cx="42.5" cy="190" rx="25" ry="85.5"/>
      <ellipse class="cls-1" cx="42.5" cy="190" rx="25" ry="85.5"/>
      <ellipse class="cls-1" cx="42" cy="190" rx="25.5" ry="85.5"/>
      <ellipse class="cls-1" cx="42" cy="190" rx="25.5" ry="85.5"/>
      <ellipse class="cls-1" cx="42" cy="188" rx="25.5" ry="83.5"/>
      <ellipse class="cls-1" cx="42" cy="188" rx="25.5" ry="83.5"/>
      <ellipse class="cls-1" cx="42" cy="188" rx="25.5" ry="83.5"/>
      <ellipse class="cls-1" cx="41.5" cy="188" rx="26" ry="83.5"/>
      <ellipse class="cls-1" cx="41.5" cy="188" rx="26" ry="83.5"/>
      <ellipse class="cls-1" cx="41.5" cy="188" rx="26" ry="83.5"/>
      <ellipse class="cls-1" cx="41.5" cy="186.5" rx="26" ry="82"/>
      <ellipse class="cls-1" cx="41.5" cy="186.5" rx="26" ry="82"/>
      <ellipse class="cls-1" cx="41.5" cy="186.5" rx="26" ry="82"/>
      <ellipse class="cls-1" cx="41" cy="185.5" rx="26.5" ry="81"/>
      <ellipse class="cls-1" cx="41" cy="184" rx="26.5" ry="79.5"/>
      <ellipse class="cls-1" cx="40" cy="184" rx="27.5" ry="79.5"/>
      <ellipse class="cls-1" cx="40" cy="183.5" rx="27.5" ry="79"/>
      <ellipse class="cls-1" cx="40" cy="183.5" rx="27.5" ry="79"/>
      <ellipse class="cls-1" cx="40" cy="183.5" rx="27.5" ry="79"/>
      <ellipse class="cls-1" cx="40" cy="182" rx="27.5" ry="77.5"/>
      <ellipse class="cls-1" cx="40" cy="181" rx="27.5" ry="76.5"/>
      <ellipse class="cls-1" cx="40" cy="179" rx="27.5" ry="74.5"/>
      <ellipse class="cls-1" cx="37.5" cy="179" rx="30" ry="74.5"/>
      <ellipse class="cls-1" cx="37.5" cy="178.5" rx="30" ry="74"/>
      <ellipse class="cls-1" cx="37.5" cy="177.5" rx="30" ry="73"/>
      <ellipse class="cls-1" cx="37.5" cy="177" rx="30" ry="72.5"/>
      <ellipse class="cls-1" cx="37.5" cy="175.5" rx="30" ry="71"/>
      <ellipse class="cls-1" cx="37.5" cy="175" rx="30" ry="70.5"/>
      <ellipse class="cls-1" cx="37.5" cy="174" rx="30" ry="69.5"/>
      <ellipse class="cls-1" cx="37.5" cy="174" rx="30" ry="69.5"/>
      <ellipse class="cls-1" cx="37.5" cy="172" rx="30" ry="67.5"/>
      <ellipse class="cls-1" cx="37.5" cy="172" rx="30" ry="67.5"/>
      <ellipse class="cls-1" cx="37.5" cy="169.5" rx="30" ry="65"/>
      <ellipse class="cls-1" cx="37.5" cy="169.5" rx="30" ry="65"/>
      <ellipse class="cls-1" cx="38" cy="168" rx="29.5" ry="63.5"/>
      <ellipse class="cls-1" cx="38" cy="165.5" rx="29.5" ry="61"/>
      <ellipse class="cls-1" cx="37.5" cy="163" rx="30" ry="58.5"/>
      <ellipse class="cls-1" cx="37" cy="161" rx="30.5" ry="56.5"/>
      <ellipse class="cls-1" cx="37.5" cy="160.5" rx="30" ry="56"/>
      <ellipse class="cls-1" cx="37.5" cy="159.5" rx="30" ry="55"/>
      <ellipse class="cls-1" cx="37.5" cy="158.5" rx="30" ry="54"/>
      <ellipse class="cls-1" cx="36.5" cy="157" rx="31" ry="52.5"/>
      <ellipse class="cls-1" cx="36.5" cy="155" rx="31" ry="50.5"/>
      <ellipse class="cls-1" cx="36.5" cy="153.5" rx="31" ry="49"/>
      <ellipse class="cls-1" cx="36.5" cy="152" rx="31" ry="47.5"/>
      <ellipse class="cls-1" cx="36.5" cy="150" rx="31" ry="45.5"/>
      <ellipse class="cls-1" cx="36" cy="148.5" rx="31.5" ry="44"/>
      <ellipse class="cls-1" cx="36" cy="146" rx="31.5" ry="41.5"/>
      <ellipse class="cls-1" cx="37.5" cy="145" rx="30" ry="40.5"/>
      <ellipse class="cls-1" cx="37.5" cy="144" rx="30" ry="39.5"/>
      <ellipse class="cls-1" cx="37.5" cy="144" rx="30" ry="39.5"/>
      <ellipse class="cls-1" cx="37.5" cy="143.5" rx="30" ry="39"/>
      <ellipse class="cls-1" cx="37.5" cy="143" rx="30" ry="38.5"/>
      <ellipse class="cls-1" cx="37.5" cy="142.5" rx="30" ry="38"/>
      <ellipse class="cls-1" cx="37.5" cy="141.5" rx="30" ry="37"/>
      <ellipse class="cls-1" cx="37.5" cy="140" rx="30" ry="35.5"/>
      <ellipse class="cls-1" cx="37.5" cy="139.5" rx="30" ry="35"/>
      <circle class="cls-1" cx="34.5" cy="137.5" r="33"/>
      <circle class="cls-1" cx="34.5" cy="137.5" r="33"/>
      <circle class="cls-1" cx="35.5" cy="136.5" r="32"/>
      <circle class="cls-1" cx="36" cy="136" r="31.5"/>
      <ellipse class="cls-1" cx="36" cy="134" rx="31.5" ry="29.5"/>
      <circle class="cls-1" cx="37.5" cy="134.5" r="30"/>
      <ellipse class="cls-1" cx="37.5" cy="131.5" rx="30" ry="27"/>
      <ellipse class="cls-1" cx="37.5" cy="131" rx="30" ry="26.5"/>
      <ellipse class="cls-1" cx="36" cy="129.5" rx="31.5" ry="25"/>
      <ellipse class="cls-1" cx="37.5" cy="128.5" rx="30" ry="24"/>
      <ellipse class="cls-1" cx="37.5" cy="127.5" rx="30" ry="23"/>
      <ellipse class="cls-1" cx="36" cy="125.5" rx="31.5" ry="21"/>
      <ellipse class="cls-1" cx="37.5" cy="124.5" rx="30" ry="20"/>
      <ellipse class="cls-1" cx="37.5" cy="123.5" rx="30" ry="19"/>
      <ellipse class="cls-1" cx="37.5" cy="122" rx="30" ry="17.5"/>
      <ellipse class="cls-1" cx="37.5" cy="121.5" rx="30" ry="17"/>
      <ellipse class="cls-1" cx="35" cy="120" rx="32.5" ry="15.5"/>
      <ellipse class="cls-1" cx="35" cy="119.5" rx="32.5" ry="15"/>
      <ellipse class="cls-1" cx="35" cy="118.5" rx="32.5" ry="14"/>
      <ellipse class="cls-1" cx="35" cy="118" rx="32.5" ry="13.5"/>
      <ellipse class="cls-1" cx="35" cy="116.5" rx="32.5" ry="12"/>
      <ellipse class="cls-1" cx="34.5" cy="115" rx="33" ry="10.5"/>
      <ellipse class="cls-1" cx="34.5" cy="113" rx="33" ry="8.5"/>
      <ellipse class="cls-1" cx="34.5" cy="111.5" rx="33" ry="7"/>
      <ellipse class="cls-1" cx="34" cy="109.5" rx="33.5" ry="5"/>
      <ellipse class="cls-1" cx="34" cy="109" rx="33.5" ry="4.5"/>
      <ellipse class="cls-1" cx="34" cy="108.5" rx="33.5" ry="4"/>
      <ellipse class="cls-1" cx="34" cy="107.5" rx="33.5" ry="3"/>
      <ellipse class="cls-1" cx="34" cy="107.5" rx="33.5" ry="3"/>
      <ellipse class="cls-1" cx="34" cy="107" rx="33.5" ry="2.5"/>
      <ellipse class="cls-1" cx="34" cy="106" rx="33.5" ry="1.5"/>
      <ellipse class="cls-1" cx="34" cy="105.5" rx="33.5" ry="1"/>
      <path class="cls-1" d="m.5,104.5h67H.5Z"/>
      <ellipse class="cls-1" cx="34" cy="103.5" rx="33.5" ry="1"/>
      <ellipse class="cls-1" cx="34" cy="102.5" rx="33.5" ry="2"/>
      <ellipse class="cls-1" cx="34" cy="101" rx="33.5" ry="3.5"/>
      <ellipse class="cls-1" cx="34" cy="100.5" rx="33.5" ry="4"/>
      <ellipse class="cls-1" cx="34" cy="100" rx="33.5" ry="4.5"/>
      <ellipse class="cls-1" cx="34" cy="99.5" rx="33.5" ry="5"/>
      <ellipse class="cls-1" cx="34" cy="99.5" rx="33.5" ry="5"/>
      <ellipse class="cls-1" cx="34" cy="99" rx="33.5" ry="5.5"/>
      <ellipse class="cls-1" cx="34" cy="99" rx="33.5" ry="5.5"/>
      <ellipse class="cls-1" cx="34" cy="98" rx="33.5" ry="6.5"/>
      <ellipse class="cls-1" cx="34" cy="97" rx="33.5" ry="7.5"/>
      <ellipse class="cls-1" cx="34" cy="96.5" rx="33.5" ry="8"/>
      <ellipse class="cls-1" cx="34" cy="96.5" rx="33.5" ry="8"/>
      <ellipse class="cls-1" cx="34" cy="96.5" rx="33.5" ry="8"/>
      <ellipse class="cls-1" cx="34.5" cy="95.5" rx="33" ry="9"/>
      <ellipse class="cls-1" cx="34.5" cy="95" rx="33" ry="9.5"/>
      <ellipse class="cls-1" cx="34.5" cy="94.5" rx="33" ry="10"/>
      <ellipse class="cls-1" cx="34.5" cy="94" rx="33" ry="10.5"/>
      <ellipse class="cls-1" cx="35" cy="94" rx="32.5" ry="10.5"/>
      <ellipse class="cls-1" cx="35" cy="93" rx="32.5" ry="11.5"/>
      <ellipse class="cls-1" cx="35" cy="93" rx="32.5" ry="11.5"/>
      <ellipse class="cls-1" cx="37.5" cy="92.5" rx="30" ry="12"/>
      <ellipse class="cls-1" cx="37.5" cy="92.5" rx="30" ry="12"/>
      <ellipse class="cls-1" cx="37.5" cy="92.5" rx="30" ry="12"/>
      <ellipse class="cls-1" cx="37.5" cy="92.5" rx="30" ry="12"/>
      <ellipse class="cls-1" cx="37.5" cy="92.5" rx="30" ry="12"/>
      <ellipse class="cls-1" cx="37.5" cy="92" rx="30" ry="12.5"/>
      <ellipse class="cls-1" cx="37.5" cy="92" rx="30" ry="12.5"/>
      <ellipse class="cls-1" cx="37.5" cy="92" rx="30" ry="12.5"/>
      <ellipse class="cls-1" cx="37.5" cy="91" rx="30" ry="13.5"/>
      <ellipse class="cls-1" cx="37.5" cy="91" rx="30" ry="13.5"/>
      <ellipse class="cls-1" cx="37.5" cy="91" rx="30" ry="13.5"/>
      <ellipse class="cls-1" cx="37.5" cy="91" rx="30" ry="13.5"/>
      <ellipse class="cls-1" cx="37.5" cy="91" rx="30" ry="13.5"/>
      <ellipse class="cls-1" cx="37.5" cy="91" rx="30" ry="13.5"/>
      <ellipse class="cls-1" cx="37.5" cy="90.5" rx="30" ry="14"/>
      <ellipse class="cls-1" cx="37.5" cy="89.5" rx="30" ry="15"/>
      <ellipse class="cls-1" cx="37.5" cy="89" rx="30" ry="15.5"/>
      <ellipse class="cls-1" cx="40" cy="89" rx="27.5" ry="15.5"/>
      <ellipse class="cls-1" cx="40" cy="88.5" rx="27.5" ry="16"/>
      <ellipse class="cls-1" cx="40" cy="88.5" rx="27.5" ry="16"/>
      <ellipse class="cls-1" cx="41" cy="88.5" rx="26.5" ry="16"/>
      <ellipse class="cls-1" cx="41" cy="88.5" rx="26.5" ry="16"/>
      <ellipse class="cls-1" cx="41" cy="88.5" rx="26.5" ry="16"/>
      <ellipse class="cls-1" cx="41" cy="88.5" rx="26.5" ry="16"/>
      <ellipse class="cls-1" cx="41.5" cy="88.5" rx="26" ry="16"/>
      <ellipse class="cls-1" cx="41.5" cy="88.5" rx="26" ry="16"/>
      <ellipse class="cls-1" cx="42" cy="88.5" rx="25.5" ry="16"/>
      <ellipse class="cls-1" cx="42" cy="87" rx="25.5" ry="17.5"/>
      <ellipse class="cls-1" cx="42.5" cy="87" rx="25" ry="17.5"/>
      <ellipse class="cls-1" cx="42.5" cy="87" rx="25" ry="17.5"/>
      <ellipse class="cls-1" cx="43" cy="87" rx="24.5" ry="17.5"/>
      <ellipse class="cls-1" cx="43" cy="86.5" rx="24.5" ry="18"/>
      <ellipse class="cls-1" cx="43" cy="86.5" rx="24.5" ry="18"/>
      <ellipse class="cls-1" cx="43.5" cy="86.5" rx="24" ry="18"/>
      <ellipse class="cls-1" cx="43.5" cy="86.5" rx="24" ry="18"/>
      <ellipse class="cls-1" cx="43.5" cy="86.5" rx="24" ry="18"/>
      <ellipse class="cls-1" cx="43.5" cy="86.5" rx="24" ry="18"/>
      <ellipse class="cls-1" cx="43.5" cy="86" rx="24" ry="18.5"/>
      <ellipse class="cls-1" cx="44" cy="86" rx="23.5" ry="18.5"/>
      <ellipse class="cls-1" cx="44" cy="86" rx="23.5" ry="18.5"/>
      <ellipse class="cls-1" cx="44" cy="86" rx="23.5" ry="18.5"/>
      <ellipse class="cls-1" cx="44" cy="86" rx="23.5" ry="18.5"/>
      <ellipse class="cls-1" cx="44" cy="86" rx="23.5" ry="18.5"/>
      <ellipse class="cls-1" cx="44" cy="86" rx="23.5" ry="18.5"/>
      <ellipse class="cls-1" cx="44" cy="86" rx="23.5" ry="18.5"/>
    </g>
  </g>
</svg>