<?xml version="1.0" encoding="UTF-8"?>
<svg id="Layer_1" data-name="Layer 1" xmlns="http://www.w3.org/2000/svg" viewBox="0 0 1920 1080">
  <defs>
    <style>
      .cls-1 {
        font-family: Arial-Black, 'Arial Black';
        font-size: 256.92px;
        font-weight: 800;
      }

      .cls-1, .cls-2 {
        fill: #fff;
      }

      .cls-2 {
        stroke-width: 0px;
      }
    </style>
  </defs>
  <text class="cls-1" transform="translate(559.79 400.42) scale(1.04 1)"><tspan x="0" y="0" xml:space="preserve">  </tspan></text>
  <text class="cls-1" transform="translate(561.68 488.87) scale(1.03 1)"><tspan x="0" y="0">M</tspan></text>
  <text class="cls-1" transform="translate(802.92 551.26) scale(1.04 1)"><tspan x="0" y="0">I</tspan></text>
  <text class="cls-1" transform="translate(858.7 474.79) scale(1.04 1)"><tspan x="0" y="0">T</tspan></text>
  <text class="cls-1" transform="translate(1052.12 495.78) scale(1.04 1)"><tspan x="0" y="0">R</tspan></text>
  <text class="cls-1" transform="translate(1261.41 553.72) scale(1.04 1)"><tspan x="0" y="0">I</tspan></text>
  <text class="cls-1" transform="translate(510.37 701.31) scale(1.04 1)"><tspan x="0" y="0">M</tspan></text>
  <text class="cls-1" transform="translate(741.72 752.7) scale(1.04 1)"><tspan x="0" y="0">E</tspan></text>
  <text class="cls-1" transform="translate(1197.66 788.66) scale(1.04 1)"><tspan x="0" y="0">A</tspan></text>
  <text class="cls-1" transform="translate(1106.47 737.28) scale(1.04 1)"><tspan x="0" y="0">I</tspan></text>
  <text class="cls-1" transform="translate(918.73 701.31) scale(1.04 1)"><tspan x="0" y="0">D</tspan></text>
  <text class="cls-1" transform="translate(521.96 331.95) scale(1.04 1)"><tspan x="0" y="0" xml:space="preserve">  </tspan></text>
  <path class="cls-2" d="m1159.8,677.43c19.28-14.25,38.77-28.23,58.47-41.91,19.8-13.75,39.8-27.21,59.99-40.37,20.14-13.12,40.47-25.95,60.98-38.48,20.54-12.54,41.26-24.78,62.15-36.72,21-12,42.18-23.69,63.53-35.06,2.59-1.38,5.19-2.76,7.79-4.13l-10.26-10.26c-16.77,35.18-33.53,70.36-50.3,105.54-16.77,35.18-33.54,70.36-50.3,105.54-9.41,19.75-18.83,39.51-28.24,59.26-1.4,2.93-1.4,6.72,1.17,9.09s6.03,2.78,9.09,1.17c8.77-4.61,17.55-9.23,26.32-13.84,3.48-1.83,4.82-6.96,2.69-10.26-2.28-3.54-6.54-4.65-10.26-2.69-8.77,4.61-17.55,9.23-26.32,13.84l10.26,10.26c16.77-35.18,33.54-70.36,50.3-105.54s33.54-70.36,50.3-105.54c9.41-19.75,18.83-39.51,28.24-59.26,1.4-2.93,1.4-6.72-1.17-9.09s-6.03-2.79-9.09-1.17c-21.3,11.26-42.44,22.82-63.41,34.69s-41.88,24.13-62.55,36.65c-20.56,12.46-40.94,25.21-61.12,38.27-20.16,13.04-40.13,26.37-59.9,40-19.83,13.66-39.45,27.62-58.87,41.87-2.36,1.73-4.71,3.46-7.06,5.2-1.62,1.2-2.89,2.46-3.45,4.48-.49,1.8-.27,4.19.76,5.78,2.01,3.11,6.89,5.18,10.26,2.69h0Z"/>
  <path class="cls-2" d="m955.33,667.81c5.58-4.42,11.17-8.83,16.77-13.21,2.89-2.26,5.79-4.52,8.7-6.77,1.27-.98,2.54-1.97,3.81-2.95-1.01.78-.07.05.12-.09.36-.28.73-.56,1.09-.84.73-.56,1.45-1.12,2.18-1.68,11.38-8.75,22.81-17.42,34.31-26.02,23.05-17.24,46.49-33.94,69.71-50.96,3.06-2.24,6.05-4.56,9.04-6.89,1.42-1.1,2.84-2.21,4.26-3.32.27-.21.53-.41.8-.62.93-.72-.85.65.09-.07.77-.59,1.54-1.18,2.33-1.74,5.67-3.99,11.87-7.05,17.34-11.35,2.49-1.96,4.84-4.09,7.25-6.15.54-.46,1.09-.93,1.64-1.38.32-.26.64-.51.95-.77-.21.17-1.19.87-.05.04,1.39-1.02,2.82-1.95,4.26-2.89,5.86-3.81,11.63-7.75,17.35-11.77,22.65-15.89,44.62-32.77,68-47.6,23.62-14.98,46.22-31.52,70.05-46.18,3.03-1.86,6.08-3.69,9.15-5.49-2.52-4.32-5.05-8.63-7.57-12.95-4.46,3.42-9.17,6.47-14.09,9.19,2.52,4.32,5.05,8.63,7.57,12.95,4.63-3.16,9.33-6.22,14.09-9.19l-10.26-10.26c-2.28,3.77-3.94,7.87-5.88,11.82-.97,1.98-2.01,3.93-3.23,5.76-.25.38-.61.77-.82,1.17.9-1.76.46-.58-.09.04-.3.34-.62.68-.95,1-.19.18-.38.35-.57.53-.87.84.08-.1.48-.32-.82.45-1.65,1-2.47,1.48-.62.37.92-.38.89-.38-.18,0-.55.19-.75.25-.38.12-2.35.42-1.01.3,1.81-.15-1.09.13-.85.1-2.36.32-.14-.01.28,0,.88.02,1.64.27,2.4.68-.47-.25-.85-.76.57.47-.79-.68.57.08.35.51.02-.04-.32-.54-.35-.6-.43-.87.39,1.44.2.47-.06-.31-.17-.94-.3-1.19.1.19.15,1.81.16.51,0-.58.27-1.43-.28.7-.61,2.36.14.52.59-.17.42-.66-.43.6-.46.59.04,0,.52-.61.61-.71.47-.52.96-1.02,1.48-1.49.18-.16,1.27-.95,1.25-1.07.05.21-1.3.94-.39.31.26-.18.52-.37.78-.55,1.07-.74,2.17-1.41,3.3-2.05,5.01-2.83,10.41-4.91,15.33-7.9l-9.09-11.78c-.47.6-1.05,1.09-1.53,1.67s1.58-1.12.71-.56l-.19.11c1.59-.89,3.31-1.08,5.17-.59l3.31,1.93-.04-.04,2.2,5.3c-.02-.27-2.38,5.66-1.86,4.75.12-.21.99-.84-.04-.01s-.11.12.13-.03c.4-.26.82-.5,1.23-.74l-9.09-11.78c-2.57,2.44-4.62,5.39-6.57,8.33-.4.6-.8,1.21-1.22,1.81-.2.3-.41.59-.62.88-.12.16-.86,1.14-.21.31s-.12.12-.25.28c-.23.27-.46.53-.71.79-.55.58-1.14,1.11-1.75,1.62l12.54,7.3c-.31.8-.77,1.5-1.37,2.12l-7.3,1.93.07.03-5.24-5.24c2.77-5.68,3.2-7.72,1.3-6.13l11.78,9.09c1.38-2.45,2.9-4.76,4.53-7.05.33-.43.23-.31-.3.38.24-.3.48-.59.73-.89.49-.58.99-1.15,1.51-1.7s1.04-1.06,1.59-1.56c.27-.24.54-.48.82-.71-.82.61-.9.68-.25.2l-10.26-10.26c-1.5,1.97-2.99,3.94-4.5,5.9-1.16,1.51.76-.97-.1.12-.25.32-.5.64-.75.96-.42.54-.85,1.08-1.27,1.62-.57.72-1.14,1.43-1.73,2.13-.16.19-.34.37-.49.57-.05.07-.13.12-.18.19.44-.61,2.25-1.53,3.16-1.81h3.99,0c1.75,1.74,3.49,3.49,5.24,5.24.5,1.24.23,4.42-.7,5.62.04-.05.05-.11.09-.16.11-.15.2-.32.3-.47.32-.49.66-.97.99-1.45.98-1.39,1.99-2.75,3.02-4.11,1.16-1.52-1.05,1.33-.17.22.29-.36.57-.73.86-1.09.53-.67,1.07-1.33,1.63-1.98.43-.5.87-1.01,1.33-1.48.18-.18.39-.35.56-.54.76-.83-1.85,1.27-.99.77l-10.26-10.26c-21.99,29.01-43.56,58.33-65.08,87.68-10.76,14.68-21.5,29.39-32.31,44.04-10.57,14.32-21.57,28.34-31.68,42.99-10.94,15.85-20.56,32.58-28.87,49.95-1.69,3.53-1.09,8.26,2.69,10.26,3.35,1.77,8.45,1.09,10.26-2.69,7.41-15.5,15.87-30.5,25.38-44.81s20.71-28.76,31.31-42.95c21.73-29.09,42.93-58.57,64.5-87.76,12.16-16.45,24.38-32.84,36.73-49.14,1.91-2.52,1.06-7.04-1.17-9.09-2.46-2.26-6.12-2.9-9.09-1.17-1.96,1.14-3.46,2.99-4.87,4.71-1.94,2.37-3.8,4.81-5.61,7.29-.88,1.2-1.87,2.41-2.56,3.74-1.22,2.36-1.53,5.3-.02,7.65,2.29,3.55,6.57,4.65,10.28,2.69,1.06-.56,1.81-1.41,2.55-2.3,3.65-4.38,7.04-8.98,10.48-13.52,1.91-2.52,1.06-7.04-1.17-9.09s-6.36-3.17-9.09-1.17c-5.99,4.37-10.4,10.29-14.02,16.71-1.84,3.27-1.03,7.39,1.93,9.68,3.17,2.45,6.87,1.77,9.85-.59,3.87-3.06,3.66-9.43-.13-12.36-2.71-2.1-6.4-2.15-9.16-.03-1.77,1.36-2.58,2.98-3.25,5.09-.96,3.03.61,6.97,3.45,8.47,3.16,1.67,6.41,1.04,9.09-1.17s4.62-5.02,6.49-7.82c.82-1.22,1.62-2.45,2.48-3.65.11-.16.9-1.11.26-.36s.18-.19.3-.33c.56-.65,1.16-1.27,1.79-1.86,2.72-2.58,2.8-6.98.59-9.85s-6.41-3.82-9.68-1.93c-1.62.94-3.26,1.99-4.56,3.35-2.89,3.03-3.2,7.91-.1,10.98,4.38,4.33,10.53,1.58,13.75-2.55,2.32-2.99,3.06-6.64.59-9.85-2.23-2.89-6.45-3.88-9.68-1.93-5.14,3.11-10.79,5.24-15.97,8.27-6.16,3.59-13.9,9.65-13.65,17.53.15,4.66,2.37,9.62,6.47,12.09.91.55,1.96.98,2.98,1.25,2.08.57,2.84.17,4.88.01-2.29.18-1.28.17-.78.08.8-.15,1.61-.19,2.41-.33.73-.14,1.44-.32,2.15-.57,6.2-2.17,10.64-6.86,13.89-12.45,2.94-5.05,4.87-10.62,7.9-15.62,3.83-6.34-3.87-14.25-10.26-10.26-4.76,2.97-9.46,6.03-14.09,9.19-3.23,2.21-4.99,6.69-2.69,10.26s6.58,4.72,10.26,2.69c4.92-2.72,9.63-5.77,14.09-9.19,1.62-1.24,2.88-2.43,3.45-4.48.49-1.8.27-4.19-.76-5.78-2.2-3.41-6.64-4.81-10.26-2.69-24.32,14.23-47.13,30.8-70.71,46.2-11.61,7.58-23.27,15.04-34.6,23.04-11.39,8.04-22.62,16.31-33.97,24.41-5.66,4.04-11.35,8.05-17.1,11.95s-12.22,7.85-17.78,12.57c-1.16.99-2.31,2-3.46,3-.54.47-1.08.94-1.63,1.4-.31.26-.63.53-.95.79-.15.12-1.48,1.2-.69.57.69-.55-.13.1-.23.17-.34.25-.67.49-1.01.74-.68.48-1.38.95-2.08,1.4-1.4.91-2.84,1.77-4.28,2.62-6.19,3.68-11.78,7.93-17.45,12.35-.35.28-.71.55-1.06.83-.19.15-1.12.87-.08.07-.62.48-1.25.96-1.87,1.44-1.52,1.16-3.06,2.3-4.61,3.42-2.9,2.1-5.82,4.17-8.72,6.26-5.82,4.19-11.63,8.39-17.44,12.61-11.7,8.5-23.35,17.06-34.95,25.69-23.29,17.32-46.35,34.93-69.15,52.89-2.8,2.2-5.59,4.41-8.37,6.62-3.09,2.45-2.75,8.08,0,10.61,3.28,3.01,7.31,2.61,10.61,0h0Z"/>
  <path class="cls-2" d="m586.41,310.35c-42.26,67.61-83.73,135.72-124.36,204.33-11.47,19.37-22.86,38.77-34.2,58.22-3.55,6.09,3.94,14.84,10.26,10.26,61.02-44.19,121.34-89.28,181.71-134.35,60.01-44.79,119.87-89.79,178.77-136.03,3.83-3.01,7.71-5.72,11.82-8.34s7.19-5.36,10.4-8.89c3.4-3.74,7.95-6.79,11.89-9.96,4.21-3.39,8.44-6.74,12.69-10.08,16.28-12.78,32.72-25.38,48.18-39.17l-11.78-9.09c-3.17,4.58-6.01,9.36-9.86,13.42l11.78,9.09c2.57-5.12,5.64-9.53,9.86-13.42l-11.78-9.09c-46.62,65.21-100.29,124.89-153.46,184.74-53.06,59.73-105.89,120-151.18,185.97-24.69,35.97-47.13,73.56-65.25,113.29-1.4,3.08-1.35,6.57,1.17,9.09,2.32,2.32,6.25,2.9,9.09,1.17,11.92-7.25,24.07-14.26,35.78-21.85,5.25-3.4,10.46-6.73,15.89-9.85,2.58-1.48,5.14-2.98,7.63-4.6s4.93-3.83,7.78-4.99,5.55-1.88,8.22-3.14c3.18-1.5,5.85-3.8,8.58-5.97,5.03-3.99,9.96-8.13,15.11-11.97,10.83-8.07,22.94-14.51,34.28-21.85,22.08-14.31,43.93-28.96,66.12-43.09,5.63-3.58,10.77-7.96,16.1-11.97,2.62-1.97,5.14-3.81,8.09-5.23s6.56-2.18,9.5-3.81c5.25-2.92,9.63-7.36,14.28-11.1,4.24-3.41,9.31-4.97,13.8-8,10.95-7.38,21.46-15.39,32.15-23.14,5.21-3.78,10.45-7.51,15.77-11.12,5.59-3.78,11.85-6.99,17.01-11.33,4.67-3.92,8.58-8.17,13.79-11.42,5.46-3.4,10.72-7.11,16.05-10.72,11.2-7.59,22.45-15.01,33.43-22.92,21.16-15.24,41.87-31.09,62.55-46.97,10.59-8.13,21.17-16.26,31.81-24.32,5.41-4.1,10.76-8.32,16.3-12.25,5-3.55,8.68-7.89,13.19-11.95,4.8-4.33,10.86-7.7,16.16-11.43,5.33-3.75,11.01-7.16,15.94-11.44,4.13-3.58,7.56-7.85,11.3-11.81,4.09-4.32,8.84-7.57,13.65-11.03,10.2-7.34,20.38-14.74,30.08-22.73,10.03-8.26,19.33-17.3,29.63-25.26,5.02-3.87,10.12-7.63,15.2-11.41l-10.26-10.26c-2,4-3.51,8.52-6.71,11.74l12.54,7.3c.77-4.18,2.85-7.11,5.95-9.95l-12.54-7.3c-2.33,5.84-5.66,11.33-9.2,16.51-1.52,2.23-2.6,5.53-3.63,7.33-1.69,2.97-3.85,5.86-5.73,8.73-7.56,11.52-13.65,24.15-20.63,36.06-6.98,11.91-14.18,23.69-21.4,35.44-3.64,5.92-7.29,11.84-10.92,17.77s-7.7,11.71-10.07,18.28c-.99,2.74-2.78,5.09-4.34,7.54-2.05,3.2-4.09,6.39-6.14,9.59-3.78,5.92-7.55,11.84-11.3,17.78-7.24,11.43-14.43,22.88-21.56,34.37-14.25,22.95-28.28,46.05-41.99,69.33-7.75,13.16-15.4,26.37-22.95,39.64-7.62,13.41-14.69,27.29-23.57,39.93-2.33,3.32-.6,8.34,2.69,10.26,3.75,2.19,7.93.63,10.26-2.69,7.82-11.14,14.14-23.28,20.83-35.1,6.87-12.14,13.84-24.24,20.88-36.28,13.64-23.32,27.59-46.45,41.79-69.44,14.71-23.81,29.68-47.47,44.78-71.03,1.84-2.87,3.51-5.57,4.7-8.79s2.81-5.79,4.55-8.65c3.63-5.96,7.29-11.91,10.95-17.86,7.24-11.77,14.48-23.53,21.55-35.4,4.01-6.73,7.96-13.5,11.82-20.32,3.86-6.82,7.19-14.19,11.55-20.69,1.93-2.88,3.71-5.86,5.66-8.73,1.19-1.75,2.25-3.1,2.98-5.14.51-1.44.86-2.58,1.8-3.79,4.74-6.14,8.25-13.51,11.11-20.68,1.21-3.03-.81-6.93-3.45-8.47-2.96-1.73-6.62-1.09-9.09,1.17-4.81,4.41-8.61,10.08-9.81,16.57-1.3,7.03,6.92,12.95,12.54,7.3,4.24-4.27,6.41-9.5,9.06-14.78,1.51-3,1.29-6.63-1.17-9.09-2.17-2.17-6.46-3.13-9.09-1.17-10.68,7.96-21.44,15.84-31.49,24.6-9.5,8.28-18.77,16.64-28.88,24.2-4.98,3.73-10.03,7.36-15.09,10.99-5.01,3.6-10.23,7.02-14.61,11.4-3.83,3.83-7.19,8.12-11.13,11.85-4.52,4.28-10.09,7.46-15.16,11.03-5.53,3.89-11.49,7.48-16.74,11.74-4.3,3.49-7.53,8.04-12.05,11.25-11.11,7.89-21.82,16.42-32.64,24.71-20.66,15.82-41.23,31.77-62.15,47.25s-42.89,31.24-65.35,45.22c-5.57,3.47-10.08,7.69-14.91,12.08s-10.7,7.15-15.88,10.67c-10.8,7.32-21.24,15.16-31.79,22.83-5.33,3.87-10.66,7.75-16.12,11.43-2.01,1.36-4.01,2.53-6.24,3.45-3.27,1.34-5.92,3.23-8.71,5.4-4.17,3.25-8.18,7.9-13.03,10.11-2.93,1.33-6.06,2.26-8.99,3.65-3.19,1.51-5.88,3.4-8.69,5.52-5.32,4.01-10.45,8.43-16.1,11.97s-11.65,7.22-17.42,10.94c-10.88,7.02-21.63,14.26-32.41,21.43-11.13,7.41-22.32,14.74-33.71,21.73-5.72,3.51-11.48,6.83-16.86,10.85s-11.03,8.63-16.5,13.01c-2.27,1.81-4.49,3.78-7.19,4.93s-5.41,1.85-8.04,3.03c-5.46,2.46-10.37,6.7-15.6,9.7-11.56,6.65-22.7,14.01-34.08,20.97-5.86,3.58-11.72,7.16-17.59,10.73l10.26,10.26c32.28-70.79,77.84-134.86,126.83-194.96s106.54-121.6,159.1-183.02c29.31-34.26,57.72-69.33,83.95-106.02,5.14-7.19-5.77-14.62-11.78-9.09-5.06,4.66-9.12,10.31-12.21,16.45-3.67,7.3,5.64,15.56,11.78,9.09,4.73-4.99,8.31-10.83,12.21-16.45,5.07-7.32-5.72-14.49-11.78-9.09-13.72,12.24-28.21,23.55-42.69,34.87-7.4,5.78-14.78,11.58-22.06,17.52-3.13,2.55-6.47,4.94-9.04,8.06s-6.12,5.12-9.62,7.36c-8.07,5.16-15.41,11.64-22.95,17.53s-14.68,11.44-22.05,17.13c-14.56,11.26-29.18,22.45-43.83,33.6-58.55,44.53-117.7,88.25-176.56,132.37-34.29,25.71-68.94,50.9-103.65,76.03l10.26,10.26c40.08-68.77,81-137.05,122.74-204.82,11.87-19.28,23.82-38.53,35.82-57.73,5.13-8.21-7.84-15.75-12.95-7.57h0Z"/>
  <path class="cls-2" d="m922.06,642.08c-15.11,15.31-30.04,31.12-41.37,49.53-3.17,5.16-6.03,10.5-8.5,16.03-1.27,2.84-1.42,5.74.59,8.33.82,1.06,1.77,1.79,3,2.31,1.41.59,3.41.98,4.88.38,3.52-1.43,7.18-2.81,10.49-4.71,1.04-.6,2.06-1.31,2.91-2.15,2.77-2.72,3.03-7.13.68-10.17-4.06-5.26-11.38-2.53-16.14.09-2.5,1.37-5.05,3.37-6.41,5.93-1.44,2.7-1.31,5.88.59,8.33,1.71,2.21,5.09,3.72,7.88,2.69,22.57-8.33,43.29-20.55,62.94-34.31,5.4-3.78,10.73-7.67,16.02-11.61,1.62-1.21,2.89-2.46,3.45-4.48.49-1.8.27-4.19-.76-5.78s-2.57-3.01-4.48-3.45-4.19-.42-5.78.76c-16.79,12.5-34.03,24.54-52.63,34.23-5.29,2.76-10.68,5.31-16.18,7.64l1.79-.76c-2.76,1.16-5.55,2.26-8.36,3.3l8.47,11.02c.2-.37.84-1.2-.15.08s-.3.4,0,.11c.19-.18.4-.34.58-.52.65-.63-1.77,1.27-1,.78.12-.08.23-.16.34-.24,1.03-.69,2.14-1.25,3.28-1.73l-1.79.76c1.17-.48,2.39-.94,3.65-1.11l-1.99.27c.19-.02.38-.04.57-.02l-1.99-.27s.09.02.13.03l-1.79-.76c.08.03-2.6-2.63-2.58-2.59l-.76-1.79v.03c-.08-.66-.17-1.33-.26-1.99v.03c.09-.66.18-1.33.27-1.99,0,.02-.01.05-.02.07l.76-1.79c-.17.33,1.63-1.93.95-1.25-.61.61,1.95-1.33,1.03-.8-.46.27-.91.56-1.38.81-1.8.96-3.67,1.77-5.55,2.57l1.79-.76c-.85.36-1.7.71-2.55,1.06l8.47,11.02c4.34-9.69,9.87-18.79,16.14-27.34.75-1.03,1.52-2.05,2.29-3.06s-.33.43-.4.51c.21-.28.43-.56.65-.84.48-.61.96-1.22,1.45-1.83,1.59-1.98,3.21-3.94,4.86-5.87,3.37-3.94,6.86-7.79,10.41-11.57,3.98-4.23,8.04-8.39,12.12-12.52,2.76-2.8,3-7.85,0-10.61s-7.66-2.98-10.61,0h0Z"/>
  <path class="cls-2" d="m934.65,650.88c4.19-3.69,8.37-7.37,12.56-11.06,1.39-1.22,2.2-3.5,2.2-5.3s-.82-4.04-2.2-5.3-3.31-2.29-5.3-2.2l-1.99.27c-1.27.36-2.37,1-3.31,1.93-4.19,3.69-8.37,7.37-12.56,11.06-1.39,1.22-2.2,3.5-2.2,5.3s.82,4.04,2.2,5.3,3.31,2.29,5.3,2.2l1.99-.27c1.27-.36,2.37-1,3.31-1.93h0Z"/>
</svg>